<svg id="Military_Heroes_Final" data-name="Military Heroes Final" xmlns="http://www.w3.org/2000/svg" xmlns:xlink="http://www.w3.org/1999/xlink" width="151.34" height="159.419" viewBox="0 0 151.34 159.419">
  <defs>
    <clipPath id="clip-path">
      <rect id="Rectangle_175" data-name="Rectangle 175" width="106.223" height="35.851" fill="none"/>
    </clipPath>
    <linearGradient id="linear-gradient" x1="0.119" y1="1.126" x2="0.863" y2="0.227" gradientUnits="objectBoundingBox">
      <stop offset="0.21" stop-color="#fbb040"/>
      <stop offset="0.33" stop-color="#fff"/>
      <stop offset="0.34" stop-color="#fffdf9"/>
      <stop offset="0.39" stop-color="#fee9c9"/>
      <stop offset="0.45" stop-color="#fdd79f"/>
      <stop offset="0.51" stop-color="#fcc97c"/>
      <stop offset="0.57" stop-color="#fcbe62"/>
      <stop offset="0.63" stop-color="#fbb64f"/>
      <stop offset="0.69" stop-color="#fbb244"/>
      <stop offset="0.75" stop-color="#fbb040"/>
      <stop offset="0.87" stop-color="#fff"/>
      <stop offset="1" stop-color="#fbb040"/>
    </linearGradient>
    <radialGradient id="radial-gradient" cx="0.555" cy="0.336" r="0.375" gradientTransform="translate(0)" gradientUnits="objectBoundingBox">
      <stop offset="0" stop-color="#fff"/>
      <stop offset="1" stop-color="#009444"/>
    </radialGradient>
    <radialGradient id="radial-gradient-2" cx="0.555" cy="0.336" r="0.375" gradientTransform="matrix(1, 0, 0, 1, 0, 0)" xlink:href="#radial-gradient"/>
    <radialGradient id="radial-gradient-3" cx="0.493" cy="0.379" r="0.377" gradientTransform="matrix(1, -0.01, 0.01, 1.02, -0.004, -0.003)" xlink:href="#radial-gradient"/>
    <radialGradient id="radial-gradient-4" cx="0.555" cy="0.337" r="0.375" gradientUnits="objectBoundingBox">
      <stop offset="0" stop-color="#fff"/>
      <stop offset="1" stop-color="#be1e2d"/>
    </radialGradient>
    <radialGradient id="radial-gradient-5" cx="0.554" cy="0.337" r="0.375" gradientTransform="translate(0)" xlink:href="#radial-gradient-4"/>
    <clipPath id="clip-path-2">
      <path id="Path_528" data-name="Path 528" d="M136.358,351.11h0a11.512,11.512,0,0,0-11.518,11.518h0A11.512,11.512,0,0,1,136.358,351.11Z" transform="translate(-124.84 -351.11)" fill="none"/>
    </clipPath>
    <clipPath id="clip-path-3">
      <path id="Path_530" data-name="Path 530" d="M158.1,362.628h0A11.518,11.518,0,0,0,146.58,351.11h0A11.518,11.518,0,0,1,158.1,362.628Z" transform="translate(-146.58 -351.11)" fill="none"/>
    </clipPath>
    <clipPath id="clip-path-4">
      <path id="Path_532" data-name="Path 532" d="M128.242,393.512h0A20.662,20.662,0,0,1,107.58,372.85h0A20.662,20.662,0,0,0,128.242,393.512Z" transform="translate(-107.58 -372.85)" fill="none"/>
    </clipPath>
    <clipPath id="clip-path-5">
      <path id="Path_537" data-name="Path 537" d="M167.242,372.85h0a20.662,20.662,0,0,1-20.662,20.662h0a20.662,20.662,0,0,0,20.662-20.662Z" transform="translate(-146.58 -372.85)" fill="none"/>
    </clipPath>
    <clipPath id="clip-path-6">
      <path id="Path_589" data-name="Path 589" d="M134.326,374.393v-2.283a11.518,11.518,0,1,0-11.518-11.518,11.518,11.518,0,0,0,11.518,11.518v2.283a13.806,13.806,0,1,1,13.806-13.806,13.806,13.806,0,0,1-13.806,13.806Z" transform="translate(-120.52 -346.78)" fill="none"/>
    </clipPath>
    <clipPath id="clip-path-7">
      <path id="Path_642" data-name="Path 642" d="M128.242,336.133V333.85a20.662,20.662,0,1,1-20.662,20.662,20.662,20.662,0,0,1,20.662-20.662v2.283a18.378,18.378,0,1,0,18.373,18.375,18.378,18.378,0,0,0-18.373-18.375Z" transform="translate(-107.58 -333.85)" fill="none"/>
    </clipPath>
    <radialGradient id="radial-gradient-6" cx="0.555" cy="0.336" r="0.375" gradientTransform="translate(0)" xlink:href="#radial-gradient-4"/>
    <radialGradient id="radial-gradient-7" cx="0.557" cy="0.337" r="0.375" gradientTransform="matrix(1, 0, 0, 1, 0, 0)" xlink:href="#radial-gradient"/>
    <radialGradient id="radial-gradient-8" cx="0.555" cy="0.339" r="0.375" xlink:href="#radial-gradient"/>
    <radialGradient id="radial-gradient-9" cx="0.553" cy="0.337" r="0.375" gradientTransform="translate(0)" xlink:href="#radial-gradient-4"/>
    <radialGradient id="radial-gradient-10" cx="0.555" cy="0.335" r="0.375" gradientTransform="translate(0)" xlink:href="#radial-gradient-4"/>
  </defs>
  <rect id="Rectangle_163" data-name="Rectangle 163" width="113.571" height="99.368" transform="translate(19.396)" fill="#b3b3b3"/>
  <rect id="Rectangle_164" data-name="Rectangle 164" width="106.901" height="13.308" transform="translate(22.945 3.513)" fill="#be1e2d"/>
  <path id="Path_492" data-name="Path 492" d="M55.81,217.973V211.69h1.478v2.617l3.481-2.617h2.119l-4.169,2.956,4.678,3.327H61.05l-3.762-2.766v2.766Z" transform="translate(-26.973 -204.686)" fill="#fff" stroke="#fff" stroke-width="0.4"/>
  <path id="Path_493" data-name="Path 493" d="M72,217.973l3.555-6.283h1.415l3.608,6.283H78.946l-.752-1.351H74.209L73.478,218Zm2.813-2.506h2.755l-1.33-2.554Z" transform="translate(-34.586 -204.686)" fill="#fff" stroke="#fff" stroke-width="0.4"/>
  <path id="Path_494" data-name="Path 494" d="M92.27,217.973V211.69h5.383c.943,0,1.415.4,1.415,1.219v1.4c0,.811-.472,1.219-1.415,1.219H93.716v2.448ZM97,212.76H93.716v1.7h3.29a1.107,1.107,0,0,0,.477-.074.472.472,0,0,0,.18-.434v-.678a.466.466,0,0,0-.18-.434A1.107,1.107,0,0,0,97,212.76Z" transform="translate(-44.117 -204.686)" fill="#fff" stroke="#fff" stroke-width="0.4"/>
  <path id="Path_495" data-name="Path 495" d="M109.59,217.973V211.69h5.383c.943,0,1.415.4,1.415,1.219v1.4c0,.811-.472,1.219-1.415,1.219h-3.947v2.448Zm4.726-5.213h-3.29v1.7h3.29a1.107,1.107,0,0,0,.477-.074.472.472,0,0,0,.18-.434v-.678a.466.466,0,0,0-.18-.434A1.107,1.107,0,0,0,114.316,212.76Z" transform="translate(-52.261 -204.686)" fill="#fff" stroke="#fff" stroke-width="0.4"/>
  <path id="Path_496" data-name="Path 496" d="M124.63,217.973l3.555-6.283h1.409l3.608,6.283H131.56L130.8,216.6h-3.984l-.731,1.377Zm2.813-2.506H130.2l-1.351-2.554Z" transform="translate(-59.333 -204.686)" fill="#fff" stroke="#fff" stroke-width="0.4"/>
  <path id="Path_497" data-name="Path 497" d="M159.253,212.777H155.12v1.351h3.936a1.907,1.907,0,0,1,1.24.3,1.59,1.59,0,0,1,.334,1.181v.869a1.589,1.589,0,0,1-.334,1.181,1.9,1.9,0,0,1-1.24.3h-3.883a1.886,1.886,0,0,1-1.24-.3,1.589,1.589,0,0,1-.334-1.181v-.17l1.293-.27v.742h4.445v-1.436H155.4a1.839,1.839,0,0,1-1.234-.307,1.589,1.589,0,0,1-.328-1.181v-.694a1.589,1.589,0,0,1,.328-1.181,1.87,1.87,0,0,1,1.234-.3h3.566a1.912,1.912,0,0,1,1.213.291,1.362,1.362,0,0,1,.35,1.06v.138l-1.293.3Z" transform="translate(-72.949 -204.677)" fill="#fff" stroke="#fff" stroke-width="0.4"/>
  <path id="Path_498" data-name="Path 498" d="M172.84,217.973V211.69H174.3v6.283Z" transform="translate(-82.002 -204.686)" fill="#fff" stroke="#fff" stroke-width="0.4"/>
  <path id="Path_499" data-name="Path 499" d="M187.634,212.812h-4.556V216.8h4.556v-1.4h-2.389v-1.06h3.814v2.172a1.59,1.59,0,0,1-.328,1.181,1.854,1.854,0,0,1-1.229.3h-4.339a1.844,1.844,0,0,1-1.229-.3,1.589,1.589,0,0,1-.334-1.181v-3.316a1.589,1.589,0,0,1,.334-1.181,1.844,1.844,0,0,1,1.229-.3H187.5a1.87,1.87,0,0,1,1.219.3,1.457,1.457,0,0,1,.339,1.129v.143l-1.425.26Z" transform="translate(-86.115 -204.69)" fill="#fff" stroke="#fff" stroke-width="0.4"/>
  <path id="Path_500" data-name="Path 500" d="M201.77,217.973V211.69h1.181l2.962,3.8,2.9-3.8h1.171v6.283h-1.351V214.09a6.74,6.74,0,0,1,.048-.673,4.554,4.554,0,0,1-.366.657l-2.363,3.147h-.291l-2.368-3.179a2.776,2.776,0,0,1-.376-.646,6.5,6.5,0,0,1,.037.673v3.883Z" transform="translate(-95.605 -204.686)" fill="#fff" stroke="#fff" stroke-width="0.4"/>
  <path id="Path_501" data-name="Path 501" d="M221,217.973l3.56-6.283h1.415l3.608,6.283h-1.648l-.736-1.351h-3.984L222.483,218Zm2.818-2.506h2.75l-1.33-2.554Z" transform="translate(-104.647 -204.686)" fill="#fff" stroke="#fff" stroke-width="0.4"/>
  <g id="Group_256" data-name="Group 256" transform="translate(23.184 19.994)" clip-path="url(#clip-path)">
    <rect id="Rectangle_165" data-name="Rectangle 165" width="37.88" height="28.609" transform="translate(68.269 -0.111)" fill="#fff"/>
    <rect id="Rectangle_166" data-name="Rectangle 166" width="44.471" height="34.039" transform="translate(-6.161 -5.134)" fill="#fff"/>
    <rect id="Rectangle_167" data-name="Rectangle 167" width="19.931" height="23.804" transform="translate(-6.161 -1.324)" fill="#262262"/>
    <rect id="Rectangle_168" data-name="Rectangle 168" width="30.537" height="3.486" transform="translate(-0.27 25.414)" fill="#be1e2d"/>
    <rect id="Rectangle_169" data-name="Rectangle 169" width="16.498" height="3.486" transform="translate(13.769 -1.324)" fill="#be1e2d"/>
    <rect id="Rectangle_170" data-name="Rectangle 170" width="16.498" height="3.486" transform="translate(13.769 12.111)" fill="#be1e2d"/>
    <rect id="Rectangle_171" data-name="Rectangle 171" width="16.498" height="3.486" transform="translate(13.769 5.393)" fill="#be1e2d"/>
    <rect id="Rectangle_172" data-name="Rectangle 172" width="19.676" height="3.486" transform="translate(13.769 18.956)" fill="#be1e2d"/>
    <path id="Path_502" data-name="Path 502" d="M61.287,269.351h1.589l-1.33,1,.53,1.536-1.409-.938-1.425.911.461-1.563-1.2-.969h1.589l.6-1.324Z" transform="translate(-51.422 -251.158)" fill="#fff"/>
    <rect id="Rectangle_173" data-name="Rectangle 173" width="9.711" height="32.317" transform="translate(72.174 1.579)" fill="#be1e2d"/>
    <rect id="Rectangle_174" data-name="Rectangle 174" width="10.771" height="34.436" transform="translate(99.193 -0.54)" fill="#be1e2d"/>
    <path id="Path_503" data-name="Path 503" d="M208.675,66.359l.026-1.589-3,.524.275-1.34-3.7-2.834,1.282-.683-.551-2.114,1.918.3.461-1.033,2.024,1.86-.885-4.138,1.309.54,1.33-2.183,1.25,2.188,1.266-.445-.842,3.936,2.013-1.685.44,1.054,1.875-.254-.54,2.109,1.24.747-3.751,2.713.281,1.277-2.983-.519-.037,1.547Z" transform="translate(-118.297 -45.23)" fill="#be1e2d"/>
    <path id="Path_504" data-name="Path 504" d="M147.736,35.53,120.1,73.41H98.868L71.34,35.53h76.4Z" transform="translate(-56.728 -36.701)" fill="#fff"/>
    <path id="Path_505" data-name="Path 505" d="M88.538,35.29H77.91L99.573,66.325H110.2Z" transform="translate(-59.818 -36.588)" fill="#262262"/>
    <path id="Path_506" data-name="Path 506" d="M168.87,35.53,146.91,66.438h10.628l21.875-30.813Z" transform="translate(-92.262 -36.701)" fill="#262262"/>
    <path id="Path_507" data-name="Path 507" d="M135.265,35.68l-6.23,9.473-5.568-9.34H112.86l10.85,15.767,5.314,7.6,5.314-7.6,11.677-15.9Z" transform="translate(-76.251 -36.771)" fill="#be1e2d"/>
    <path id="Path_508" data-name="Path 508" d="M61.457,240h1.589l-1.33,1,.53,1.536-1.409-.938-1.43.943.461-1.558-1.2-.985h1.589l.615-1.362Z" transform="translate(-51.502 -237.348)" fill="#fff"/>
    <path id="Path_509" data-name="Path 509" d="M61.376,249.643h1.589l-1.324,1,.53,1.531-1.409-.932-1.42.922.461-1.558-1.2-.991h1.589l.609-1.367Z" transform="translate(-51.469 -241.871)" fill="#fff"/>
    <path id="Path_510" data-name="Path 510" d="M61.3,259.549h1.589l-1.324,1,.53,1.536-1.409-.938-1.425.911.466-1.563-1.2-.985h1.589l.609-1.367Z" transform="translate(-51.431 -246.522)" fill="#fff"/>
    <path id="Path_511" data-name="Path 511" d="M50.787,244.893h1.589l-1.33,1,.53,1.531-1.409-.932-1.425.906.461-1.558-1.2-.975h1.589L50.2,243.5Z" transform="translate(-46.485 -239.638)" fill="#fff"/>
    <path id="Path_512" data-name="Path 512" d="M50.707,254.563H52.3l-1.33,1,.53,1.536-1.415-.922-1.425.911.461-1.563-1.2-.985h1.589l.615-1.367Z" transform="translate(-46.447 -244.185)" fill="#fff"/>
    <path id="Path_513" data-name="Path 513" d="M50.621,264.492h1.589l-1.324,1,.53,1.531-1.409-.932-1.425.906.461-1.558-1.2-.985h1.589l.615-1.33Z" transform="translate(-46.41 -248.863)" fill="#fff"/>
  </g>
  <path id="Path_514" data-name="Path 514" d="M43.028,350.8a51.449,51.449,0,0,1,102.848-3.136c.042,1.33.026,2.649-.037,3.952a55.749,55.749,0,0,0-53.165-77.9,56.119,56.119,0,0,0-54.526,57.535,48.011,48.011,0,0,0,4.54,19.952C42.652,350.573,43.044,351.431,43.028,350.8Z" transform="translate(-18.658 -233.839)" stroke="#fbb040" stroke-linejoin="round" stroke-width="2.06" fill="url(#linear-gradient)"/>
  <path id="Path_515" data-name="Path 515" d="M61.64,363.205s15.8-16.614,25.8-24.185c0,0-8.784-21.462-12.461-31.75,0,0,27.5,16.127,31.433,18.792,0,0,16.508-11.29,30.41-18.543,0,0-8.365,24.238-11.655,31.358,0,0,20.132,17.986,25.658,25.351,0,0-25.022-3.958-32.651-4.583L105.5,393.737,93.539,359.624S70.307,361.457,61.64,363.205Z" transform="translate(-29.715 -249.629)" fill="#fbb040" stroke="#fbb040" stroke-width="10.4"/>
  <path id="Path_516" data-name="Path 516" d="M61.45,364.207s15.894-17.266,25.9-24.837c0,0-8.789-21.462-12.466-31.75,0,0,27.5,16.127,31.433,18.792,0,0,16.508-11.29,30.415-18.543,0,0-8.371,24.238-11.655,31.358,0,0,21.139,17.3,26.023,25.213,0,0-25.388-3.825-33.017-4.445l-12.667,34.092L93.455,359.974C69.874,362.485,69.884,362.5,61.45,364.207Z" transform="translate(-29.625 -249.793)" fill="#fbb040"/>
  <path id="Path_517" data-name="Path 517" d="M91.486,359.41c-23.131,2.469-23.115,2.5-31.48,4.185h0l-1.886.376,1.319-1.425s15.5-16.837,25.594-24.619h0c-1.282-3.147-8.916-21.891-12.291-31.321h0L72.165,305l1.462.858s26.113,15.316,31.12,18.585h0c2.416-1.637,17.351-11.682,30.14-18.363h0l1.367-.715-.53,1.489S127.713,330.1,124.28,337.8h0c1.3,1.06,5.828,4.863,10.824,9.351h0c5.912,5.34,12.418,11.618,14.956,15.714h0l.715,1.16-1.324-.2s-6.357-.959-13.642-1.992h0c-7.009-.991-14.914-2.056-18.876-2.411h0l-13.091,35.242Zm12.4,31.623,12.238-32.942.456.037c6.6.53,26.251,3.433,31.666,4.238h0c-4.36-6.008-15.973-16.2-21.721-21.075h0c-2.056-1.743-3.364-2.819-3.369-2.824h0l-.381-.307.207-.45c1.589-3.513,4.53-11.359,7.03-18.294h0c1.748-4.863,3.3-9.287,4.069-11.507h0c-6.543,3.5-13.526,7.767-19,11.247h0c-5.854,3.709-9.965,6.538-9.971,6.543h0l-.344.233-.339-.233c-1.923-1.3-9.8-6.018-17.16-10.373h0c-5.3-3.152-10.357-6.119-12.768-7.534h0c1.865,5.081,4.63,12.106,7.014,18.087h0c2.649,6.644,4.848,12,4.853,12.01h0l.185.456-.387.291c-7.417,5.626-18.257,16.757-23.184,21.955h0l-1.3,1.377h0c6.7-1.34,8.477-1.552,30.2-3.873h0l.482-.048,11.565,32.979ZM60.329,363.409l-.445-.434Z" transform="translate(-28.06 -248.561)" fill="#ffdcae"/>
  <path id="Path_518" data-name="Path 518" d="M78.96,167.633l21.049-16.609L91.018,127.75l21.806,14.209,23.035-13.552-7.873,21.51,17.065,17.356-21.287-1.886-10.67,24.63-8.286-24.185Z" transform="translate(-37.128 -60.069)" fill="#231f20"/>
  <path id="Path_519" data-name="Path 519" d="M85.419,392.769a4.175,4.175,0,1,1-4.148-4.169A4.175,4.175,0,0,1,85.419,392.769Z" transform="translate(-36.97 -287.871)" fill="url(#radial-gradient)"/>
  <path id="Path_520" data-name="Path 520" d="M190.209,323.829a4.175,4.175,0,1,1-4.169-4.169A4.175,4.175,0,0,1,190.209,323.829Z" transform="translate(-86.243 -255.455)" fill="url(#radial-gradient-2)"/>
  <path id="Path_521" data-name="Path 521" d="M145.078,441.256a4.074,4.074,0,1,1-4.127-4.116A4.122,4.122,0,0,1,145.078,441.256Z" transform="translate(-65.117 -310.695)" fill="url(#radial-gradient-3)"/>
  <path id="Path_522" data-name="Path 522" d="M209.759,401.529a4.169,4.169,0,1,1-4.169-4.169A4.169,4.169,0,0,1,209.759,401.529Z" transform="translate(-95.44 -291.99)" fill="url(#radial-gradient-4)"/>
  <path id="Path_523" data-name="Path 523" d="M104.59,323.145a4.175,4.175,0,1,1-4.169-4.175A4.175,4.175,0,0,1,104.59,323.145Z" transform="translate(-45.984 -255.13)" fill="url(#radial-gradient-5)"/>
  <g id="Group_275" data-name="Group 275" transform="translate(56.264 71.723)">
    <g id="Group_259" data-name="Group 259" transform="translate(9.144 9.144)">
      <g id="Group_258" data-name="Group 258" clip-path="url(#clip-path-2)">
        <g id="Group_257" data-name="Group 257" transform="translate(-0.016)">
          <path id="Path_524" data-name="Path 524" d="M137.486,351.11h0a11.518,11.518,0,0,0-10.246,6.246h0a11.518,11.518,0,0,1,10.246-6.246" transform="translate(-125.953 -351.11)" fill="#956920"/>
          <path id="Path_525" data-name="Path 525" d="M126.539,362.9h0a11.821,11.821,0,0,0-.789,1.95h0a11.821,11.821,0,0,1,.789-1.95" transform="translate(-125.252 -356.654)" fill="#996c22"/>
          <path id="Path_526" data-name="Path 526" d="M125.411,366.58h0a11.481,11.481,0,0,0-.381,1.775h0a11.481,11.481,0,0,1,.381-1.775" transform="translate(-124.913 -358.384)" fill="#9d6f23"/>
          <path id="Path_527" data-name="Path 527" d="M124.911,369.93h0a11.494,11.494,0,0,0-.1,1.547h0a11.437,11.437,0,0,1,.1-1.547" transform="translate(-124.81 -359.959)" fill="#a17225"/>
        </g>
      </g>
    </g>
    <g id="Group_262" data-name="Group 262" transform="translate(20.662 9.144)">
      <g id="Group_261" data-name="Group 261" clip-path="url(#clip-path-3)">
        <g id="Group_260" data-name="Group 260">
          <path id="Path_529" data-name="Path 529" d="M158.1,362.628h0A11.518,11.518,0,0,0,146.58,351.11h0A11.518,11.518,0,0,1,158.1,362.628" transform="translate(-146.58 -351.11)" fill="#956920"/>
        </g>
      </g>
    </g>
    <g id="Group_265" data-name="Group 265" transform="translate(0 20.662)">
      <g id="Group_264" data-name="Group 264" clip-path="url(#clip-path-4)">
        <g id="Group_263" data-name="Group 263">
          <path id="Path_531" data-name="Path 531" d="M128.242,393.512h0A20.662,20.662,0,0,1,107.58,372.85h0a20.662,20.662,0,0,0,20.662,20.662" transform="translate(-107.58 -372.85)" fill="#956920"/>
        </g>
      </g>
    </g>
    <g id="Group_268" data-name="Group 268" transform="translate(20.662 20.662)">
      <g id="Group_267" data-name="Group 267" clip-path="url(#clip-path-5)">
        <g id="Group_266" data-name="Group 266" transform="translate(0)">
          <path id="Path_533" data-name="Path 533" d="M185.415,372.85h0a20.8,20.8,0,0,1-.185,2.77h0a20.8,20.8,0,0,0,.185-2.771" transform="translate(-164.754 -372.85)" fill="#a17225"/>
          <path id="Path_534" data-name="Path 534" d="M184.619,378.08h0a21.192,21.192,0,0,1-.689,3.179h0a21.192,21.192,0,0,0,.689-3.179" transform="translate(-164.142 -375.309)" fill="#9d6f23"/>
          <path id="Path_535" data-name="Path 535" d="M182.674,384.1h0a20.726,20.726,0,0,1-1.415,3.5h0a20.5,20.5,0,0,0,1.415-3.491" transform="translate(-162.887 -378.14)" fill="#996c22"/>
          <path id="Path_536" data-name="Path 536" d="M164.953,390.685h0a20.662,20.662,0,0,1-18.373,11.205h0a20.662,20.662,0,0,0,18.373-11.21" transform="translate(-146.58 -381.234)" fill="#956920"/>
        </g>
      </g>
    </g>
    <g id="Group_271" data-name="Group 271" transform="translate(6.856 6.85)">
      <g id="Group_270" data-name="Group 270" clip-path="url(#clip-path-6)">
        <g id="Group_269" data-name="Group 269" transform="translate(-9.293 -0.011)">
          <path id="Path_538" data-name="Path 538" d="M134.326,374.393v-2.283a11.518,11.518,0,1,0-11.518-11.518,11.518,11.518,0,0,0,11.518,11.518v2.283a13.806,13.806,0,1,1,13.806-13.806,13.806,13.806,0,0,1-13.806,13.806" transform="translate(-111.227 -346.769)" fill="#fec77c"/>
          <path id="Path_539" data-name="Path 539" d="M134.326,372.4c-.032,0-5.616-.366-8.742-4.238a12.323,12.323,0,0,1-2.464-4.577c-.53-1.822,0-3.709-.434-5.563-2.2,1.674-1.06,13.218,8.72,14.733a6.6,6.6,0,0,0,2.919-.111v1.727a13.806,13.806,0,1,1,13.806-13.806,13.806,13.806,0,0,1-13.806,13.806v-1.727l.17-.079c-.042-.058-.117-.217-.17-.175v-.3a11.518,11.518,0,1,0-11.518-11.518,11.518,11.518,0,0,0,11.518,11.518v.3" transform="translate(-111.227 -346.76)" fill="#fec77c"/>
          <path id="Path_540" data-name="Path 540" d="M134.326,372.327c-.132.117-12.371-1.393-11.6-13.139.037-.583.689-1.16.111-1.748a.207.207,0,0,0-.185,0c-1.219.53-2.744,11.163,6.606,14.914a9.536,9.536,0,0,0,5.07.567v1.473a13.806,13.806,0,1,1,13.806-13.806,13.806,13.806,0,0,1-13.806,13.806V372.92l.154-.037c.191-.053.5-.069.625-.228a.207.207,0,0,0,.037-.18,3.061,3.061,0,0,0-.816-.138v-.228a11.518,11.518,0,1,0-11.518-11.518,11.518,11.518,0,0,0,11.518,11.518v.217" transform="translate(-111.227 -346.769)" fill="#fec578"/>
          <path id="Path_541" data-name="Path 541" d="M134.326,372.285c-.132.122-12.217-1.5-11.613-12.593a16.084,16.084,0,0,1,.207-1.944c.085-.62.138-1,.053-1.06-.307-.175-2.448,2.909-.98,8.005a11.79,11.79,0,0,0,12.334,8.44v1.24a13.806,13.806,0,1,1,13.806-13.806,13.806,13.806,0,0,1-13.806,13.806v-1.24l.223-.037c1.176-.281,1.356-.456,1.356-.53,0-.2-1.4-.45-1.589-.281V372.1A11.518,11.518,0,1,0,122.8,360.582,11.518,11.518,0,0,0,134.316,372.1v.185" transform="translate(-111.227 -346.76)" fill="#fdc474"/>
          <path id="Path_542" data-name="Path 542" d="M134.326,372.268c-.7.652-12.016-2-11.613-12.259a13.854,13.854,0,0,1,.217-2.077c.328-1.833.328-1.833.291-1.9a.244.244,0,0,0-.154-.127c-.53-.048-4.381,6.389,1.15,13.181a12.094,12.094,0,0,0,10.108,4.313v.991a13.806,13.806,0,1,1,13.806-13.806,13.806,13.806,0,0,1-13.806,13.806v-1.007l.265-.037c1.807-.36,2.119-.668,2.119-.821a.249.249,0,0,0-.1-.175,14.44,14.44,0,0,0-2.283-.1v-.159a11.518,11.518,0,1,0-11.518-11.518,11.518,11.518,0,0,0,11.518,11.518v.159" transform="translate(-111.227 -346.769)" fill="#fdc26f"/>
          <path id="Path_543" data-name="Path 543" d="M134.326,372.252c-.122.117-11.941-1.4-11.6-12.243a15.528,15.528,0,0,1,.487-3.237c.318-1.192.434-1.679.154-1.759-.758-.212-4.323,5.685-.63,12.217a12.593,12.593,0,0,0,11.592,6.437v.726a13.806,13.806,0,1,1,13.806-13.806,13.806,13.806,0,0,1-13.806,13.806v-.726h.27c3.073-.493,3.052-1.2,3.046-1.208-.037-.471-3.285-.212-3.316-.18v-.143a11.518,11.518,0,1,0-11.518-11.518,11.518,11.518,0,0,0,11.518,11.518v.143" transform="translate(-111.227 -346.769)" fill="#fdbf69"/>
          <path id="Path_544" data-name="Path 544" d="M134.317,372.231c-.7.662-12.053-1.875-11.592-12.222a15.2,15.2,0,0,1,.869-4.4c.275-.853.53-1.589.117-1.69-1.234-.291-5.007,6.951-1.06,13.5a13.075,13.075,0,0,0,11.655,6.527v.45a13.806,13.806,0,1,1,13.806-13.806,13.806,13.806,0,0,1-13.806,13.806v-.45h.18c4-.424,4.281-1.621,4.281-1.632,0-.636-4.418-.111-4.461-.069a11.7,11.7,0,0,0,11.518-11.655A11.518,11.518,0,1,0,134.306,372.1v.122" transform="translate(-111.218 -346.769)" fill="#fdbc62"/>
          <path id="Path_545" data-name="Path 545" d="M134.326,372.229c-.127.122-12.01-1.335-11.581-12.185.058-1.473.058-1.473,1.711-6.506.238-.726.1-1.06.053-1.107-.567-.562-3.9,2.723-3.857,8.63a13.531,13.531,0,0,0,13.674,13.208v.154a13.806,13.806,0,1,1,13.806-13.806,13.806,13.806,0,0,1-13.806,13.806v-.154h.122c4.8-.328,6.585-2.05,5.859-2.5l-5.981.477a11.655,11.655,0,0,0,11.518-11.624,11.518,11.518,0,1,0-11.518,11.518v.106" transform="translate(-111.227 -346.784)" fill="#fcb958"/>
          <path id="Path_546" data-name="Path 546" d="M136.3,372.347c-.117.111-11.6-.816-11.581-11.963,0-1.632,1.7-10.008,6.463-12.185a13.345,13.345,0,0,1,14.585,2.6c5.886,5.785,7.555,21.314-9.181,21.541-.085,0-.223-.064-.286,0a11.655,11.655,0,0,0,11.518-11.613A11.518,11.518,0,1,0,136.3,372.246v.1" transform="translate(-113.202 -346.911)" fill="#fbb040"/>
          <path id="Path_547" data-name="Path 547" d="M136.31,372.57c-.117.111-11.655-1.176-11.571-11.957,0-3.592,2.7-9.981,7.5-12.148,4.148-1.865,9.907-.7,13.4,2.723,7.947,7.767,4.079,21.192-9.059,21.382-.079,0-.212-.058-.27,0a11.655,11.655,0,0,0,11.518-11.6,11.518,11.518,0,1,0-11.518,11.518v.085" transform="translate(-113.211 -347.146)" fill="#f5ac3e"/>
          <path id="Path_548" data-name="Path 548" d="M136.31,372.735c-.71.668-12.058-1.785-11.555-12.185.53-10.792,13.012-17.393,21.462-8.328a12.475,12.475,0,0,1,2.342,13.245c-3.417,7.067-11.523,7.242-11.6,7.242-.2,0-.53-.122-.646,0a11.555,11.555,0,1,1,0-.074v.074" transform="translate(-113.211 -347.321)" fill="#f0a83d"/>
          <path id="Path_549" data-name="Path 549" d="M126.079,372.958c-.117.111-11.655-1.123-11.555-11.942.079-9.976,12.418-17.118,20.614-9.134s2.9,20.837-8.81,21.075c-.074,0-.2-.053-.249,0a11.55,11.55,0,1,1,0-.064v.064" transform="translate(-102.98 -347.554)" fill="#eca63c"/>
          <path id="Path_550" data-name="Path 550" d="M126.088,373.092c-.117.111-11.655-1.007-11.549-11.931.09-9.859,12.344-16.9,20.476-9.006,7.995,7.761,2.649,20.662-8.683,20.927-.074,0-.191-.053-.244,0a11.544,11.544,0,1,1,0-.053v.053" transform="translate(-102.989 -347.699)" fill="#e8a33b"/>
          <path id="Path_551" data-name="Path 551" d="M126.1,373.323c-.026.026-4.408.461-8.583-3.852a11.523,11.523,0,0,1-2.962-8.069c.074-9.536,12.45-16.53,20.344-8.863,8.477,8.206,1.8,20.476-8.424,20.784-.111,0-.3-.074-.376,0a11.535,11.535,0,1,1,0-.042v.042" transform="translate(-102.999 -347.94)" fill="#e4a03a"/>
          <path id="Path_552" data-name="Path 552" d="M126.088,373.416a11.6,11.6,0,0,1-11.539-12.005c.35-10.066,12.9-16.508,20.895-7.947a11.7,11.7,0,0,1,2.119,12.471,12.662,12.662,0,0,1-11.253,7.481c-.069,0-.185-.048-.233,0a11.539,11.539,0,1,1,0-.037v.037" transform="translate(-102.989 -348.039)" fill="#df9d39"/>
          <path id="Path_553" data-name="Path 553" d="M126.093,373.634c-.117.117-11.655-1.06-11.534-11.915.122-9.727,12.975-16.27,20.768-7.947a11.621,11.621,0,0,1,1.78,13.054,12.4,12.4,0,0,1-10.792,6.808c-.074,0-.185-.048-.238,0a11.534,11.534,0,1,1,0-.026v.026" transform="translate(-102.994 -348.267)" fill="#db9b38"/>
          <path id="Path_554" data-name="Path 554" d="M136.339,373.728c-.117.117-11.655-.858-11.534-11.91.127-9.658,12.911-16.132,20.662-7.83a11.655,11.655,0,0,1,1.891,12.715,12.153,12.153,0,0,1-10.8,7.025c-.074,0-.191-.048-.244,0A11.528,11.528,0,1,0,124.8,362.189a11.528,11.528,0,0,0,11.518,11.539h0" transform="translate(-113.24 -348.367)" fill="#d79836"/>
          <path id="Path_555" data-name="Path 555" d="M136.347,373.814c-.117.111-11.655-1.023-11.528-11.91.127-9.6,12.847-16.005,20.556-7.74a11.507,11.507,0,0,1,1.939,12.556,12.042,12.042,0,0,1-10.368,7.078c-.18,0-.472-.111-.6,0a11.528,11.528,0,1,0-11.518-11.539A11.528,11.528,0,0,0,136.347,373.8h0" transform="translate(-113.248 -348.453)" fill="#d39535"/>
          <path id="Path_556" data-name="Path 556" d="M136.347,373.885c-.117.111-11.655-1.017-11.528-11.9.132-9.536,12.8-15.894,20.471-7.666a11.581,11.581,0,0,1,1.9,12.609,11.989,11.989,0,0,1-10.6,6.961c-.064,0-.17-.042-.217,0a11.528,11.528,0,1,0-11.518-11.533,11.528,11.528,0,0,0,11.518,11.533h0" transform="translate(-113.248 -348.529)" fill="#cf9234"/>
          <path id="Path_557" data-name="Path 557" d="M136.352,373.945c-.117.111-11.655-1.012-11.523-11.9.132-9.5,12.752-15.8,20.4-7.6a11.528,11.528,0,0,1,1.844,12.688,11.8,11.8,0,0,1-10.5,6.813c-.064,0-.17-.042-.217,0a11.528,11.528,0,1,0-11.518-11.534,11.528,11.528,0,0,0,11.518,11.534h0" transform="translate(-113.253 -348.589)" fill="#cb8f33"/>
          <path id="Path_558" data-name="Path 558" d="M136.352,373.858c-.117.117-11.655-1.007-11.523-11.9.138-9.716,12.519-15.941,20.333-7.55a11.491,11.491,0,0,1,1.865,12.63,11.777,11.777,0,0,1-10.453,6.818c-.064,0-.17-.042-.217,0A11.523,11.523,0,1,0,124.84,362.33a11.523,11.523,0,0,0,11.518,11.528h0" transform="translate(-113.253 -348.508)" fill="#c78c32"/>
          <path id="Path_559" data-name="Path 559" d="M136.352,374.027c-.117.111-11.655-1-11.523-11.825.117-9.891,12.6-15.12,19.655-8.228a11.618,11.618,0,0,1-7.915,20.047c-.069,0-.17-.042-.217,0a11.523,11.523,0,1,0-11.518-11.528,11.523,11.523,0,0,0,11.518,11.528h0" transform="translate(-113.253 -348.677)" fill="#c28930"/>
          <path id="Path_560" data-name="Path 560" d="M136.356,373.928c-.117.117-11.682-.9-11.518-11.894.143-9.663,12.471-15.83,20.243-7.47a11.655,11.655,0,0,1-8.5,19.364c-.064,0-.164-.042-.212,0a11.523,11.523,0,1,0-11.518-11.521,11.523,11.523,0,0,0,11.518,11.521h0" transform="translate(-113.257 -348.583)" fill="#be872f"/>
          <path id="Path_561" data-name="Path 561" d="M136.356,373.958c-.117.117-11.682-1-11.518-11.894.148-9.648,12.455-15.8,20.212-7.417a11.613,11.613,0,0,1-8.127,19.327c-.17,0-.445-.106-.567,0a11.523,11.523,0,1,0-11.518-11.521,11.523,11.523,0,0,0,11.518,11.521h0" transform="translate(-113.257 -348.613)" fill="#ba842e"/>
          <path id="Path_562" data-name="Path 562" d="M135.041,383.1c-1.107.5-5.934,0-9.033-3.661-4.238-5-2.426-9.87-2.405-9.918.1-.254.191-.366.233-.355a3.937,3.937,0,0,1,.074,1.2,12.1,12.1,0,0,0,2.813,8.206,12.3,12.3,0,0,0,7.7,4.238c.742.122.742.18.742.217s-.079.064-.122.085" transform="translate(-112.487 -357.297)" fill="#fec980"/>
          <path id="Path_563" data-name="Path 563" d="M136.356,373.976c-.117.111-11.682-.991-11.518-11.894.148-9.632,12.44-15.761,20.19-7.417a11.571,11.571,0,0,1,1.918,12.482,11.692,11.692,0,0,1-10.368,6.829c-.064,0-.164-.042-.207,0a11.523,11.523,0,1,0-11.518-11.521,11.523,11.523,0,0,0,11.518,11.521h0" transform="translate(-113.257 -348.631)" fill="#b6812c"/>
          <path id="Path_564" data-name="Path 564" d="M134.5,383.564c-2.029.53-6.188-1-8.318-3.65-4.207-5.24-2.379-9.595-2.331-9.605s.058.026.074.048c.111.18.042.5.048.71a12.45,12.45,0,0,0,2.845,8.048,12.893,12.893,0,0,0,7.417,4.207,3.262,3.262,0,0,1,.371.117.08.08,0,0,1,0,.08c0,.037-.085.032-.122.048" transform="translate(-112.59 -357.832)" fill="#feca83"/>
          <path id="Path_565" data-name="Path 565" d="M136.356,373.986c-.122.111-11.687-.991-11.518-11.894.148-9.621,12.434-15.74,20.169-7.417a11.576,11.576,0,0,1-8.429,19.306c-.064,0-.164-.037-.207,0a11.523,11.523,0,1,0-11.518-11.521,11.523,11.523,0,0,0,11.518,11.521h0" transform="translate(-113.257 -348.641)" fill="#b27e2b"/>
          <path id="Path_566" data-name="Path 566" d="M134.1,384c-.175.122-4.318.281-7.756-3.6a10.579,10.579,0,0,1-2.66-8.116,2.4,2.4,0,0,1,.2-.795s.058-.032.079,0a3.25,3.25,0,0,1,.106.89,12.122,12.122,0,0,0,9.1,11.274c.954.254.964.291.969.313a.064.064,0,0,1-.037.074" transform="translate(-112.676 -358.38)" fill="#fecc87"/>
          <path id="Path_567" data-name="Path 567" d="M136.356,374c-.122.111-11.687-.991-11.518-11.894.154-9.61,12.424-15.719,20.132-7.391A11.565,11.565,0,0,1,136.579,374c-.064,0-.164-.042-.207,0a11.523,11.523,0,1,0-11.518-11.521A11.523,11.523,0,0,0,136.372,374h0" transform="translate(-113.257 -348.659)" fill="#ad7b29"/>
          <path id="Path_568" data-name="Path 568" d="M133.592,384.354c-.715.223-4.715-.636-7.094-3.555-3.645-4.461-2.559-8.212-2.543-8.244a.529.529,0,0,1,.079-.106c.424,1.335.371,2.776.874,4.09a11.968,11.968,0,0,0,4.63,5.865,13.325,13.325,0,0,0,3.343,1.589,3.516,3.516,0,0,1,.816.318.686.686,0,0,1-.106.058" transform="translate(-112.766 -358.84)" fill="#fecd8a"/>
          <path id="Path_569" data-name="Path 569" d="M125.487,366.373c-3.433-11.057,7.7-18.723,16.233-14.114,9.875,5.33,7.089,18.712-2.045,21.3a12.15,12.15,0,0,1-3.327.482,11.5,11.5,0,1,0-10.6-6.961c-.085-.212-.2-.493-.276-.71" transform="translate(-113.249 -348.705)" fill="#a97828"/>
          <path id="Path_570" data-name="Path 570" d="M133.057,384.706c-.032,0-3.592.09-7.014-4.207-1.785-2.236-2.4-5.8-1.928-7.009a2.2,2.2,0,0,1,.185.8,12.185,12.185,0,0,0,7.979,9.96c.784.286.784.286.959.419a.983.983,0,0,1-.18.037" transform="translate(-112.846 -359.329)" fill="#fecf8d"/>
          <path id="Path_571" data-name="Path 571" d="M124.962,364.261c-1.224-11.417,11.126-16.847,18.574-10.781,8.779,7.142,3.5,19.761-6.034,20.545-.344.027-.8.053-1.144.053A11.518,11.518,0,1,0,124.84,362.56a11.808,11.808,0,0,0,.2,2.177,3.733,3.733,0,0,0-.079-.477" transform="translate(-113.259 -348.738)" fill="#a57526"/>
          <path id="Path_572" data-name="Path 572" d="M132.591,385.04c-3.756,0-9.213-6.045-8.36-10.49a1.966,1.966,0,0,1,.2.683,12.513,12.513,0,0,0,2.713,5.912,13.4,13.4,0,0,0,5.489,3.783.619.619,0,0,1,.159.127h-.2" transform="translate(-112.93 -359.827)" fill="#fed090"/>
          <path id="Path_573" data-name="Path 573" d="M124.851,362.048a11.527,11.527,0,1,1,11.507,12.1,11.518,11.518,0,1,0-11.518-11.518v-.578" transform="translate(-113.259 -348.803)" fill="#a17225"/>
          <path id="Path_574" data-name="Path 574" d="M132,385.32c-3.984-.736-7.947-5.828-7.6-9.7.079.053.079.053.228.636a12.493,12.493,0,0,0,2.649,5.372,12.714,12.714,0,0,0,4.461,3.354c.18.079.466.132.588.286a.915.915,0,0,1,.058.1,1.018,1.018,0,0,1-.355-.042" transform="translate(-113.043 -360.33)" fill="#ffd193"/>
          <path id="Path_575" data-name="Path 575" d="M125.037,360.926c1.828-11.073,15.364-12.816,20.784-5.038a11.539,11.539,0,0,1-9.388,18.257A11.518,11.518,0,1,0,125,361.08h0v-.154" transform="translate(-113.334 -348.805)" fill="#9d6f23"/>
          <path id="Path_576" data-name="Path 576" d="M131.9,385.676a9.858,9.858,0,0,1-4.832-3.057c-2.734-3.348-2.506-5.891-2.5-5.907a.069.069,0,0,1,.069,0c.148.09.122.376.17.53a12.774,12.774,0,0,0,2.522,4.906,13.245,13.245,0,0,0,4.074,3.179c.159.085.477.117.53.286,0,0,0,.053-.032.064" transform="translate(-113.129 -360.839)" fill="#ffd295"/>
          <path id="Path_577" data-name="Path 577" d="M125.93,358.784c4.138-10.373,17.525-9.536,21.329-1.023a11.6,11.6,0,0,1-9.229,16.323A11.518,11.518,0,1,0,125.76,359.3c.048-.159.111-.366.17-.53" transform="translate(-113.691 -348.808)" fill="#996c22"/>
          <path id="Path_578" data-name="Path 578" d="M131.467,385.9s-2.215-.36-4.768-3.571c-1.213-1.51-2.024-4.238-1.785-4.625,1.589,4.445,3.062,5.934,6.654,8.154a.165.165,0,0,1-.079.042" transform="translate(-113.274 -361.308)" fill="#ffd398"/>
          <path id="Path_579" data-name="Path 579" d="M127.546,356.819c5.621-9.462,19.035-6.066,21.139,3.015a11.523,11.523,0,0,1-7.883,13.833,11.518,11.518,0,1,0-13.541-16.328h0c.085-.159.2-.366.286-.53" transform="translate(-114.397 -348.809)" fill="#956920"/>
          <path id="Path_580" data-name="Path 580" d="M131.04,386.109c-2.421-.588-6.034-5.123-5.828-7.359,1.552,3.656,2.474,4.98,6.024,7.369h-.17" transform="translate(-113.43 -361.802)" fill="#ffd49b"/>
          <path id="Path_581" data-name="Path 581" d="M130.561,386.254c-2.336-.948-4.879-4.514-5-6.384,1.589,3.348,2.257,4.132,5.266,6.453a.978.978,0,0,1-.265-.069" transform="translate(-113.597 -362.329)" fill="#ffd69d"/>
          <path id="Path_582" data-name="Path 582" d="M130,386.368a9.51,9.51,0,0,1-4.016-5.218,14.269,14.269,0,0,0,4.456,5.436c-.132-.069-.313-.148-.44-.217" transform="translate(-113.795 -362.93)" fill="#ffd7a0"/>
          <path id="Path_583" data-name="Path 583" d="M129.884,386.665a9.324,9.324,0,0,1-3.264-4.085,15.783,15.783,0,0,0,3.412,4.175c-.042,0-.106-.058-.148-.09" transform="translate(-114.096 -363.603)" fill="#ffd8a2"/>
          <path id="Path_584" data-name="Path 584" d="M129.6,386.888a8.333,8.333,0,0,1-1.849-2.278,24.455,24.455,0,0,0,1.913,2.331l-.064-.053" transform="translate(-114.627 -364.557)" fill="#ffd9a5"/>
          <path id="Path_585" data-name="Path 585" d="M140.9,392.864a11.035,11.035,0,0,1-6.405-1.944,11.438,11.438,0,0,0,6.405,1.944h0" transform="translate(-117.796 -367.524)" fill="#a97828"/>
          <path id="Path_586" data-name="Path 586" d="M142.851,393.889a10.8,10.8,0,0,1-4.2-.789,11.412,11.412,0,0,0,4.2.789h0" transform="translate(-119.752 -368.549)" fill="#a57526"/>
          <path id="Path_587" data-name="Path 587" d="M144.473,394.374a10.986,10.986,0,0,1-2.373-.244,11.653,11.653,0,0,0,2.373.244h0" transform="translate(-121.375 -369.034)" fill="#a17225"/>
          <path id="Path_588" data-name="Path 588" d="M146.044,394.59h0" transform="translate(-122.945 -369.25)" fill="#9d6f23"/>
        </g>
      </g>
    </g>
    <path id="Path_590" data-name="Path 590" d="M130.273,338.16A18.378,18.378,0,1,1,111.9,356.535a18.379,18.379,0,0,1,18.373-18.375Zm0,32.18a13.806,13.806,0,1,0-13.806-13.806,13.806,13.806,0,0,0,13.806,13.806" transform="translate(-109.611 -335.877)" fill="#dd9c38"/>
    <g id="Group_274" data-name="Group 274">
      <g id="Group_273" data-name="Group 273" clip-path="url(#clip-path-7)">
        <g id="Group_272" data-name="Group 272" transform="translate(-20.667 -20.654)">
          <path id="Path_591" data-name="Path 591" d="M128.242,336.133V333.85a20.662,20.662,0,1,1-20.662,20.662,20.662,20.662,0,0,1,20.662-20.662v2.283a18.378,18.378,0,1,0,18.373,18.375,18.378,18.378,0,0,0-18.373-18.375" transform="translate(-86.913 -313.196)" fill="#fec77c"/>
          <path id="Path_592" data-name="Path 592" d="M128.242,334.1c-.069.09-.249.064-.355.09l.355.164v1.727a18.378,18.378,0,1,0,18.373,18.375,18.379,18.379,0,0,0-18.373-18.375l0-1.727h.042c3.55.668,10.161,1.913,14.58,7.38,4.016,4.964,4.016,4.964,5.107,16.953,2.808-2.575-.53-23.682-17.7-24.646a10.14,10.14,0,0,0-2.029,0v-.3A20.662,20.662,0,1,1,107.58,354.4a20.662,20.662,0,0,1,20.662-20.662v.3" transform="translate(-86.913 -313.144)" fill="#fec77c"/>
          <path id="Path_593" data-name="Path 593" d="M128.242,334.078c-.408.429-.932.085-1.388.207a2.787,2.787,0,0,0,1.388.376v1.473a18.378,18.378,0,1,0,18.373,18.375,18.379,18.379,0,0,0-18.373-18.375l0-1.473.7.09c18.929,2.866,18.765,18.94,18.7,24.99,3.089-2.257,1.468-23.046-15.984-25.483a17.485,17.485,0,0,0-3.417-.18v-.228a20.662,20.662,0,1,1-20.662,20.662,20.662,20.662,0,0,1,20.662-20.662v.228" transform="translate(-86.913 -313.196)" fill="#fec578"/>
          <path id="Path_594" data-name="Path 594" d="M128.232,334.035c-.768.826-1.817,0-2.649.461.244.164.244.164,2.649.4v1.24a18.378,18.378,0,1,0,18.373,18.375,18.379,18.379,0,0,0-18.373-18.375l0-1.24,1.06.117a20.863,20.863,0,0,1,14.834,8.874,20.37,20.37,0,0,1,3.142,7.783c.567,3.11-.461,6.22-.026,9.33,3.094-1.748,3.205-21.663-13.081-26.188a18.012,18.012,0,0,0-5.939-.773,20.386,20.386,0,0,1,20.662,20.476,20.662,20.662,0,1,1-20.662-20.662v.185" transform="translate(-86.903 -313.196)" fill="#fdc474"/>
          <path id="Path_595" data-name="Path 595" d="M128.256,334.018c-1.118,1.166-2.739-.53-3.841.683-.042.048-.1.143-.074.2a8.812,8.812,0,0,0,1.976.159c.985,0,1.3.048,1.939.09v.991a18.378,18.378,0,1,0,18.373,18.375,18.378,18.378,0,0,0-18.373-18.375l0-.991,1.356.132c7.889,1.107,20.4,7.756,17.234,25.621a4.767,4.767,0,0,0-.127,1.287.217.217,0,0,0,.212,0c2.384-1.3,4.805-22.251-12.715-27.374a19.682,19.682,0,0,0-5.944-.789,20.424,20.424,0,0,1,20.662,20.5,20.662,20.662,0,1,1-20.662-20.662v.159" transform="translate(-86.927 -313.205)" fill="#fdc26f"/>
          <path id="Path_596" data-name="Path 596" d="M110.04,315.791c-.291.313-.985.058-1.409.085-1.192.069-4.291.789-3.958,1.287a5.433,5.433,0,0,0,1.849.069,32.07,32.07,0,0,1,3.518,0v.726a18.378,18.378,0,1,0,18.373,18.375,18.379,18.379,0,0,0-18.373-18.375l0-.726,1.457.117c10.8,1.415,20.286,11.057,16.582,26.135-.291,1.192-.45,1.865-.223,1.918.768.185,5.674-10.066,0-19.47a20.341,20.341,0,0,0-17.8-10.119,20.593,20.593,0,1,1,0-.138v.138" transform="translate(-68.711 -294.999)" fill="#fdbf69"/>
          <path id="Path_597" data-name="Path 597" d="M110.007,315.739c-.064.069-.217,0-.307,0-3.608.085-6.638,1.42-6.75,1.939a.276.276,0,0,0,.053.223c.148.148.911.048,2.066-.111a27.6,27.6,0,0,1,4.938-.344v.45a18.378,18.378,0,1,0,18.373,18.375A18.378,18.378,0,0,0,110.007,317.9l0-.45,1.494.1c11.73,1.383,20.826,12.625,15.677,27.157a5.613,5.613,0,0,0-.53,2.034.3.3,0,0,0,.217.09c2-.1,8.614-15.088-2.612-25.472-6.818-6.294-14.209-5.658-14.246-5.616a20.6,20.6,0,1,1,0-.122v.122" transform="translate(-68.678 -294.964)" fill="#fdbc62"/>
          <path id="Path_598" data-name="Path 598" d="M110.017,315.726c-.26.27-.874.042-1.245.058-4.456.2-8.7,2.787-7.947,3.571.1.111.175.191,2.119-.434a21.081,21.081,0,0,1,7.094-1.171,18.6,18.6,0,0,0-18.373,18.543,18.373,18.373,0,1,0,18.373-18.373l1.515-.085c12.874,1.25,21.96,15.576,13.976,29.086-.641,1.086-.9,1.632-.593,1.8,1.319.736,7.719-7.364,5.107-17.425-4.074-15.687-19.878-15.682-20-15.555a20.609,20.609,0,1,1,0-.106v.106" transform="translate(-68.688 -294.966)" fill="#fcb958"/>
          <path id="Path_599" data-name="Path 599" d="M109.988,315.662c-.318.334-1.06.053-1.547.079a14.765,14.765,0,0,0-10.066,4.768c-6.887,7.873-6.887,13.149-6.887,16.307,0,8.519,7.592,17.976,18.484,17.918,18.861-.1,27.549-19.963,14.485-33.207a20.191,20.191,0,0,0-14.469-5.865,20.611,20.611,0,1,1,0-.1v.1" transform="translate(-68.659 -294.929)" fill="#fbb040"/>
          <path id="Path_600" data-name="Path 600" d="M109.955,315.662c-.323.339-1.1.053-1.589.074a16.682,16.682,0,0,0-11.173,5.377,22.715,22.715,0,0,0-5.987,15.719,19.1,19.1,0,0,0,19.83,18.209c19.878-.53,25.536-22.251,13.139-33.732-6.855-6.358-14.209-5.69-14.246-5.648a20.619,20.619,0,1,1,0-.085v.085" transform="translate(-68.626 -294.928)" fill="#f5ac3e"/>
          <path id="Path_601" data-name="Path 601" d="M109.974,315.662c-.238.244-.8.026-1.144.037a18.2,18.2,0,0,0-12.005,5.494A21.661,21.661,0,0,0,91,335.932c.45,13.012,10.6,19.6,20.349,19.39,19.5-.419,25.144-22.654,12.885-34-6.845-6.358-14.214-5.7-14.251-5.658a20.625,20.625,0,1,1,0-.074v.074" transform="translate(-68.645 -294.928)" fill="#f0a83d"/>
          <path id="Path_602" data-name="Path 602" d="M110,315.662c-.334.344-1.123.053-1.589.074a18.712,18.712,0,0,0-12.265,5.992,21.049,21.049,0,0,0-5.3,15.11c.344,9.388,8.159,18.967,20.662,18.749,19.168-.339,24.9-23.051,12.784-34.262-6.861-6.357-14.214-5.706-14.251-5.663a20.63,20.63,0,1,1,0-.064v.064" transform="translate(-68.669 -294.928)" fill="#eca63c"/>
          <path id="Path_603" data-name="Path 603" d="M109.913,315.615c-.334.35-1.134.053-1.616.074A19.163,19.163,0,0,0,95.953,321.6a20.741,20.741,0,0,0-5.42,15.125,19.994,19.994,0,0,0,20.858,19.019c19.226-.366,24.943-23.221,12.784-34.479-6.861-6.357-14.214-5.716-14.251-5.674a20.662,20.662,0,1,1,0-.053v.053" transform="translate(-68.584 -294.881)" fill="#e8a33b"/>
          <path id="Path_604" data-name="Path 604" d="M109.9,315.568c-.143.143-.472,0-.673,0a19.6,19.6,0,0,0-13.351,5.907,20.545,20.545,0,0,0-5.563,15.263c.223,9.34,8.53,19.274,20.545,19.178,18.013-.143,26.389-21.393,13.536-34.436a20.455,20.455,0,0,0-14.5-5.918,20.662,20.662,0,1,1,0-.042v.042" transform="translate(-68.575 -294.872)" fill="#e4a03a"/>
          <path id="Path_605" data-name="Path 605" d="M109.9,315.556c-.339.355-1.144.048-1.637.069a19.8,19.8,0,0,0-12.445,5.8,20.47,20.47,0,0,0,15.565,34.638c17.875-.445,25.992-22.585,12.768-34.834-6.887-6.358-14.22-5.727-14.257-5.685a20.662,20.662,0,1,1,0-.037v.037" transform="translate(-68.57 -294.865)" fill="#df9d39"/>
          <path id="Path_606" data-name="Path 606" d="M128.242,333.875c-.339.355-1.139.053-1.632.074a19.618,19.618,0,0,0-13.07,6.389,20.344,20.344,0,0,0-5.208,14.744,20.62,20.62,0,0,0,21.414,19.459c17.865-.53,25.96-22.728,12.752-34.966-6.887-6.357-14.22-5.732-14.257-5.7a20.62,20.62,0,1,1-14.623,6.039,20.662,20.662,0,0,1,14.623-6.039h0" transform="translate(-86.913 -313.195)" fill="#db9b38"/>
          <path id="Path_607" data-name="Path 607" d="M128.218,333.875c-.339.355-1.139.053-1.621.074a20.048,20.048,0,0,0-18.453,21.144,20.636,20.636,0,0,0,20.974,19.6c18.267-.376,26.744-22.686,13.335-35.1-6.887-6.358-14.225-5.738-14.262-5.7a20.63,20.63,0,1,1-14.619,6.042,20.662,20.662,0,0,1,14.619-6.042h0" transform="translate(-86.889 -313.2)" fill="#d79836"/>
          <path id="Path_608" data-name="Path 608" d="M128.251,333.859c-.222.228-.752,0-1.06.026a20.244,20.244,0,0,0-19.115,20.365,20.617,20.617,0,0,0,20.715,20.508c19.941-.3,26.182-23.639,13.732-35.2-6.845-6.357-14.225-5.743-14.262-5.7a20.63,20.63,0,1,1-14.619,6.042,20.662,20.662,0,0,1,14.619-6.042h0" transform="translate(-86.922 -313.184)" fill="#d39535"/>
          <path id="Path_609" data-name="Path 609" d="M128.223,333.851c-.344.36-1.166.048-1.664.069A20.288,20.288,0,0,0,107.953,354.8a20.582,20.582,0,0,0,20.736,20.042c19.978-.35,26.256-23.74,13.775-35.284-6.887-6.358-14.225-5.743-14.262-5.706a20.662,20.662,0,1,1-20.662,20.662A20.662,20.662,0,0,1,128.2,333.851h0" transform="translate(-86.894 -313.182)" fill="#cf9234"/>
          <path id="Path_610" data-name="Path 610" d="M128.237,333.849c-.344.36-1.166.048-1.669.069-8.005.334-18.951,7.8-18.675,20.959a20.743,20.743,0,0,0,21.192,20.016c18.2-.53,26.717-23.014,13.409-35.342-6.887-6.358-14.225-5.743-14.262-5.7a20.662,20.662,0,1,1-20.662,20.662,20.662,20.662,0,0,1,20.662-20.662h0" transform="translate(-86.908 -313.18)" fill="#cb8f33"/>
          <path id="Path_611" data-name="Path 611" d="M128.242,333.87c-.35.36-1.166.048-1.669.069-7.862.328-18.749,7.6-18.749,20.392,0,11.221,9.351,20.662,20.418,20.662,18.765-.053,27.708-21.721,14.506-35.162a20.392,20.392,0,0,0-14.506-5.944,20.662,20.662,0,1,1-20.662,20.662,20.662,20.662,0,0,1,20.662-20.662h0" transform="translate(-86.913 -313.205)" fill="#c78c32"/>
          <path id="Path_612" data-name="Path 612" d="M128.242,333.851c-.35.36-1.171.048-1.669.069-6.13.254-18.781,5.775-18.781,21.192,0,9.457,8.4,19.941,20.45,19.867,18.718-.117,27.666-21.833,14.506-35.2a20.366,20.366,0,0,0-14.506-5.944,20.662,20.662,0,1,1-20.662,20.662,20.662,20.662,0,0,1,20.662-20.662h0" transform="translate(-86.913 -313.186)" fill="#c28930"/>
          <path id="Path_613" data-name="Path 613" d="M128.242,333.86c-.35.366-1.171.048-1.674.069-6.135.254-18.818,5.775-18.818,21.229,0,9.5,8.418,20,20.492,19.888a20.593,20.593,0,1,0,0-41.186,20.662,20.662,0,1,1-20.662,20.662,20.662,20.662,0,0,1,20.662-20.662h0" transform="translate(-86.913 -313.2)" fill="#be872f"/>
          <path id="Path_614" data-name="Path 614" d="M128.228,333.855c-.212.217-.71,0-1.012.027a20.53,20.53,0,0,0-19.533,21.075c0,10.813,9.595,20.206,20.529,20.106a20.606,20.606,0,1,0,0-41.212,20.662,20.662,0,1,1-20.662,20.662,20.662,20.662,0,0,1,20.662-20.662h0" transform="translate(-86.899 -313.196)" fill="#ba842e"/>
          <path id="Path_615" data-name="Path 615" d="M167.17,357.878c0-.117,0-.318-.032-1.282a23.57,23.57,0,0,0-1.335-8.021,20.355,20.355,0,0,0-3.661-6.358,20.88,20.88,0,0,0-5.828-4.816,24.12,24.12,0,0,0-7.094-2.559,4.169,4.169,0,0,1-1.261-.339c1.483-.593,9.806.694,14.834,6.744,7.057,8.519,4.593,16.588,4.562,16.662a1.475,1.475,0,0,1-.106.169,1.377,1.377,0,0,0-.058-.2" transform="translate(-105.9 -313.442)" fill="#fec980"/>
          <path id="Path_616" data-name="Path 616" d="M128.242,333.858c-.35.366-1.176.048-1.685.069-6.151.249-18.861,5.775-18.861,21.239,0,9.536,8.44,20.084,20.545,19.925a20.618,20.618,0,1,0,0-41.236,20.662,20.662,0,1,1-20.662,20.663,20.662,20.662,0,0,1,20.662-20.663h0" transform="translate(-86.913 -313.198)" fill="#b6812c"/>
          <path id="Path_617" data-name="Path 617" d="M168.273,356.812c-.694-6.257-1.06-9.7-5.1-14.575a21.261,21.261,0,0,0-5.552-4.667c-2.389-1.377-5.1-1.923-7.634-2.909,1.362-.493,9.049.975,13.738,6.681,6.315,7.687,4.869,14.935,4.683,15.735a1.4,1.4,0,0,1-.138-.265" transform="translate(-106.854 -313.536)" fill="#feca83"/>
          <path id="Path_618" data-name="Path 618" d="M128.242,333.86c-.35.366-1.181.048-1.685.069a20.667,20.667,0,1,0,1.685-.069,20.662,20.662,0,1,1-20.662,20.662,20.662,20.662,0,0,1,20.662-20.662h0" transform="translate(-86.913 -313.2)" fill="#b27e2b"/>
          <path id="Path_619" data-name="Path 619" d="M169.333,356.177a11.052,11.052,0,0,1-.143-1.346,22.1,22.1,0,0,0-5.033-12.572c-3.56-4.371-7.38-5.711-12.217-7.417,6.156-1.277,19.862,10.066,17.483,21.372,0-.026-.064-.026-.074-.053" transform="translate(-107.771 -313.616)" fill="#fecc87"/>
          <path id="Path_620" data-name="Path 620" d="M128.242,333.85c-.35.366-1.181.053-1.685.069-6.167.254-18.9,5.775-18.9,21.25,0,9.536,8.477,20.095,20.582,19.947a20.633,20.633,0,1,0,0-41.265,20.662,20.662,0,1,1-20.662,20.662,20.662,20.662,0,0,1,20.662-20.662h0" transform="translate(-86.913 -313.196)" fill="#ad7b29"/>
          <path id="Path_621" data-name="Path 621" d="M170.16,355.261c-.63-2.246-.662-4.63-1.547-6.813a21.282,21.282,0,0,0-3.8-6.357c-3.523-4.3-8.546-6.05-10.956-6.887a.808.808,0,0,1-.233-.143c8.477,0,18.267,11.984,16.614,20.371,0-.058-.058-.127-.074-.18" transform="translate(-108.561 -313.765)" fill="#fecd8a"/>
          <path id="Path_622" data-name="Path 622" d="M128.242,333.85c-.35.366-1.181.048-1.69.069-6.167.254-18.9,5.775-18.9,21.25,0,9.5,8.477,20.037,20.593,19.957,13.589-.085,25.022-13.383,18.982-28.778a20.662,20.662,0,1,1-18.982-12.5h0" transform="translate(-86.913 -313.196)" fill="#a97828"/>
          <path id="Path_623" data-name="Path 623" d="M170.957,354.369c-1.271-5.605-1.8-7.947-5.06-11.883a22.811,22.811,0,0,0-4.344-3.931c-1.934-1.293-4.169-1.987-6.193-3.1,7.364-.074,17.186,11.968,15.687,19.226-.026-.09-.069-.217-.09-.307" transform="translate(-109.379 -313.948)" fill="#fecf8d"/>
          <path id="Path_624" data-name="Path 624" d="M128.242,333.85c-.35.366-1.181.048-1.69.069-6.172.249-18.914,5.775-18.914,21.255,0,9.573,8.477,20.132,20.6,19.963,13.245-.18,22.516-11.412,20.291-24.529a20.662,20.662,0,1,1-20.291-16.757h0" transform="translate(-86.913 -313.196)" fill="#a57526"/>
          <path id="Path_625" data-name="Path 625" d="M171.692,353.466c-2.691-11.459-7.947-14.156-14.612-17.578,1.362-.1,6.8,2.215,9.96,6.082,5.3,6.511,4.768,11.9,4.768,11.947-.037-.132-.085-.313-.117-.45" transform="translate(-110.188 -314.152)" fill="#fed090"/>
          <path id="Path_626" data-name="Path 626" d="M128.242,333.85c-.35.366-1.181.048-1.69.069-6.177.249-18.924,5.775-18.924,21.255,0,9.584,8.477,20.132,20.614,19.968,10.119-.143,20.466-7.417,20.662-21.08v.45a20.662,20.662,0,1,1-20.662-20.662h0" transform="translate(-86.913 -313.196)" fill="#a17225"/>
          <path id="Path_627" data-name="Path 627" d="M172.413,352.719c-2.485-9.165-6.686-12.8-13.563-16.291.657-.212,5.891,2.008,9.006,5.8,4.768,5.828,4.742,10.818,4.731,10.855a.429.429,0,0,1-.053.111c-.042-.138-.1-.328-.132-.472" transform="translate(-111.02 -314.402)" fill="#ffd193"/>
          <path id="Path_628" data-name="Path 628" d="M128.243,333.85c-.35.366-1.187.048-1.69.069-6.177.249-18.935,5.775-18.935,21.261,0,9.584,8.477,20.132,20.625,19.973a20.789,20.789,0,0,0,20.476-17.87,20.662,20.662,0,1,1-20.476-23.433h0" transform="translate(-86.914 -313.196)" fill="#9d6f23"/>
          <path id="Path_629" data-name="Path 629" d="M173.224,352.5c-.2-.138-.164-.53-.233-.779a22.654,22.654,0,0,0-4.466-8.593,24.861,24.861,0,0,0-7.9-6.04c1.3.09,5.605,2.464,8.074,5.457,4.477,5.43,4.609,9.881,4.6,9.907s-.048.058-.069.048" transform="translate(-111.853 -314.72)" fill="#ffd295"/>
          <path id="Path_630" data-name="Path 630" d="M124.245,334.37c-19.512,4.238-21.472,28.582-7.195,37.573C128.9,379.4,143.683,374,148.07,360.6a20.662,20.662,0,1,1-22.013-26.49l-1.642.244-.17.032" transform="translate(-86.932 -313.318)" fill="#996c22"/>
          <path id="Path_631" data-name="Path 631" d="M173.8,351.727a2.6,2.6,0,0,1-.117-.36,23.359,23.359,0,0,0-4.328-8.01A22.531,22.531,0,0,0,163.3,338.3a5.179,5.179,0,0,1-1-.646,19.6,19.6,0,0,1,11.6,14.188c-.032-.037-.074-.074-.1-.111" transform="translate(-112.643 -314.983)" fill="#ffd398"/>
          <path id="Path_632" data-name="Path 632" d="M122.163,335.5c-19.343,6.67-18.914,30.352-3.608,38.087,10.453,5.3,22.2,1.589,27.925-8.805a20.662,20.662,0,1,1-24.291-29.287h-.026" transform="translate(-86.799 -313.967)" fill="#956920"/>
          <path id="Path_633" data-name="Path 633" d="M174.31,350.974c-2.49-5.3-2.49-5.3-4.111-7.274a24.371,24.371,0,0,0-5.748-4.906,3.544,3.544,0,0,1-.45-.334,19.241,19.241,0,0,1,10.453,12.752c-.042-.069-.106-.164-.143-.238" transform="translate(-113.442 -315.364)" fill="#ffd49b"/>
          <path id="Path_634" data-name="Path 634" d="M174.816,350.337c-3.179-6.2-3.608-6.554-9.006-10.887a19.2,19.2,0,0,1,9.171,11.226l-.18-.339" transform="translate(-114.293 -315.829)" fill="#ffd69d"/>
          <path id="Path_635" data-name="Path 635" d="M175.109,349.393a24.078,24.078,0,0,0-7.369-8.763,18.775,18.775,0,0,1,7.719,9.4c-.1-.191-.244-.44-.35-.636" transform="translate(-115.201 -316.384)" fill="#ffd7a0"/>
          <path id="Path_636" data-name="Path 636" d="M175.3,348.394a24.767,24.767,0,0,0-5.3-6.124,18.267,18.267,0,0,1,5.923,7.242c-.2-.334-.461-.784-.668-1.118" transform="translate(-116.263 -317.155)" fill="#ffd8a2"/>
          <path id="Path_637" data-name="Path 637" d="M175.564,347.767A26.222,26.222,0,0,0,173,344.79a16.068,16.068,0,0,1,3.322,4.042c-.228-.318-.53-.747-.758-1.06" transform="translate(-117.674 -318.34)" fill="#ffd9a5"/>
          <path id="Path_638" data-name="Path 638" d="M157.827,337.182a20.615,20.615,0,0,0-11.247-3.332,20.588,20.588,0,0,1,11.486,3.486c-.069-.048-.164-.111-.238-.154" transform="translate(-105.251 -313.196)" fill="#a97828"/>
          <path id="Path_639" data-name="Path 639" d="M152.545,334.724a21.787,21.787,0,0,0-5.965-.874,20.663,20.663,0,0,1,7.528,1.415l-1.526-.53h-.037" transform="translate(-105.251 -313.196)" fill="#a57526"/>
          <path id="Path_640" data-name="Path 640" d="M150.622,334.247a19.646,19.646,0,0,0-4.042-.4,20.787,20.787,0,0,1,4.238.44l-.207-.042" transform="translate(-105.251 -313.196)" fill="#a17225"/>
          <path id="Path_641" data-name="Path 641" d="M146.58,333.85c.36,0,.726,0,1.06.032l-1.06-.032" transform="translate(-105.251 -313.196)" fill="#9d6f23"/>
        </g>
      </g>
    </g>
  </g>
  <path id="Path_643" data-name="Path 643" d="M144.313,287.728c-2.723-.064-3.12,2.32-6.474,2.363s-6.093-2.119-6.13-4.848,2.649-4.577,6-5.012C144.2,279.389,182.575,288.629,144.313,287.728Z" transform="translate(-62.662 -236.89)" fill="#ffdeb1" opacity="0.61"/>
  <path id="Path_644" data-name="Path 644" d="M146.43,399.489a4.175,4.175,0,1,1-4.169-4.169A4.175,4.175,0,0,1,146.43,399.489Z" transform="translate(-65.657 -291.031)" fill="url(#radial-gradient-6)"/>
  <path id="Path_645" data-name="Path 645" d="M163.6,394.6a4.169,4.169,0,1,1-4.169-4.169A4.17,4.17,0,0,1,163.6,394.6Z" transform="translate(-73.736 -288.731)" fill="url(#radial-gradient-7)"/>
  <path id="Path_646" data-name="Path 646" d="M130.129,394.3a4.169,4.169,0,1,1-4.169-4.169A4.169,4.169,0,0,1,130.129,394.3Z" transform="translate(-57.998 -288.59)" fill="url(#radial-gradient-8)"/>
  <path id="Path_647" data-name="Path 647" d="M119.59,380.879a4.175,4.175,0,1,1-4.169-4.169A4.175,4.175,0,0,1,119.59,380.879Z" transform="translate(-53.037 -282.28)" fill="url(#radial-gradient-9)"/>
  <path id="Path_648" data-name="Path 648" d="M174.449,381.159A4.175,4.175,0,1,1,170.285,377,4.175,4.175,0,0,1,174.449,381.159Z" transform="translate(-78.833 -282.416)" fill="url(#radial-gradient-10)"/>
  <path id="Path_649" data-name="Path 649" d="M247.919,416.194h-.7v-.254h1.706v.254h-.7v2.045h-.3Z" transform="translate(-116.976 -300.726)" fill="#231f20"/>
  <path id="Path_650" data-name="Path 650" d="M252.817,417.227c0-.318-.037-.7-.037-.991h0q-.111.4-.286.874l-.408,1.113h-.223l-.376-1.091c-.106-.323-.2-.625-.265-.9h0a8.642,8.642,0,0,1-.042,1.017l-.064.985h-.286l.164-2.3h.376l.392,1.112c.1.281.175.53.233.773h0a7.816,7.816,0,0,1,.244-.773l.408-1.112h.392l.143,2.3H252.9Z" transform="translate(-118.673 -300.726)" fill="#231f20"/>
  <path id="Path_651" data-name="Path 651" d="M151.34,118.5l-9.769-9.769V91.43H10.479v16.789L0,118.7l10.479,10.479v18.331H141.571V128.277Z" transform="translate(0 -42.991)" fill="#b3b3b3"/>
  <rect id="Rectangle_176" data-name="Rectangle 176" width="13.414" height="13.414" transform="translate(3.84 75.709) rotate(-45)" fill="#be1e2d"/>
  <path id="Path_652" data-name="Path 652" d="M250.815,124.63l9.483,9.489-9.483,9.483-10.935-9.483Z" transform="translate(-112.794 -58.602)" fill="#be1e2d"/>
  <rect id="Rectangle_177" data-name="Rectangle 177" width="124.893" height="51.167" transform="translate(13.324 51.024)" fill="#262262"/>
  <rect id="Rectangle_178" data-name="Rectangle 178" width="4.842" height="4.842" transform="translate(9.893 75.711) rotate(-45)" fill="#fff"/>
  <rect id="Rectangle_179" data-name="Rectangle 179" width="4.848" height="4.848" transform="translate(134.69 75.7) rotate(-45)" fill="#fff"/>
  <path id="Path_653" data-name="Path 653" d="M144.5,393.524l6.156-5-15.443-4.286-.6,3.232q-3.179-.811-6.622-1.489a179.206,179.206,0,0,0-34.2-3.136,168.658,168.658,0,0,0-41.144,4.71l-.811-3.417L37,388.183l6.156,5-2.31,8.662,6.267-1.589,2.119,7.767,2.564-.837a97.287,97.287,0,0,1,11.38-2.919,160.792,160.792,0,0,1,30.59-2.8h.159c16.042,0,30.675,2.167,41.011,5.425l2.453.773.758-2.464,1.478-4.848,7.184,1.849Z" transform="translate(-18.129 -285.165)" fill="#b3b3b3"/>
  <path id="Path_654" data-name="Path 654" d="M145.3,406.734c-10.7-3.364-25.584-5.557-41.917-5.542h0a163.046,163.046,0,0,0-31.072,2.829h0a100.215,100.215,0,0,0-11.687,2.993L57.11,393.971c12.508-3.973,28.609-6.262,46.3-6.273h0a176.338,176.338,0,0,1,33.705,3.083h0a119.065,119.065,0,0,1,12.122,3.046Z" transform="translate(-27.585 -287.446)" fill="#be1e2d"/>
  <path id="Path_655" data-name="Path 655" d="M73.1,401.869l-4.074.885.869,4.005,4.074-.885-.3-1.362H75.26l.164.747a1.589,1.589,0,0,1-.085,1.266,1.965,1.965,0,0,1-1.208.556l-3.867.842a2,2,0,0,1-1.335-.032,1.589,1.589,0,0,1-.6-1.112l-.721-3.332a1.632,1.632,0,0,1,.079-1.261,1.96,1.96,0,0,1,1.2-.583l3.873-.842a2,2,0,0,1,1.335.032,1.627,1.627,0,0,1,.562,1.107l.132.6-1.457.562Z" transform="translate(-32.479 -293.543)" fill="#fff"/>
  <path id="Path_656" data-name="Path 656" d="M87.78,404.9l2.813-6.93,1.473-.212,4.678,5.875-1.722.238-.985-1.287-4.164.6-.567,1.51Zm2.58-2.972,2.877-.408-1.785-2.405Z" transform="translate(-42.006 -292.178)" fill="#fff"/>
  <path id="Path_657" data-name="Path 657" d="M109.467,402.029l-.477-6.453,1.245-.09,3.4,3.671,2.766-4.127,1.229-.09.477,6.453-1.425.106-.291-3.989v-.694a4.8,4.8,0,0,1-.334.7l-2.252,3.412H113.5l-2.728-3.057a2.89,2.89,0,0,1-.445-.63,6.419,6.419,0,0,1,.09.683l.291,3.989Z" transform="translate(-51.979 -290.852)" fill="#fff"/>
  <path id="Path_658" data-name="Path 658" d="M133.485,401.068,133.4,394.6l5.679-.079c1,0,1.5.4,1.51,1.234V397.2q0,1.256-1.478,1.272l-4.164.058.037,2.522Zm4.916-5.436-3.47.048v1.743l3.475-.048a1.166,1.166,0,0,0,.5-.085.466.466,0,0,0,.185-.445v-.7a.471.471,0,0,0-.2-.445A1.249,1.249,0,0,0,138.4,395.633Z" transform="translate(-63.457 -290.654)" fill="#fff"/>
  <path id="Path_659" data-name="Path 659" d="M150.39,401.105l4.032-6.315,1.494.058,3.544,6.612-1.732-.069-.742-1.446-4.2-.164-.826,1.383Zm3.068-2.464,2.909.111-1.324-2.686Z" transform="translate(-71.446 -290.781)" fill="#fff"/>
  <path id="Path_660" data-name="Path 660" d="M172.69,402.128l.53-6.448,1.536.127-.53,6.448Z" transform="translate(-81.931 -291.2)" fill="#fff"/>
  <path id="Path_661" data-name="Path 661" d="M190.071,398.749l-4.768-.636-.53,4.058,4.768.641.191-1.43-2.5-.334.148-1.091,3.989.53-.3,2.209a1.626,1.626,0,0,1-.5,1.16,1.987,1.987,0,0,1-1.33.143l-4.551-.609a1.96,1.96,0,0,1-1.245-.482,1.621,1.621,0,0,1-.18-1.25l.45-3.38a1.632,1.632,0,0,1,.53-1.16,1.992,1.992,0,0,1,1.33-.138l4.535.6a2.045,2.045,0,0,1,1.234.477,1.478,1.478,0,0,1,.207,1.2v.148l-1.526.064Z" transform="translate(-86.878 -291.784)" fill="#fff"/>
  <path id="Path_662" data-name="Path 662" d="M204.91,406.315,206.266,400l1.033.222,3.762,4.7a7.834,7.834,0,0,1,.6.842c.079-.593.138-.964.17-1.1l.71-3.322,1.362.291-1.356,6.31-1.033-.222-3.9-4.927a4.15,4.15,0,0,1-.429-.63c-.048.419-.1.758-.154,1.017l-.736,3.422Z" transform="translate(-97.081 -293.231)" fill="#fff"/>
  <path id="Path_663" data-name="Path 663" d="M39.5,307.17c.058-.339.175-.53.334-.53s.281.1.53.615l5.414,11.184,5.393-11.322c.159-.318.26-.477.44-.477s.3.2.355.615l1.812,12.291c.175,1.245.376,1.822.97,2a4.08,4.08,0,0,0,1.229.2c.18,0,.318,0,.318.138s-.238.217-.53.217c-.5,0-3.232-.058-4.026-.117-.456-.042-.577-.1-.577-.217s.079-.159.223-.217.175-.3.1-.853l-1.171-8.747h-.079l-4.323,9.006c-.456.932-.53,1.113-.736,1.113s-.376-.4-.694-.991c-.477-.917-2.04-3.947-2.278-4.5-.18-.419-1.367-2.914-2.061-4.4H40.06L39,320.065a7.276,7.276,0,0,0-.058.932c0,.376.254.53.593.63a3.838,3.838,0,0,0,.832.1c.159,0,.3.037.3.138s-.175.217-.472.217c-.837,0-1.727-.058-2.082-.058s-1.33.058-1.966.058c-.2,0-.355-.037-.355-.217s.117-.138.313-.138a2.65,2.65,0,0,0,.6-.058c.53-.122.715-.9.811-1.589Z" transform="translate(-17.56 -249.332)" fill="#fff"/>
  <path id="Path_664" data-name="Path 664" d="M81.528,313.238c0-3.015,0-3.571-.042-4.2s-.238-1.012-.673-1.113a2.874,2.874,0,0,0-.715-.079c-.2,0-.318-.037-.318-.2s.159-.159.477-.159c.752,0,2,.058,2.58.058.493,0,1.664-.058,2.416-.058.26,0,.419.037.419.159s-.122.2-.318.2a3.611,3.611,0,0,0-.593.058c-.53.1-.694.44-.736,1.134s-.037,1.187-.037,4.2v3.491c0,1.923,0,3.491.079,4.344.058.53.2.89.789.969a7.9,7.9,0,0,0,1.012.08c.223,0,.318.058.318.159s-.159.2-.376.2c-1.309,0-2.559-.058-3.094-.058-.456,0-1.706.058-2.5.058-.26,0-.4-.058-.4-.2s.079-.159.318-.159a3.019,3.019,0,0,0,.71-.058c.4-.08.53-.419.577-.991.1-.832.1-2.4.1-4.323Z" transform="translate(-38.244 -249.732)" fill="#fff"/>
  <path id="Path_665" data-name="Path 665" d="M103.44,316.692c0,2.538,0,3.9.413,4.265s.853.434,2.4.434c1.06,0,1.822,0,2.32-.556a2.432,2.432,0,0,0,.53-1.187c0-.18.064-.3.223-.3s.154.1.154.339a15.676,15.676,0,0,1-.3,2.283c-.117.434-.217.53-1.25.53-1.425,0-2.458-.042-3.348-.064s-1.589-.058-2.421-.058h-1.128c-.477,0-.97.037-1.367.037-.26,0-.4-.058-.4-.2s.079-.159.318-.159a3.018,3.018,0,0,0,.71-.079c.4-.079.5-.53.577-1.091.1-.832.1-2.4.1-4.238v-3.491c0-3.015,0-3.571-.042-4.2s-.2-1-.853-1.134a3.115,3.115,0,0,0-.652-.058c-.217,0-.339-.037-.339-.18s.138-.175.434-.175c.932,0,2.183.058,2.718.058s1.923-.058,2.7-.058c.281,0,.419.037.419.175s-.122.18-.355.18a5.551,5.551,0,0,0-.773.058c-.53.1-.694.44-.736,1.134s-.037,1.187-.037,4.2Z" transform="translate(-47.324 -249.695)" fill="#fff"/>
  <path id="Path_666" data-name="Path 666" d="M126.333,313.238c0-3.015,0-3.571-.037-4.2s-.238-1.012-.673-1.113a2.9,2.9,0,0,0-.715-.079c-.2,0-.318-.037-.318-.2s.159-.159.477-.159c.752,0,2,.058,2.575.058s1.669-.058,2.421-.058c.26,0,.419.037.419.159s-.122.2-.318.2a3.506,3.506,0,0,0-.593.058c-.53.1-.694.44-.736,1.134s-.037,1.187-.037,4.2v3.491c0,1.923,0,3.491.079,4.344.058.53.2.89.789.969a7.9,7.9,0,0,0,1.012.08c.217,0,.318.058.318.159s-.159.2-.376.2c-1.309,0-2.559-.058-3.094-.058-.456,0-1.706.058-2.5.058-.254,0-.4-.058-.4-.2s.079-.159.318-.159a3.069,3.069,0,0,0,.715-.079c.4-.079.53-.419.577-.991.1-.832.1-2.4.1-4.323Z" transform="translate(-59.314 -249.732)" fill="#fff"/>
  <path id="Path_667" data-name="Path 667" d="M147.42,308.348l-2.951.079c-1.155.042-1.626.138-1.928.577a2.3,2.3,0,0,0-.334.694c-.042.159-.1.238-.217.238s-.18-.1-.18-.318c0-.318.376-2.119.419-2.283.058-.254.117-.376.238-.376a4.24,4.24,0,0,0,.848.238c.577.058,1.33.1,1.987.1h7.851a9.027,9.027,0,0,0,1.367-.1,5.207,5.207,0,0,1,.53-.1c.143,0,.159.122.159.419,0,.419-.058,1.785-.058,2.3,0,.2-.058.318-.18.318s-.2-.1-.217-.4v-.217c-.037-.53-.572-1.06-2.336-1.107l-2.5-.064v8.132c0,1.822,0,3.391.1,4.238.058.556.18.991.773,1.06a7.832,7.832,0,0,0,1.012.079c.217,0,.318.058.318.159s-.159.2-.376.2c-1.314,0-2.559-.058-3.115-.058-.456,0-1.706.058-2.5.058-.254,0-.4-.058-.4-.2s.079-.159.318-.159a3.11,3.11,0,0,0,.715-.079c.4-.079.53-.53.577-1.091.1-.832.1-2.4.1-4.238Z" transform="translate(-67.411 -249.483)" fill="#fff"/>
  <path id="Path_668" data-name="Path 668" d="M171.135,316.93c-.1,0-.138.042-.175.159l-1.06,2.84a3.772,3.772,0,0,0-.286,1.24c0,.355.18.615.795.615h.265c.238,0,.3.037.3.159s-.117.2-.334.2c-.636,0-1.489-.058-2.119-.058-.217,0-1.309.058-2.342.058-.254,0-.376-.037-.376-.2s.079-.159.238-.159a3.424,3.424,0,0,0,.615-.037c.911-.122,1.287-.795,1.685-1.785l4.98-12.455c.238-.572.355-.795.556-.795s.3.18.493.636c.477,1.091,3.65,9.181,4.916,12.185.758,1.785,1.33,2.061,1.748,2.161a4.424,4.424,0,0,0,.832.079c.159,0,.26,0,.26.159s-.18.2-.911.2-2.162,0-3.751-.037c-.355,0-.593,0-.593-.159s.079-.159.275-.18a.323.323,0,0,0,.18-.456l-1.589-4.2a.185.185,0,0,0-.2-.143Zm4.048-.991c.1,0,.117-.058.1-.117l-1.785-4.9c0-.08-.042-.175-.1-.175s-.1.1-.117.175l-1.828,4.879c0,.079,0,.138.079.138Z" transform="translate(-78.692 -249.365)" fill="#fff"/>
  <path id="Path_669" data-name="Path 669" d="M201.423,313.238c0-3.015,0-3.571-.042-4.2s-.2-1-.848-1.134a4.338,4.338,0,0,0-.773-.058c-.223,0-.339-.037-.339-.18s.138-.175.434-.175c1.06,0,2.3.058,2.718.058.673,0,2.183-.058,2.8-.058a6.33,6.33,0,0,1,3.65.853,3.444,3.444,0,0,1,1.346,2.713c0,1.467-.615,2.818-2.617,4.445,1.764,2.22,3.131,3.984,4.3,5.213a3.632,3.632,0,0,0,2.22,1.351,3.425,3.425,0,0,0,.556.058c.159,0,.238.058.238.159s-.138.2-.376.2H212.8a4,4,0,0,1-2.119-.376,9.786,9.786,0,0,1-2.718-2.914c-.795-1.091-1.706-2.437-1.96-2.739a.43.43,0,0,0-.36-.138l-1.722-.037c-.1,0-.159.037-.159.159v.275c0,1.844,0,3.412.1,4.238.064.577.18,1.012.774,1.091a8.6,8.6,0,0,0,.975.079c.159,0,.238.058.238.159s-.138.2-.4.2c-1.15,0-2.617-.058-2.914-.058-.381,0-1.626.058-2.421.058-.26,0-.4-.058-.4-.2s.079-.159.318-.159a3.113,3.113,0,0,0,.715-.079c.4-.079.493-.53.572-1.091.1-.832.1-2.4.1-4.238Zm2.342,1.589c0,.217.037.3.175.355a5.3,5.3,0,0,0,1.51.2,1.982,1.982,0,0,0,1.409-.339,3.5,3.5,0,0,0,1.166-2.972c0-2.819-1.86-3.629-3.03-3.629a4.18,4.18,0,0,0-1.06.079c-.138.037-.175.117-.175.276Z" transform="translate(-94.5 -249.732)" fill="#fff"/>
  <path id="Path_670" data-name="Path 670" d="M231.808,317.344a4.238,4.238,0,0,0-.456-2.082c-.143-.318-2.8-4.678-3.491-5.711a4.832,4.832,0,0,0-1.367-1.446,2.061,2.061,0,0,0-.837-.26c-.159,0-.3-.037-.3-.18s.138-.175.376-.175c.36,0,1.844.058,2.5.058.419,0,1.229-.058,2.119-.058q.3,0,.3.175c0,.122-.143.143-.44.223a.355.355,0,0,0-.275.355,1.838,1.838,0,0,0,.238.673c.275.593,3.052,5.377,3.369,5.928.2-.471,2.7-4.837,2.977-5.452a2.606,2.606,0,0,0,.275-1.033.471.471,0,0,0-.419-.493c-.175-.042-.355-.079-.355-.2s.1-.175.339-.175c.652,0,1.287.058,1.86.058.44,0,1.748-.058,2.119-.058.217,0,.355.037.355.159s-.159.2-.376.2a2.171,2.171,0,0,0-.874.238,2.971,2.971,0,0,0-1.06.969,64.555,64.555,0,0,0-3.788,6.31,4.73,4.73,0,0,0-.3,1.981v1.626c0,.318,0,1.15.064,1.981.037.578.217,1.012.811,1.091a7.8,7.8,0,0,0,.991.079c.217,0,.318.058.318.159s-.159.2-.419.2c-1.245,0-2.5-.058-3.03-.058s-1.748.058-2.479.058c-.281,0-.434-.037-.434-.2s.1-.159.313-.159a2.975,2.975,0,0,0,.694-.079c.4-.079.577-.53.62-1.091.058-.832.058-1.664.058-1.981Z" transform="translate(-106.697 -249.732)" fill="#fff"/>
  <path id="Path_671" data-name="Path 671" d="M67.815,353.847a.127.127,0,0,0,.122-.143v-.413c0-3.015,0-3.571-.042-4.207s-.2-.991-.853-1.129a3.858,3.858,0,0,0-.773-.058c-.217,0-.339-.042-.339-.18s.143-.18.419-.18c1.06,0,2.32.064,2.856.064s1.727-.064,2.5-.064c.275,0,.413.042.413.18s-.117.18-.355.18a3.252,3.252,0,0,0-.577.058c-.53.1-.694.434-.731,1.129s-.042,1.192-.042,4.207v3.475c0,1.823,0,3.391.1,4.238.058.53.18.991.773,1.06a8.9,8.9,0,0,0,1.012.079c.217,0,.318.058.318.159s-.159.2-.4.2c-1.287,0-2.538-.058-3.094-.058-.456,0-1.706.058-2.479.058-.275,0-.413-.058-.413-.2s.079-.159.318-.159a3.33,3.33,0,0,0,.71-.079c.4-.079.5-.53.577-1.091.1-.832.1-2.4.1-4.238v-1.748a.116.116,0,0,0-.122-.117H60.239c-.058,0-.117,0-.117.117v1.78c0,1.823,0,3.391.1,4.238.058.53.175.991.773,1.06a8.8,8.8,0,0,0,1.007.079c.223,0,.318.058.318.159s-.159.2-.4.2c-1.287,0-2.538-.058-3.094-.058-.456,0-1.7.058-2.5.058-.26,0-.4-.058-.4-.2s.079-.159.318-.159a3.429,3.429,0,0,0,.715-.079c.4-.079.493-.53.572-1.091.1-.832.1-2.4.1-4.238v-3.491c0-3.014,0-3.571-.042-4.207s-.2-.991-.853-1.128a3.8,3.8,0,0,0-.768-.058c-.223,0-.339-.042-.339-.18s.138-.18.413-.18c1.06,0,2.32.064,2.856.064s1.727-.064,2.5-.064c.275,0,.419.042.419.18s-.122.18-.36.18a3.179,3.179,0,0,0-.572.058c-.53.1-.694.434-.736,1.128s-.037,1.192-.037,4.207v.413c0,.1.058.143.117.143Z" transform="translate(-26.894 -268.54)" fill="#fff"/>
  <path id="Path_672" data-name="Path 672" d="M96.643,353.192c0-3.015,0-3.571-.037-4.207s-.2-.991-.853-1.128a3.9,3.9,0,0,0-.773-.058c-.217,0-.339-.042-.339-.18s.143-.18.44-.18h1.589c.482,0,.97.042,1.25.042h4.954a7.579,7.579,0,0,0,.853-.122,2.532,2.532,0,0,1,.318-.079c.1,0,.122.08.122.18a12.141,12.141,0,0,0-.159,1.287c0,.2-.058,1.06-.1,1.309a.2.2,0,0,1-.2.222c-.138,0-.18-.1-.18-.281a2.23,2.23,0,0,0-.117-.715c-.143-.355-.339-.593-1.33-.71-.339-.042-2.421-.079-2.818-.079-.1,0-.138.058-.138.2v5.017c0,.138,0,.217.138.217.44,0,2.718,0,3.179-.037a1.42,1.42,0,0,0,.954-.3c.138-.159.217-.26.318-.26s.138.042.138.159-.079.434-.159,1.446c0,.4-.079,1.192-.079,1.33s0,.376-.18.376-.175-.079-.175-.18a5.586,5.586,0,0,0-.079-.71c-.1-.4-.376-.694-1.113-.773-.376-.042-2.342-.058-2.813-.058-.1,0-.122.074-.122.2v4.662c.042,1.367.355,1.664,2.379,1.664a5.014,5.014,0,0,0,1.865-.238c.53-.238.752-.652.9-1.467.037-.217.074-.3.217-.3s.159.159.159.36a15.318,15.318,0,0,1-.26,2.2c-.138.53-.318.53-1.06.53-1.489,0-2.58-.037-3.433-.058s-1.468-.058-2.061-.058H96.706c-.477,0-.975.037-1.372.037-.254,0-.392-.058-.392-.2s.079-.159.313-.159a3.392,3.392,0,0,0,.715-.079c.4-.079.5-.53.577-1.091.1-.832.1-2.4.1-4.238Z" transform="translate(-45.232 -268.442)" fill="#fff"/>
  <path id="Path_673" data-name="Path 673" d="M122.923,353.333c0-3.014,0-3.571-.037-4.207s-.2-.991-.853-1.128a3.89,3.89,0,0,0-.773-.058c-.217,0-.339-.042-.339-.18s.138-.18.44-.18c1.06,0,2.3.064,2.713.064.678,0,2.183-.064,2.8-.064a6.362,6.362,0,0,1,3.65.853,3.433,3.433,0,0,1,1.346,2.718c0,1.467-.615,2.819-2.617,4.445,1.764,2.22,3.136,3.984,4.3,5.213a3.946,3.946,0,0,0,2.225,1.346,2.925,2.925,0,0,0,.53.064c.159,0,.238.058.238.159s-.138.2-.376.2h-1.881a4.073,4.073,0,0,1-2.119-.376,9.786,9.786,0,0,1-2.718-2.914c-.789-1.091-1.7-2.442-1.96-2.739a.424.424,0,0,0-.36-.138l-1.722-.037c-.1,0-.159.037-.159.154v.286c0,1.844,0,3.412.1,4.238.058.572.175,1.012.773,1.091.3.037.731.079.97.079s.238.058.238.159-.138.2-.4.2c-1.15,0-2.617-.058-2.914-.058s-1.626.058-2.421.058c-.254,0-.4-.058-.4-.2s.079-.159.318-.159a3.435,3.435,0,0,0,.715-.079c.4-.079.5-.53.577-1.091.1-.832.1-2.4.1-4.238Zm2.342,1.589c0,.217.037.3.18.355a5.225,5.225,0,0,0,1.5.2,2.008,2.008,0,0,0,1.409-.334,3.51,3.51,0,0,0,1.171-2.977c0-2.813-1.865-3.629-3.036-3.629a4.372,4.372,0,0,0-1.06.08c-.143.042-.18.122-.18.281Z" transform="translate(-57.589 -268.583)" fill="#fff"/>
  <path id="Path_674" data-name="Path 674" d="M151.32,354.832c0-3.391,2.241-7.772,8.191-7.772,4.938,0,8.01,2.877,8.01,7.417a7.845,7.845,0,0,1-8.212,8.132A7.553,7.553,0,0,1,151.32,354.832Zm13.425.376c0-4.44-2.559-7.195-5.828-7.195-2.278,0-4.879,1.266-4.879,6.2,0,4.127,2.283,7.417,6.087,7.417C161.529,361.613,164.745,360.941,164.745,355.208Z" transform="translate(-71.883 -268.338)" fill="#fff"/>
  <path id="Path_675" data-name="Path 675" d="M190.563,353.192c0-3.015,0-3.571-.037-4.207s-.2-.991-.853-1.128a3.9,3.9,0,0,0-.773-.058c-.217,0-.339-.042-.339-.18s.143-.18.44-.18h1.589c.482,0,.969.042,1.25.042h4.954a7.431,7.431,0,0,0,.853-.122,2.528,2.528,0,0,1,.318-.079c.1,0,.122.079.122.18a12.153,12.153,0,0,0-.159,1.287c0,.2-.058,1.06-.1,1.309a.2.2,0,0,1-.2.223c-.138,0-.18-.1-.18-.281a2.231,2.231,0,0,0-.117-.715c-.143-.355-.339-.593-1.33-.71-.339-.042-2.421-.079-2.818-.079-.1,0-.138.058-.138.2v5.017c0,.138,0,.217.138.217.44,0,2.718,0,3.179-.037a1.42,1.42,0,0,0,.954-.3c.138-.159.217-.26.318-.26s.138.042.138.159-.079.434-.159,1.446c0,.4-.079,1.192-.079,1.33s0,.376-.18.376-.175-.079-.175-.18a5.578,5.578,0,0,0-.079-.71c-.1-.4-.376-.694-1.113-.773-.376-.042-2.342-.058-2.813-.058-.1,0-.122.074-.122.2v4.662c.042,1.367.355,1.664,2.379,1.664a5.012,5.012,0,0,0,1.865-.238c.53-.238.752-.652.89-1.467.042-.217.079-.3.222-.3s.159.159.159.36a15.314,15.314,0,0,1-.238,2.167c-.138.53-.318.53-1.06.53-1.489,0-2.58-.037-3.433-.058s-1.467-.058-2.061-.058h-1.128c-.477,0-.975.037-1.372.037-.254,0-.392-.058-.392-.2s.079-.159.313-.159a3.348,3.348,0,0,0,.715-.079c.4-.079.5-.53.577-1.091.1-.832.1-2.4.1-4.238Z" transform="translate(-89.394 -268.442)" fill="#fff"/>
  <path id="Path_676" data-name="Path 676" d="M216.226,362.089c-.313-.138-.376-.238-.376-.673,0-1.091.079-2.283.1-2.6s.079-.53.238-.53.2.18.2.339a4.132,4.132,0,0,0,.18,1.012,2.728,2.728,0,0,0,2.834,2,2.4,2.4,0,0,0,2.649-2.262c0-.97-.3-1.881-1.944-3.179l-.9-.7c-2.183-1.7-2.935-3.089-2.935-4.7,0-2.177,1.822-3.746,4.583-3.746a9.374,9.374,0,0,1,2.649.339c.18.037.281.1.281.238,0,.254-.079.832-.079,2.379,0,.434-.058.593-.217.593s-.2-.117-.2-.355a2.368,2.368,0,0,0-.53-1.309,2.5,2.5,0,0,0-2.162-.975,2.09,2.09,0,0,0-2.363,2.045c0,.911.461,1.589,2.119,2.856l.556.413c2.4,1.807,3.253,3.179,3.253,5.06a4,4,0,0,1-1.865,3.449,5.722,5.722,0,0,1-3.152.816A6.887,6.887,0,0,1,216.226,362.089Z" transform="translate(-102.226 -268.337)" fill="#fff"/>
</svg>
