<svg xmlns="http://www.w3.org/2000/svg" width="35.666" height="50.666" viewBox="0 0 35.666 50.666">
  <path id="path2" d="M43,30.833c0,.092-.338.167-.75.167s-.75.075-.75.167-.254.166-.566.166c-.348,0-.6.1-.661.25a.483.483,0,0,1-.434.25c-.187,0-.339.075-.339.167s-.187.167-.417.167c-.259,0-.416.094-.416.25s-.158.25-.417.25c-.229,0-.417.075-.417.166s-.155.167-.345.167c-.369,0-.821.361-.821.655,0,.1-.156.178-.346.178-.369,0-.821.361-.821.655a.178.178,0,0,1-.175.179A6.791,6.791,0,0,0,33.5,36.492a.177.177,0,0,1-.179.175c-.294,0-.654.452-.654.821,0,.19-.086.345-.19.345-.256,0-.632.515-.638.875,0,.161-.081.292-.172.292s-.167.188-.167.417c0,.259-.094.416-.25.416-.175,0-.25.176-.25.584,0,.32-.075.583-.167.583s-.166.254-.166.566c0,.348-.1.6-.25.661-.22.084-.25,1.75-.25,13.6,0,11.894.03,13.505.25,13.505.18,0,.25.186.25.667,0,.367.075.667.166.667s.167.227.167.5c0,.3.1.545.25.6a.454.454,0,0,1,.25.4.525.525,0,0,0,.167.408.473.473,0,0,1,.166.366,1.26,1.26,0,0,0,.417.649,1.262,1.262,0,0,1,.417.656.888.888,0,0,0,.654.746c.1,0,.179.154.179.341a5.269,5.269,0,0,0,1.825,1.992.178.178,0,0,1,.175.179c0,.294.452.655.821.655.19,0,.346.08.346.178,0,.274.442.655.76.655a1.258,1.258,0,0,1,.671.417,1.259,1.259,0,0,0,.644.416c.142,0,.258.075.258.167s.155.167.345.167a.967.967,0,0,1,.595.25,1.066,1.066,0,0,0,.655.25c.223,0,.4.075.4.166s.375.167.833.167.834.075.834.167a39.238,39.238,0,0,0,5.75.166,39.25,39.25,0,0,0,5.75-.166c0-.092.258-.167.573-.167a1.038,1.038,0,0,0,.677-.167.564.564,0,0,1,.431-.166.476.476,0,0,0,.425-.25.461.461,0,0,1,.411-.25c.174,0,.316-.075.316-.167s.188-.167.417-.167c.259,0,.416-.094.416-.25s.154-.25.38-.25a.872.872,0,0,0,.62-.333.874.874,0,0,1,.62-.333c.227,0,.38-.1.38-.25s.081-.25.179-.25c.194,0,.655-.411.655-.584A1.19,1.19,0,0,1,61.25,77c.173,0,.583-.461.583-.655a.179.179,0,0,1,.179-.178c.211,0,.655-.417.655-.616,0-.076.187-.279.416-.451a1.009,1.009,0,0,0,.417-.623c0-.171.075-.31.167-.31s.166-.188.166-.417c0-.259.1-.417.25-.417.139,0,.25-.148.25-.333s.075-.333.167-.333.167-.188.167-.417.075-.417.166-.417.167-.254.167-.565c0-.349.1-.6.25-.662s.25-.315.25-.684c0-.324.075-.589.167-.589.109,0,.166-4.416.166-12.916S65.776,43.5,65.667,43.5c-.092,0-.167-.3-.167-.667,0-.481-.069-.666-.25-.666s-.25-.176-.25-.584c0-.321-.075-.583-.167-.583s-.166-.187-.166-.417-.075-.416-.167-.416-.167-.153-.167-.339a.481.481,0,0,0-.25-.434.463.463,0,0,1-.25-.412c0-.173-.075-.315-.166-.315s-.167-.188-.167-.417c0-.259-.094-.417-.25-.417-.138,0-.25-.078-.25-.174a1.493,1.493,0,0,0-.417-.591,1.536,1.536,0,0,1-.416-.578,7.5,7.5,0,0,0-1.836-1.823c-.09,0-.164-.113-.164-.25s-.148-.25-.334-.25S59.5,34.092,59.5,34s-.113-.167-.25-.167a.25.25,0,0,1-.25-.25c0-.139-.148-.25-.333-.25s-.334-.075-.334-.166S58.221,33,58.083,33s-.25-.075-.25-.167-.187-.166-.416-.166c-.26,0-.417-.1-.417-.25a.3.3,0,0,0-.323-.25A.556.556,0,0,1,56.25,32a1.038,1.038,0,0,0-.677-.167c-.4,0-.573-.076-.573-.25s-.176-.25-.583-.25c-.321,0-.584-.075-.584-.166s-.444-.167-1-.167-1-.074-1-.167a23.552,23.552,0,0,0-4.416-.166A23.559,23.559,0,0,0,43,30.833m8.833,2.334c0,.091.375.166.834.166.629,0,.833.061.833.25s.176.25.583.25c.321,0,.584.075.584.167s.179.167.4.167a.546.546,0,0,1,.494.25.486.486,0,0,0,.435.25c.186,0,.338.075.338.166s.15.167.334.167.333.075.333.167.112.166.25.166.25.081.25.179c0,.294.452.655.821.655.19,0,.346.08.346.178,0,.194.41.655.583.655s.583.461.583.655c0,.1.113.178.25.178a.276.276,0,0,1,.251.292c0,.341.7,1.208.977,1.208.1,0,.189.188.189.417s.075.417.167.417.166.187.166.416c0,.26.1.417.25.417s.25.157.25.417c0,.229.075.416.167.416s.167.188.167.417.075.417.166.417.167.227.167.505c0,.295.1.545.25.6.219.084.25,1.644.25,12.644s-.031,12.559-.25,12.643c-.146.056-.25.306-.25.6,0,.278-.075.506-.167.506s-.166.262-.166.583-.075.583-.167.583-.167.188-.167.417c0,.259-.094.417-.25.417a.251.251,0,0,0-.25.25c0,.137-.075.25-.166.25s-.167.113-.167.253a2.01,2.01,0,0,1-.583.819,2.284,2.284,0,0,0-.584.747.171.171,0,0,1-.158.181,7.778,7.778,0,0,0-1.842,1.841c0,.087-.112.159-.25.159s-.25.075-.25.166-.187.167-.416.167-.417.075-.417.167-.115.166-.255.166a.41.41,0,0,0-.351.25.549.549,0,0,1-.5.25c-.22,0-.4.075-.4.167s-.187.167-.417.167c-.259,0-.416.094-.416.25,0,.174-.176.25-.584.25-.321,0-.583.075-.583.166s-.263.167-.583.167-.584.075-.584.167a20.321,20.321,0,0,1-4.083.166,20.321,20.321,0,0,1-4.083-.166c0-.092-.338-.167-.75-.167s-.75-.075-.75-.167-.263-.166-.584-.166c-.407,0-.583-.076-.583-.25,0-.156-.157-.25-.417-.25-.229,0-.416-.075-.416-.167s-.18-.167-.4-.167a.548.548,0,0,1-.5-.25.451.451,0,0,0-.4-.25A.8.8,0,0,1,38.833,77a.768.768,0,0,0-.453-.333.235.235,0,0,1-.213-.25c0-.139-.148-.25-.334-.25S37.5,76.092,37.5,76s-.113-.167-.25-.167-.25-.08-.25-.178c0-.194-.41-.655-.583-.655s-.584-.461-.584-.655a.173.173,0,0,0-.166-.178.2.2,0,0,1-.17-.209,2.834,2.834,0,0,0-1.144-1.291c-.1,0-.186-.188-.186-.417s-.075-.417-.167-.417-.167-.187-.167-.416S33.758,71,33.667,71s-.167-.152-.167-.339a.485.485,0,0,0-.25-.434c-.154-.059-.25-.313-.25-.661,0-.312-.075-.566-.167-.566s-.166-.263-.166-.583c0-.408-.076-.584-.25-.584-.22,0-.25-1.426-.25-11.833s.03-11.833.25-11.833c.184,0,.25-.194.25-.74a1.478,1.478,0,0,1,.166-.844A1.034,1.034,0,0,0,33,41.907c0-.4.076-.574.25-.574.139,0,.25-.148.25-.333s.075-.333.167-.333.166-.188.166-.417.075-.417.167-.417.167-.112.167-.25a.251.251,0,0,1,.25-.25c.139,0,.25-.148.25-.333s.075-.333.166-.333.167-.113.167-.25.08-.25.179-.25c.194,0,.654-.411.654-.584A1.192,1.192,0,0,1,36.417,37c.173,0,.583-.461.583-.655,0-.1.112-.178.25-.178s.25-.075.25-.167.15-.167.333-.167.334-.111.334-.25a.251.251,0,0,1,.25-.25c.137,0,.25-.075.25-.166s.1-.167.224-.167c.334,0,1.276-.5,1.276-.679,0-.085.187-.154.416-.154S41,34.092,41,34s.188-.167.417-.167c.259,0,.416-.094.416-.25,0-.174.176-.25.584-.25.32,0,.583-.075.583-.166A23.49,23.49,0,0,1,47.417,33a23.483,23.483,0,0,1,4.416.167m-6.046,2.5a1.363,1.363,0,0,0-.287.761c0,.835.244.9,3.238.9,2.344,0,2.762.038,2.762.25,0,.175.176.25.583.25.321,0,.584.075.584.167s.187.167.416.167.417.073.417.163.188.211.417.268.416.172.416.253.15.149.334.149.333.075.333.167.112.166.25.166.25.081.25.179a.937.937,0,0,0,.655.655.2.2,0,0,1,.178.213.766.766,0,0,0,.334.453.788.788,0,0,1,.333.514,1,1,0,0,0,.417.586,1.042,1.042,0,0,1,.416.69c0,.224.1.377.25.377.175,0,.25.176.25.583,0,.321.075.584.167.584a33.921,33.921,0,0,1,.167,5.345c0,5.87-.009,5.821,1,5.821s1,.1,1-6.4A41.549,41.549,0,0,0,60.5,43c-.092,0-.167-.227-.167-.505,0-.3-.1-.545-.25-.6a.551.551,0,0,1-.25-.5c0-.22-.075-.4-.166-.4s-.167-.139-.167-.31a1.006,1.006,0,0,0-.417-.623c-.229-.172-.416-.373-.416-.447,0-.127-.15-.334-.625-.864a.813.813,0,0,1-.209-.351c0-.2-.563-.561-.875-.566a.27.27,0,0,1-.291-.228c0-.122-.188-.322-.417-.444s-.417-.286-.417-.362-.187-.138-.416-.138c-.26,0-.417-.1-.417-.25,0-.175-.176-.25-.583-.25-.321,0-.584-.075-.584-.167s-.254-.167-.565-.167c-.349,0-.6-.1-.662-.25-.169-.441-6.435-.363-6.819.086M41,36.833c0,.092-.146.167-.323.167a.556.556,0,0,0-.427.167.685.685,0,0,1-.5.166,1.427,1.427,0,0,0-.816.417,1.468,1.468,0,0,1-.609.417,5.384,5.384,0,0,0-1.656,1.666,1.338,1.338,0,0,1-.417.569,1.26,1.26,0,0,0-.417.659c0,.15-.075.272-.166.272s-.167.18-.167.4a.55.55,0,0,1-.25.5c-.171.066-.25.334-.25.851,0,.415-.075.755-.167.755-.319,0-.209,4.113.121,4.5.36.421,1.713.489,1.713.086,0-.138.075-.25.166-.25A7.5,7.5,0,0,0,37,45.75c0-2.037.039-2.417.25-2.417.139,0,.25-.148.25-.333s.075-.333.167-.333.166-.188.166-.417.075-.417.167-.417.167-.112.167-.25.081-.25.181-.25a3.308,3.308,0,0,0,.911-.75,2.547,2.547,0,0,1,1.068-.75c.191,0,.34-.109.34-.25s.157-.25.416-.25c.23,0,.417-.075.417-.166s.15-.167.333-.167.334-.075.334-.167.112-.166.25-.166a.251.251,0,0,0,.25-.25c0-.138.075-.25.166-.25s.167-.15.167-.334-.075-.333-.167-.333-.166-.113-.166-.25a.251.251,0,0,0-.25-.25c-.138,0-.25-.075-.25-.167s-.263-.166-.584-.166-.583.075-.583.166M45.833,40c0,.092-.337.167-.75.167-.555,0-.75.064-.75.25,0,.155-.157.25-.416.25-.229,0-.417.075-.417.166s-.153.167-.339.167c-.6,0-1.328.921-1.328,1.672,0,.477.07.661.25.661a.251.251,0,0,1,.25.25c0,.175.176.25.584.25s.583-.075.583-.25c0-.139.148-.25.333-.25s.334-.075.334-.166.112-.167.25-.167.25-.075.25-.167.182-.166.4-.166a1.061,1.061,0,0,0,.655-.25,1.639,1.639,0,0,1,1.012-.25c.419,0,.762-.075.762-.167s.262-.167.583-.167.584.075.584.167.375.167.833.167c.63,0,.833.061.833.25a.3.3,0,0,0,.324.25.555.555,0,0,1,.426.166A.556.556,0,0,0,51.51,43c.178,0,.323.075.323.167s.113.166.25.166a.251.251,0,0,1,.25.25c0,.138.075.25.167.25s.167.188.167.417.075.417.166.417A13.693,13.693,0,0,1,53,48c0,2.852.036,3.333.25,3.333a.251.251,0,0,1,.25.25c0,.186.194.25.75.25H55v-4.25a21.8,21.8,0,0,0-.167-4.25c-.091,0-.166-.15-.166-.333s-.075-.333-.167-.333-.167-.113-.167-.25-.08-.25-.178-.25a.937.937,0,0,1-.655-.655c0-.1-.113-.179-.25-.179s-.25-.075-.25-.166S52.85,41,52.667,41s-.334-.075-.334-.167-.187-.166-.416-.166c-.26,0-.417-.1-.417-.25,0-.181-.185-.25-.667-.25-.366,0-.666-.075-.666-.167A6.139,6.139,0,0,0,48,39.833,6.139,6.139,0,0,0,45.833,40m.5,5.167c0,.091-.112.166-.25.166s-.25.081-.25.179a.912.912,0,0,1-.654.655c-.125,0-.179,2.879-.179,9.583,0,8.407.031,9.583.25,9.583.144,0,.25.151.25.356a1.259,1.259,0,0,0,.942.978c.124,0,.225.075.225.166s.5.167,1.166.167S49,66.929,49,66.833s.188-.166.417-.166c.259,0,.416-.1.416-.25,0-.138.081-.25.179-.25a.937.937,0,0,0,.655-.655.174.174,0,0,1,.166-.179A36.018,36.018,0,0,0,51,59.821c0-6.163.034-5.988-1.167-5.988-1.113,0-1.166.136-1.166,2.988a8.121,8.121,0,0,0,.166,2.512A6.583,6.583,0,0,1,49,61.583a6.583,6.583,0,0,1-.167,2.25c-.091,0-.166.188-.166.417,0,.536-.829.588-1.334.083-.451-.451-.533-17-.083-17,.137,0,.25-.075.25-.166,0-.251.657-.2.929.071.167.167.238.64.238,1.583,0,.786.069,1.346.166,1.346s.167.112.167.25a.251.251,0,0,0,.25.25c.137,0,.25.075.25.166s.155.167.345.167c.369,0,.822-.361.822-.655a.173.173,0,0,1,.166-.178A4.176,4.176,0,0,0,51,48.417c0-1.056-.066-1.75-.167-1.75s-.166-.156-.166-.346c0-.9-.836-1.321-2.654-1.321-1.009,0-1.68.067-1.68.167m-6.208.9C39.784,46.325,39.66,67,40,67c.092,0,.167.152.167.339a.483.483,0,0,0,.25.434.474.474,0,0,1,.25.423c0,.313.356.8.583.8a1.155,1.155,0,0,1,.583.6c0,.191.56.561.858.566a.434.434,0,0,1,.369.256.486.486,0,0,0,.435.25c.186,0,.338.075.338.166A15.749,15.749,0,0,0,47.417,71,15.743,15.743,0,0,0,51,70.833c0-.091.265-.166.589-.166.369,0,.624-.093.684-.25a.461.461,0,0,1,.411-.25c.174,0,.316-.075.316-.167s.112-.167.25-.167.25-.078.25-.174a1.5,1.5,0,0,1,.417-.591,1.4,1.4,0,0,0,.416-.659c0-.133.075-.242.167-.242s.167-.188.167-.417.075-.417.166-.417A39.122,39.122,0,0,0,55,61.583a39.134,39.134,0,0,0-.167-5.75c-.091,0-.166-.112-.166-.25,0-.174-.176-.25-.584-.25s-.583.076-.583.25a.251.251,0,0,1-.25.25c-.217,0-.25.686-.25,5.167a31.752,31.752,0,0,1-.167,5.167c-.091,0-.166.15-.166.333a3.787,3.787,0,0,1-1.5,1.667c-.092,0-.167.112-.167.25,0,.174-.176.25-.583.25-.321,0-.584.075-.584.166A7.488,7.488,0,0,1,47.417,69,7.5,7.5,0,0,1,45,68.833c0-.091-.187-.166-.417-.166-.259,0-.416-.1-.416-.25,0-.139-.148-.25-.334-.25S43.5,68.092,43.5,68s-.113-.167-.25-.167a.25.25,0,0,1-.25-.25c0-.137-.075-.25-.167-.25s-.166-.15-.166-.333-.111-.333-.25-.333c-.181,0-.25-.186-.25-.667,0-.367-.075-.667-.167-.667-.109,0-.167-3.281-.167-9.512,0-10.373.036-9.993-.946-9.982a1.512,1.512,0,0,0-.762.226M35.5,52c0,.092-.113.167-.25.167-.219,0-.25,1-.25,8,0,6.727.037,8,.232,8a.393.393,0,0,1,.328.25c.138.358.816.308,1.153-.086.4-.466.446-15.863.049-16.26C36.492,51.8,35.5,51.745,35.5,52m23.375,6.916c-.156.177-.208,1.375-.208,4.744a24.44,24.44,0,0,1-.167,4.507c-.092,0-.167.179-.167.4a.546.546,0,0,1-.25.494.486.486,0,0,0-.25.435c0,.186-.075.338-.166.338s-.167.188-.167.417-.078.417-.174.417a2.115,2.115,0,0,0-.993.992c0,.1-.112.174-.25.174s-.25.075-.25.167-.139.167-.31.167a1.011,1.011,0,0,0-.623.416,1.04,1.04,0,0,1-.69.417c-.207,0-.377.075-.377.167s-.152.166-.338.166a.486.486,0,0,0-.435.25.46.46,0,0,1-.411.25c-.174,0-.316.075-.316.167a20.167,20.167,0,0,1-4.083.167A20.167,20.167,0,0,1,44.167,74c0-.092-.263-.167-.584-.167-.407,0-.583-.075-.583-.25,0-.149-.153-.25-.38-.25A.872.872,0,0,1,42,73a.872.872,0,0,0-.62-.333c-.209,0-.38-.081-.38-.179a.937.937,0,0,0-.655-.655.176.176,0,0,1-.178-.174c0-.3-.805-.992-1.159-.992-.192,0-.341-.11-.341-.25,0-.175-.176-.25-.584-.25H37.5v1c0,.555.074,1,.167,1s.166.187.166.416.081.417.179.417a.937.937,0,0,1,.655.655c0,.1.155.178.345.178.369,0,.821.361.821.655,0,.1.113.179.25.179s.25.075.25.166.15.167.334.167.333.075.333.167.188.166.417.166c.259,0,.416.1.416.25s.158.25.417.25c.229,0,.417.075.417.167a34.8,34.8,0,0,0,5.416.167A34.821,34.821,0,0,0,53.5,76c0-.092.152-.167.339-.167a.483.483,0,0,0,.434-.25.463.463,0,0,1,.411-.25c.174,0,.316-.075.316-.166s.188-.167.417-.167.416-.075.416-.167.109-.166.243-.166a1.4,1.4,0,0,0,.659-.417,1.5,1.5,0,0,1,.591-.417.176.176,0,0,0,.174-.178c0-.194.41-.655.583-.655a1.192,1.192,0,0,0,.584-.583c0-.173.46-.584.654-.584.1,0,.179-.112.179-.25s.075-.25.167-.25.169-.131.172-.291a1.286,1.286,0,0,1,.25-.616,1.379,1.379,0,0,0,.244-.708c0-.212.075-.385.167-.385.29,0,.221-10.136-.071-10.428a1.426,1.426,0,0,0-1.554.011" transform="translate(-30.167 -30.667)" fill="#aa2929" fill-rule="evenodd"/>
</svg>
