<svg xmlns="http://www.w3.org/2000/svg" width="399.998" height="126.064" viewBox="0 0 399.998 126.064">
  <path id="path0" d="M13.135.087a4.253,4.253,0,0,1-1.112.1c-.686.01-1.069.091-1.155.244a1.115,1.115,0,0,1-.748.274C9.779.73,9.5.806,9.5.875S9.313,1,9.083,1s-.416.094-.417.208-.24.226-.54.247-.566.115-.6.208-.2.17-.376.17a.293.293,0,0,0-.32.26c0,.143-.069.217-.153.165s-.266.019-.4.157a.88.88,0,0,1-.513.252c-.144,0-.262.075-.262.166S5.379,3,5.232,3c-.165,0-.232.092-.175.242.065.169.013.21-.176.138s-.229-.038-.15.09.03.158-.139.094c-.242-.093-.345.165-.276.686.012.092-.091.021-.23-.157-.229-.292-.253-.295-.253-.032,0,.161-.075.246-.166.189s-.167.014-.167.157a.27.27,0,0,1-.278.26c-.153,0-.229.049-.169.108s-.022.208-.181.33c-.253.2-.258.244-.039.4.2.141.158.155-.166.066-.229-.064-.362-.057-.3.013s-.038.268-.234.438c-.335.291-.337.309-.039.32s.3.019-.016.155c-.183.079-.263.149-.177.155s-.014.171-.222.365a.774.774,0,0,0-.3.654c.057.218.008.274-.178.2s-.237,0-.17.346c.05.265.01.444-.1.444s-.2.281-.228.625a1.315,1.315,0,0,1-.313.825.513.513,0,0,0-.183.534c.048.183,0,.368-.1.412-.129.053-.11.135.06.255S.354,11.5.2,11.5c-.167,0-.209.791-.2,3.653.02,4.269.052,4.383,1.141,4.023l.686-.226V16.223A15,15,0,0,0,1.708,13.5c-.068,0-.135-.175-.147-.389s.072-.389.2-.389.185.063.137.139S1.9,13,2.01,13c.137,0,.175-.3.124-1-.039-.55-.006-1,.074-1s.1.075.042.167-.024.166.073.166c.187,0,.218-.116.244-.916.01-.3.1-.484.225-.459.276.056.276-.9,0-1.023-.115-.05-.061-.075.119-.055a.328.328,0,0,0,.391-.3,1.58,1.58,0,0,1,.47-.691c.223-.2.385-.426.359-.509s.17-.354.435-.6.42-.449.343-.449.006-.118.184-.262.23-.215.115-.157S5,5.939,5,5.84s.165-.138.417-.075c.315.079.416.039.416-.164,0-.147.083-.268.185-.268s.147-.1.1-.217c-.056-.145.062-.214.357-.208.267.005.424-.073.4-.2s.071-.208.208-.208.25-.075.25-.167.192-.166.427-.166.385-.067.335-.148.035-.25.189-.375c.193-.156.241-.162.155-.019-.069.115-.046.208.051.208a.177.177,0,0,0,.177-.176c0-.1.075-.13.166-.074S9,3.607,9,3.51s.135-.177.3-.177a.793.793,0,0,0,.492-.192,1.142,1.142,0,0,1,.7-.178c.28.008.508-.06.508-.151s-.074-.119-.165-.063-.119-.016-.053-.19.138-.215.179-.092.29.2.563.2.453-.069.4-.152.037-.132.2-.107a.432.432,0,0,0,.384-.1c.05-.077,3.666-.145,8.036-.15,4.9-.005,7.982-.07,8.043-.169s6.342-.146,17.131-.12l17.032.04L45.667,2l-17.084.086,17.084.038c17.219.038,17.833.025,17.833-.393,0-.386,17.954-.34,18.029.046.041.208.279.292.963.336a2.134,2.134,0,0,1,1.013.228,1.18,1.18,0,0,0,.659.238,1.138,1.138,0,0,1,.679.27c.085.137.149.1.2-.116.078-.3.082-.3.1-.005.014.222.112.287.342.227a.327.327,0,0,1,.419.166c.061.159.24.223.488.176.272-.053.385,0,.373.171a.337.337,0,0,0,.213.327c.158.056.189.009.1-.148-.117-.2.284.11,1.059.821A.505.505,0,0,0,88.6,4.6c.148-.056.186.005.117.184-.08.21-.024.248.259.174.2-.052.41-.015.47.082s.03.128-.083.058-.192-.03-.192.077.139.16.333.109.333,0,.333.11c0,.533.9.869,1.171.438.094-.149.159-.17.16-.051a.37.37,0,0,1-.153.294c-.09.056-.059.281.075.54a.88.88,0,0,1,.127.622c-.057.1.072.029.287-.155s.328-.228.242-.083c-.308.517-.1,1.474.264,1.246.086-.053.112.02.057.162s.058.4.294.6c.216.19.3.3.185.24-.287-.146-.266.325.024.566a.53.53,0,0,1,.154.5.648.648,0,0,0,.173.554,1.917,1.917,0,0,1,.305.983c.041.583.113.726.35.707s.253.029.12.19c-.237.285-.221,24.251.016,24.251a1.265,1.265,0,0,1,.521.334c.242.225.4.273.473.147s.143-.116.205.042.094.167.1.019c.007-.115.144-.21.305-.211.249,0,.255-.026.041-.164s-.173-.162.139-.164c.24,0,.36-.083.313-.211a.251.251,0,0,0-.277-.163c-.109.025-.151-.032-.092-.128s.158-.142.221-.1.113-3.748.113-8.414c0-7.5-.03-8.484-.254-8.484-.191,0-.244-.157-.213-.625a46.964,46.964,0,0,0-.024-6.776c-.1-.042-.087-.078.033-.086s.208-.163.208-.346c0-.348-.153-.422-.429-.209-.089.069-.011-.013.172-.182.289-.267.3-.333.087-.5a.864.864,0,0,1-.247-.609c0-.245-.086-.4-.208-.375-.142.028-.208-.2-.208-.709,0-.412-.075-.75-.167-.75s-.167-.152-.167-.338a.484.484,0,0,0-.25-.435.548.548,0,0,1-.25-.494c0-.24-.1-.4-.244-.4s-.208-.1-.149-.25-.01-.255-.214-.263c-.17-.008-.22-.05-.111-.094.139-.057.114-.168-.084-.376a6.013,6.013,0,0,1-.531-.676c-.58-.882-.876-1.175-1.189-1.175-.182,0-.284-.075-.228-.166s.027-.167-.066-.167a1.515,1.515,0,0,1-.585-.417c-.444-.444-.7-.552-.493-.208.1.166.073.166-.131,0-.14-.113-.3-.165-.348-.113s-.082-.044-.068-.21c.015-.192-.08-.3-.26-.281-.157.012-.27-.053-.25-.144s-.114-.192-.3-.222a.529.529,0,0,1-.389-.23.369.369,0,0,0-.344-.176.815.815,0,0,1-.5-.208,1.081,1.081,0,0,0-.658-.209c-.266,0-.432-.083-.408-.2.028-.142-.182-.192-.684-.163-.553.033-.72-.015-.707-.2.021-.3-.813-.4-1.285-.15-.277.148-.315.133-.229-.092C83.488,0,13.4-.177,13.135.087m1.4,4.954c-.1.207-.186.282-.192.167-.014-.249-1.178-.29-1.178-.041,0,.091-.141.166-.313.166-.325,0-.75.382-.6.535.048.049-.115.049-.362,0-.346-.066-.428-.03-.356.157s-.018.227-.39.173-.482,0-.482.2c0,.158-.138.269-.334.269a2.316,2.316,0,0,0-1.006.672c-.37.37-.726.645-.791.61s-.251.075-.411.244S7.913,8.5,8.01,8.5s.129.076.072.169a.2.2,0,0,1-.274.066c-.4-.248-.92,1-.593,1.426.15.2.119.191-.135-.02-.38-.319-.747-.073-.793.53-.013.181-.121.329-.239.329-.274,0-.277.366-.006.658.14.151.144.188.011.114a.224.224,0,0,0-.3.059c-.058.093-.007.174.113.18s.05.078-.157.161a.582.582,0,0,0-.375.479.562.562,0,0,1-.165.431,1.179,1.179,0,0,0-.139.752,1.7,1.7,0,0,1-.15.866c-.246.306-.3,36.633-.055,36.633.1,0,.176.125.176.278s.05.228.111.166.246.011.411.16c.308.278.913.195.73-.1-.056-.091,0-.13.114-.086.453.166.732-.2.418-.546-.266-.294-.283-1.4-.242-16.3l.043-15.986.041,16.031c.028,10.966.1,16.066.216,16.14s.166-5.417.148-18.059c-.015-9.992.023-18.249.085-18.348S7.1,14.5,7,14.5s-.078-.11.073-.262a.966.966,0,0,0,.262-.583c0-.177.08-.322.177-.322s.13-.075.073-.166S7.56,13,7.657,13a.176.176,0,0,0,.176-.177c0-.1-.062-.137-.139-.09s-.138-.025-.138-.159c0-.162.1-.213.3-.149s.306.013.306-.187a.694.694,0,0,1,.271-.483c.212-.155.232-.271.092-.532s-.127-.334.046-.334c.134,0,.187.107.132.264-.141.4.114.114.43-.476.153-.286.338-.515.41-.509.186.015.619-.444.619-.656,0-.1.14-.179.313-.179.357,0,.761-.411.623-.635-.051-.082.092-.114.319-.071.316.06.414.006.424-.233.008-.171.05-.222.094-.113.058.142.17.121.4-.071.173-.148.269-.344.212-.435s.008-.123.155-.066a.5.5,0,0,0,.469-.1c.163-.15.184-.147.094.013-.184.325.15.245.475-.114a.59.59,0,0,1,.528-.231c.151.058.2.009.149-.136-.067-.174.091-.22.668-.2.416.018.723-.02.684-.083a12.674,12.674,0,0,1,2.455-.074c1.389.023,5.245.06,8.568.083,6.291.044,6.162.057,6.061-.582-.011-.069,5.155-.125,11.48-.125,9.908,0,11.5.033,11.5.24,0,.325.638.193.931-.193a1.354,1.354,0,0,0,.231-.684c.012-.9,1.206-.855-21.37-.86L14.718,4.665l-.181.376m55.171-.126c-.235.268-.289,1.321-.06,1.18.081-.05.186.054.232.232.082.313.289.325,6.053.335,3.283.007,6.009.078,6.06.159a1.617,1.617,0,0,0,.869.122c.427-.015.765.039.749.118s.1.167.261.193a1.283,1.283,0,0,1,.563.324.565.565,0,0,0,.5.187c.134-.052.229.021.229.175s.094.226.233.173.268.041.318.234a1.051,1.051,0,0,0,.558.53c.261.113.474.315.474.449s.188.294.417.358.313.124.188.133c-.194.014-.194.058,0,.292a.839.839,0,0,1,.176.583c-.058.344.228.424.357.1.046-.115.053.073.015.416-.04.37,0,.625.108.625s.129.075.072.167-.029.167.06.167A.254.254,0,0,0,88.362,12a12.881,12.881,0,0,1,0,1.757c-.042,1.431,0,1.995.167,2.2s.162.239.015.15-.209-.026-.209.146c0,.2.091.243.374.153.318-.1.343-.082.168.13-.163.195-.206,6.364-.206,28.815,0,19.823-.053,28.585-.174,28.625s-.1.152.04.324.138.22.023.151c-.135-.081-.195.14-.2.744a1.7,1.7,0,0,1-.2.981,1.18,1.18,0,0,0-.235.74,1.332,1.332,0,0,1-.193.728.583.583,0,0,0-.17.4c-.037.712-.067.805-.224.708-.1-.061-.166.137-.166.49,0,.393-.078.593-.23.593s-.215.17-.184.533a1.674,1.674,0,0,1-.2.909.669.669,0,0,0-.132.562c.071.116,0,.165-.194.132-.229-.039-.322.066-.361.409-.029.253-.114.424-.188.378s-.182.213-.24.575a1.193,1.193,0,0,1-.414.824,1.614,1.614,0,0,0-.531.714,3.051,3.051,0,0,1-.315.631c-.238.214-.51.864-.422,1.007.055.088-.064.16-.264.16-.28,0-.342.075-.275.333.048.183.015.333-.074.333s-.115.074-.059.165,0,.126-.125.078c-.286-.11-.705.638-.564,1.005.058.151.034.227-.055.172s-.312.054-.5.241-.255.339-.151.339-.085.249-.417.554c-.576.527-.822.934-.412.68.117-.072.147-.045.078.067a.33.33,0,0,1-.386.081c-.211-.082-.251-.028-.18.244s.03.326-.167.25c-.163-.062-.217-.031-.145.085s-.055.3-.26.445c-.329.23-.337.261-.066.261.256,0,.272.043.1.252-.159.192-.264.207-.437.063s-.228-.117-.228.155a.6.6,0,0,1-.193.463q-.19.117-.069-.116c.068-.128-.031-.046-.22.183a1.539,1.539,0,0,0-.348.625c0,.115-.06.2-.129.189-.463-.074-.734.044-.644.278.054.142.038.221-.036.175-.145-.089-.707.487-.674.693.065.422-.028.619-.181.379-.13-.206-.2-.186-.475.125a1.042,1.042,0,0,1-.527.369c-.114,0-.164.111-.111.248s.041.24-.024.231c-.314-.047-.393.042-.222.248.154.185.1.212-.256.143s-.427-.036-.337.2c.06.155.041.241-.042.19s-.176-.035-.206.036a2.307,2.307,0,0,1-.484.459c-.52.4-.587.579-.295.781.159.11.126.128-.112.062-.351-.1-1.337.594-1.135.8.06.06-.009.108-.153.108s-.426.244-.627.542-.317.4-.259.218c.1-.316.1-.317-.234-.016-.362.327-.472.69-.148.49.123-.076.147-.045.066.085a.318.318,0,0,1-.372.11c-.278-.107-1.521,1.086-1.426,1.369.034.1-.084.139-.284.086-.234-.06-.343-.009-.343.16a.915.915,0,0,1-.815.7.268.268,0,0,0-.273.252c-.007.4-.237.66-.5.56-.362-.139-.877.423-.567.62.181.114.152.149-.122.151a.514.514,0,0,0-.457.263c-.057.148-.185.208-.3.14-.134-.083-.162-.031-.087.164.061.158.041.244-.043.192a.193.193,0,0,0-.26.077.194.194,0,0,1-.262.076c-.085-.053-.155-.016-.155.081s-.12.176-.267.176-.233.094-.18.23-.018.221-.187.208a.254.254,0,0,0-.286.229c-.006.138-.1.231-.212.208s-.2.069-.2.2-.094.212-.208.172c-.367-.129-1.242.836-1.157,1.275.011.059-.127.069-.307.022s-.328,0-.328.1-.132.186-.293.186a1.3,1.3,0,0,0-.7.49c-.223.269-.484.443-.581.385s-.079.015.041.163c.185.229.173.261-.084.222a.455.455,0,0,0-.42.138.468.468,0,0,1-.333.193.171.171,0,0,0-.173.208c.023.11-.108.2-.291.2s-.334.11-.334.244c0,.16-.1.208-.276.139-.218-.083-.258-.031-.187.241.077.291.028.335-.306.275-.219-.04-.4,0-.4.1a.175.175,0,0,1-.179.17c-.256,0-.66.44-.527.573.062.061-.017.062-.174,0s-.287-.032-.287.074a.187.187,0,0,1-.189.185,1.042,1.042,0,0,0-.506.366,1.276,1.276,0,0,1-.572.4,1.323,1.323,0,0,0-.583.417,1.328,1.328,0,0,1-.612.421.444.444,0,0,0-.341.217.317.317,0,0,1-.294.176c-.13,0-.236.075-.236.166s-.15.167-.334.167-.333.074-.333.163-.187.211-.417.269-.416.171-.416.253-.113.148-.25.148-.25.075-.25.167-.147.167-.325.167a.577.577,0,0,0-.459.231.778.778,0,0,1-.466.3.314.314,0,0,0-.285.393c.04.272.019.285-.125.078s-.2-.212-.32-.023-.161.192-.237,0c-.058-.147-.1-.109-.115.106l-.025.333-.143-.333c-.079-.183-.149-.237-.155-.119-.008.142-.137.1-.377-.125a1.251,1.251,0,0,0-.666-.339.287.287,0,0,1-.3-.268c0-.208-.1-.243-.446-.157-.408.1-.426.088-.208-.177s.2-.28-.138-.193c-.266.069-.375.024-.375-.155,0-.152-.1-.216-.241-.16s-.284-.039-.35-.246c-.082-.259-.2-.316-.5-.24s-.375.044-.3-.152c.062-.163,0-.252-.179-.252a1.325,1.325,0,0,1-.681-.437.837.837,0,0,0-.81-.36c-.3.058-.382.016-.316-.156.055-.143-.047-.27-.263-.326-.194-.051-.3-.172-.244-.269s.007-.137-.15-.076-.46-.1-.776-.407c-.3-.289-.622-.466-.76-.413q-.244.095-.151-.148c.051-.133.01-.242-.092-.242a.193.193,0,0,0-.184.2c0,.109-.2-.041-.441-.333-.347-.42-.49-.492-.67-.342s-.208.133-.122-.09c.059-.154.042-.269-.038-.254-.342.062-.575-.025-.479-.18.057-.091-.008-.166-.143-.166a.405.405,0,0,0-.342.208c-.052.115-.053.04,0-.167.066-.269.019-.375-.168-.375a.26.26,0,0,1-.262-.257c0-.141-.093-.245-.208-.23-.415.054-.643-.016-.549-.167.052-.085-.057-.2-.243-.262s-.3-.176-.243-.26-.008-.114-.132-.067-.444-.132-.711-.4-.583-.449-.7-.4-.214-.039-.214-.2c0-.2-.09-.25-.337-.172-.271.086-.374,0-.517-.4-.115-.33-.291-.513-.495-.513-.175,0-.317-.079-.317-.177s-.075-.13-.167-.073-.167-.014-.167-.157c0-.242-.074-.281-.623-.328-.114-.01-.2-.077-.2-.148.007-.188-.453-.617-.662-.617-.1,0-.178-.11-.178-.245,0-.152-.1-.207-.257-.146s-.239.016-.208-.12-.1-.25-.273-.289a1.489,1.489,0,0,1-.638-.426c-.174-.2-.268-.245-.208-.107s-.01.1-.154-.074a1.214,1.214,0,0,1-.262-.458c0-.074-.1-.135-.23-.135a2.766,2.766,0,0,1-.927-.657c-.384-.362-.787-.637-.9-.611s-.141.015-.072-.023c.261-.146.109-.376-.25-.378-.3,0-.327-.034-.125-.164s.178-.162-.125-.164c-.21,0-.357-.1-.334-.211s-.118-.2-.375-.178c-.229.018-.323-.007-.208-.055.326-.136.244-.392-.125-.392-.183,0-.333-.081-.333-.179a.929.929,0,0,0-.665-.655c-.1,0-.147-.067-.1-.15s-.141-.232-.426-.331c-.359-.125-.489-.258-.422-.433.06-.155,0-.252-.148-.252-.134,0-.244-.081-.244-.179a.929.929,0,0,0-.665-.655c-.1,0-.149-.064-.1-.142s-.1-.227-.324-.33-.411-.3-.411-.441a.253.253,0,0,0-.25-.253c-.138,0-.25-.081-.25-.179a.949.949,0,0,0-.644-.655c-.091,0-.19-.168-.22-.375s-.17-.376-.333-.377a.649.649,0,0,1-.417-.152c-.078-.085-.047-.1.072-.029.341.2.236-.14-.125-.4a.77.77,0,0,1-.333-.471c0-.141-.1-.192-.259-.132s-.216.029-.163-.056c.184-.3-.829-1.151-1.151-.971-.253.143-.267.12-.108-.177.22-.411-.03-.625-.321-.274a.649.649,0,0,1-.394.245c-.1,0-.075-.073.062-.16.286-.181.378-.839.11-.788-.1.019-.181-.116-.185-.3-.005-.206-.114-.326-.286-.313s-.245-.066-.191-.208-.02-.229-.175-.229c-.177,0-.227-.091-.155-.279.08-.209.039-.253-.164-.175-.183.07-.242.031-.184-.121.047-.123-.136-.452-.409-.73s-.452-.549-.4-.6.007-.094-.1-.094a.162.162,0,0,1-.152-.209c.023-.114-.062-.186-.187-.16s-.193-.045-.138-.189c.066-.171-.01-.219-.271-.172-.2.037-.269.022-.154-.032.292-.139.259-.41-.084-.691-.16-.131-.2-.192-.085-.134.136.068.173.016.107-.155a.4.4,0,0,0-.331-.258c-.2,0-.314-.314-.252-.709.011-.068-.055-.125-.147-.125s-.167-.192-.167-.426-.071-.382-.169-.322a.221.221,0,0,0-.051.3c.076.127.024.12-.148-.019-.217-.176-.282-.176-.352,0-.06.148-.091.153-.1.017a.364.364,0,0,1,.154-.3.588.588,0,0,0,.166-.447c0-.3-.035-.314-.271-.118s-.26.172-.154-.313c.079-.361.056-.538-.071-.538-.1,0-.144-.075-.087-.167s.042-.167-.032-.167-.152-.243-.173-.54-.115-.566-.208-.6-.17-.195-.17-.363a.4.4,0,0,0-.2-.371c-.108-.036-.213-.3-.233-.592a1.443,1.443,0,0,0-.305-.8c-.148-.148-.227-.335-.177-.417a.94.94,0,0,0-.133-.611,1.99,1.99,0,0,1-.2-.839c.016-.206-.023-.375-.087-.375-.129,0-.182-.318-.187-1.125,0-.359-.085-.541-.244-.541a.237.237,0,0,1-.24-.232c0-.5-.606-1.027-.9-.784C7.092,75.3,7,75.31,7,75.187A.178.178,0,0,0,6.833,75c-.091,0-.166.1-.166.232a.375.375,0,0,1-.228.32c-.339.13-.346,1.85-.01,2.186a1.368,1.368,0,0,1,.275.8,2.484,2.484,0,0,0,.309,1.022,1.126,1.126,0,0,1,.212.694.273.273,0,0,0,.1.321.576.576,0,0,1,.178.444q0,.333.208.208c.157-.094.154-.058-.008.142-.131.161-.153.306-.056.366a.178.178,0,0,0,.252-.11c.05-.115.048,0,0,.249-.067.322-.027.458.132.458s.226.22.226.693.081.721.25.777c.21.071.215.042.032-.179s-.171-.252.136-.172c.251.066.3.145.176.27-.262.263-.215.774.082.888a.27.27,0,0,1,.167.342.79.79,0,0,0,.157.6,1.4,1.4,0,0,1,.25.653c0,.163.075.3.167.3s.166.158.166.351c0,.238.078.322.242.259s.211-.013.144.162c-.061.159.114.449.466.773.311.285.44.472.287.414-.258-.1-.259-.072,0,.372.15.262.331.44.4.4s.129.028.129.159a.7.7,0,0,0,.248.446c.137.113.209.269.162.346-.116.187.44.822.72.822.123,0,.182.067.131.149s.02.192.157.245a.484.484,0,0,1,.249.434c0,.186.1.339.229.339a.742.742,0,0,1,.459.291c.212.271.2.274-.1.042s-.318-.231-.1.053a.573.573,0,0,0,.542.224c.338-.088.412.136.106.325-.135.084-.1.158.124.235a.472.472,0,0,1,.322.386c0,.15.076.255.168.233a.144.144,0,0,0,.121-.177c-.026-.075.037-.086.139-.023.134.083.135.166,0,.3-.263.263-.222.5.067.388.136-.052.24-.041.23.024-.051.343.049.536.277.536a.444.444,0,0,1,.364.292c.128.347,1.54,1.782,1.564,1.591.009-.073.072.055.14.284s.216.4.329.371.162.025.109.111.027.282.178.433c.2.2.31.221.4.084.069-.112.166.04.231.362.087.435.146.5.271.305s.159-.183.161.108a.657.657,0,0,0,.724.581c.075-.016.093.041.04.127s.027.282.178.433c.2.2.31.221.4.084.069-.113.17.038.241.362.068.306.16.462.2.347.126-.32.367-.247.28.084-.08.305.793.967,1,.759.059-.059.107.018.107.171s.09.259.2.236a.159.159,0,0,1,.209.133c.012.283.912,1.1,1.09.992.093-.057.121.01.066.154-.065.168.05.322.335.452.238.109.433.3.433.421s.154.223.343.223.306.06.26.134.175.273.491.443.573.382.573.473c0,.177.5.6.718.611.074,0,.085-.075.024-.173s.047-.081.24.04.351.279.351.353c0,.345.8.924,1,.731.167-.154.189-.132.107.1-.074.212.014.351.309.485.227.1.413.247.413.318s.263.224.584.34.583.306.583.422.109.17.25.116.25-.013.25.088a1.507,1.507,0,0,0,.843.851c.1,0,.123-.086.058-.192s-.046-.147.073-.074a.413.413,0,0,1,.193.3c0,.276.89.98,1.125.891.114-.043.208,0,.208.1s.11.137.245.086a.3.3,0,0,1,.359.091c.069.112.038.138-.078.066s-.193-.071-.193-.014c0,.192.543.652.815.692a1.145,1.145,0,0,1,.555.394c.158.195.36.31.448.256s.258.039.379.207a2.189,2.189,0,0,0,.762.544c.3.13.541.331.541.446a.233.233,0,0,0,.25.209.229.229,0,0,0,.25-.2c0-.109.189.057.42.371.49.663.84.894,1.107.728.126-.077.146-.044.058.1-.1.163-.026.2.307.132.243-.046.442-.02.442.059s-.087.144-.193.144-.019.15.193.333a1.333,1.333,0,0,0,.609.333c.123,0,.224.075.224.167s.056.158.125.147c.409-.065.708.054.708.28,0,.142.071.216.157.163s.224.024.306.171.2.262.261.254c.309-.042.432.02.828.416.3.295.534.4.759.326.18-.057.376-.027.434.068s0,.131-.153.072-.258-.011-.258.1.154.174.4.126c.3-.057.426.008.49.253.055.21.177.294.337.232.179-.068.222-.019.149.17-.084.22-.02.246.363.15s.448-.072.359.162-.027.263.312.2c.274-.052.419,0,.419.137,0,.329.351.477.516.216.109-.172.146-.176.148-.017s.117.154.494-.041a2.529,2.529,0,0,1,.875-.266c.361-.011.364-.02.05-.146a.74.74,0,0,0-.5-.045c-.091.049-.1.022-.029-.061a1.441,1.441,0,0,1,.75-.155c.337,0,.6-.081.583-.175s.16-.185.392-.2a1.241,1.241,0,0,0,.738-.437c.211-.268.426-.372.647-.315a.328.328,0,0,0,.435-.182.471.471,0,0,1,.414-.269c.2,0,.278-.084.219-.238-.068-.177,0-.213.281-.14.259.068.336.038.252-.1s.057-.231.388-.3c.28-.056.468-.167.418-.248s.02-.146.155-.146a.346.346,0,0,0,.315-.208.418.418,0,0,1,.389-.208c.176,0,.3-.1.278-.209s.117-.209.31-.209c.235,0,.321-.078.26-.237-.067-.175.015-.218.316-.163s.406,0,.406-.208c0-.154.05-.231.11-.171s.213-.036.338-.215a.433.433,0,0,1,.5-.22c.2.077.248.036.175-.153-.066-.173-.007-.251.18-.237.153.012.26-.073.237-.187s.075-.209.218-.209.223-.06.177-.133.071-.229.258-.346.29-.132.229-.033.01.179.159.179.224-.075.167-.167-.02-.166.081-.166a1.257,1.257,0,0,0,.552-.388,2.307,2.307,0,0,1,.659-.5.435.435,0,0,0,.291-.352.475.475,0,0,1,.193-.365c.119-.073.147-.045.073.074s-.039.192.058.192.177-.056.177-.125a1.834,1.834,0,0,1,.581-.519c.319-.218.539-.461.489-.542s.062-.147.249-.147a.9.9,0,0,0,.611-.415c.15-.229.339-.374.421-.324s.148.018.148-.073.151-.213.336-.272.293-.176.24-.261-.006-.155.1-.155a1.329,1.329,0,0,0,.589-.421,1.579,1.579,0,0,1,.519-.423c.071,0,.123-.148.116-.326-.01-.266.031-.287.233-.119s.229.14.139-.212c-.058-.229-.063-.322-.01-.207a.494.494,0,0,0,.425.208c.181,0,.282-.076.225-.168s.033-.22.2-.283a4.512,4.512,0,0,0,1.385-1.386c0-.068.158-.165.35-.216s.3-.17.242-.267-.008-.137.15-.077c.142.055.258.012.258-.095s.088-.14.195-.074c.133.082.16.029.086-.165-.065-.169-.043-.245.054-.185s.342-.09.559-.325a1.347,1.347,0,0,1,.594-.426c.109,0,.152-.075.1-.166s.018-.167.166-.167.224-.075.167-.167.021-.166.172-.166a.43.43,0,0,0,.363-.332c.047-.182.134-.3.192-.267.127.076.449-.249.481-.485.012-.091.193-.207.4-.256a.734.734,0,0,0,.493-.5c.063-.226.122-.314.131-.195.014.175.06.175.25,0,.127-.119.2-.272.156-.34s.1-.126.309-.128c.31,0,.336-.034.135-.164-.217-.14-.213-.162.024-.164.444,0,1.328-.917,1.1-1.141-.139-.139-.1-.17.15-.122.5.1.927-.452.62-.8-.128-.147-.143-.193-.033-.1.363.3.849.2.756-.155-.059-.225-.015-.294.147-.232.127.049.231.006.231-.1s.115-.184.254-.184c.222,0,.22-.052-.019-.417-.174-.265-.2-.416-.082-.416a.391.391,0,0,1,.293.265c.085.22.163.193.472-.167a1.27,1.27,0,0,1,.56-.432A.217.217,0,0,0,79.5,95.6a.317.317,0,0,1,.176-.294.449.449,0,0,0,.217-.343.82.82,0,0,1,.184-.414c.079-.071.089-.036.023.079s-.04.208.057.208.176-.185.176-.411c0-.3.07-.385.251-.315.293.112.942-.587.833-.9-.04-.114,0-.208.086-.208a1.221,1.221,0,0,0,.83-.886.45.45,0,0,1,.334-.4c.223-.058.333-.227.333-.512,0-.234.045-.38.1-.324.151.15.784-.494.669-.681-.055-.088.057-.2.249-.251s.32-.181.283-.291.139-.4.389-.655c.329-.328.432-.567.368-.853-.056-.256-.035-.325.059-.193.17.236.715-.29.715-.689a.393.393,0,0,1,.25-.326c.3-.115.335-.717.05-.812-.156-.052-.156-.094,0-.191.11-.068.2-.044.2.053a.172.172,0,0,0,.164.177c.09,0,.138-.219.107-.486-.038-.322.009-.46.14-.41.108.041.3-.134.428-.39a2.2,2.2,0,0,0,.311-1.131c.019-.282.049-.295.2-.083.136.193.162.132.113-.268-.054-.447-.018-.506.267-.431.252.066.3.022.224-.186a.56.56,0,0,1,.155-.531.549.549,0,0,0,.162-.512.265.265,0,0,1,.155-.348c.186-.071.2-.153.071-.314s-.107-.258.1-.376a.347.347,0,0,0,.185-.422c-.07-.182-.027-.234.14-.169.184.07.242-.052.242-.509,0-.33.075-.6.167-.6a.172.172,0,0,0,.166-.177c0-.1-.093-.123-.208-.058-.167.094-.167.072,0-.107a.911.911,0,0,0,.208-.537.955.955,0,0,1,.261-.572,1.084,1.084,0,0,0,.219-.78,1.847,1.847,0,0,1,.136-.852,7.437,7.437,0,0,0,.072-2.417c-.04-.137.01-34.808.069-48.449.046-10.541.018-12.685-.167-12.614a.3.3,0,0,1-.349-.118c-.083-.135-.056-.161.079-.077.171.105.188-.838.028-1.554-.008-.034-.13.034-.271.151-.225.187-.245.146-.162-.325.066-.377.038-.5-.093-.423s-.138.023,0-.238c.125-.232.13-.353.017-.353-.095,0-.173-.157-.173-.349a.442.442,0,0,0-.322-.433c-.191-.05-.285-.179-.232-.318s-.018-.233-.188-.233c-.153,0-.245-.057-.2-.125.15-.257-1.169-1.36-1.38-1.153-.109.107-.184.119-.166.028.1-.527-.023-.785-.336-.7-.188.05-.312.008-.291-.1a.188.188,0,0,0-.173-.212l-.385-.049c-.1-.011-.13-.1-.073-.187s-.027-.167-.185-.167a1.113,1.113,0,0,1-.6-.284c-.249-.225-.377-.245-.618-.1s-.371.129-.632-.115c-.445-.415-13.644-.5-14-.091M88.8,14.85l-.052,1.067-.081-1.2c-.045-.661-.022-1.14.052-1.067a3.227,3.227,0,0,1,.081,1.2M5.287,17.708c-.037.3-.067.054-.067-.541s.03-.84.067-.542a5.3,5.3,0,0,1,0,1.083M5.125,42.875c-.025,4.423-.045.8-.045-8.042s.02-12.464.045-8.041.025,11.66,0,16.083M95.5,28.069c-.08,8.07-.128,7.4-.211-2.916a32.484,32.484,0,0,1,.125-5.264,76.762,76.762,0,0,1,.086,8.18m-1.378,4.139c-.026,2.223-.048.4-.048-4.041s.022-6.265.048-4.042.026,5.86,0,8.083M312.542,42.5a1.013,1.013,0,0,0-.375.652c0,.216-.107.348-.284.348-.223,0-.24.043-.079.2s.125.265-.175.493c-.328.249-.351.334-.169.629.168.274.168.341,0,.343s-.156.037.012.144.134.164-.14.236-.337.172-.246.46c.07.22.052.326-.044.267-.169-.1-.542.571-.542.982a.221.221,0,0,1-.187.242c-.12,0-.152.181-.089.5.078.387.027.535-.229.672a.64.64,0,0,0-.328.494.55.55,0,0,1-.175.425.438.438,0,0,0-.147.385c.055.565-.016.877-.178.777-.094-.058-.167.077-.167.31s-.09.442-.2.479-.21.325-.222.639c-.012.341-.1.555-.215.53s-.2.111-.2.3a1.7,1.7,0,0,1-.27.75,1.1,1.1,0,0,0-.185.732c.056.216.013.293-.133.237-.163-.062-.209.125-.185.75.018.458-.027.8-.1.751a.172.172,0,0,1-.037-.238c.053-.085.017-.155-.08-.155s-.177.18-.177.4a.55.55,0,0,1-.25.5c-.145.055-.25.305-.25.591a.866.866,0,0,1-.167.6.555.555,0,0,0-.166.426c0,.178-.08.324-.177.324s-.13.075-.073.166.025.167-.071.167-.147.222-.115.492-.017.477-.108.459-.2.07-.249.2-.009.186.089.125.1.051-.02.309c-.106.228-.249.416-.318.417s-.125.142-.125.314a.775.775,0,0,1-.25.52,1.012,1.012,0,0,0-.25.687c0,.264-.084.48-.186.48s-.148.146-.1.324a.653.653,0,0,1-.23.609c-.406.367-.421.806-.024.668.192-.067.153.016-.116.244a1.441,1.441,0,0,0-.463.7.761.761,0,0,1-.24.471.941.941,0,0,0-.2.632c-.01.284-.1.517-.2.517s-.175.244-.168.542c.008.348-.062.527-.2.5s-.207.129-.207.361-.073.428-.162.459-.179.3-.2.593-.138.574-.256.619-.215.273-.215.505-.066.422-.147.422c-.225,0-.319.966-.115,1.176.129.134.089.169-.145.129-.266-.045-.352.081-.474.695a2.727,2.727,0,0,1-.467,1.094c-.4.427-.4.719-.027,1.015.161.126.217.219.125.207-.5-.067-.778.036-.694.255a.415.415,0,0,1-.137.427.587.587,0,0,0-.167.512c.035.178-.011.323-.1.323s-.142.131-.115.292-.043.272-.172.246c-.151-.032-.2.1-.169.416.034.3-.02.448-.154.421-.113-.023-.206.033-.206.125s.131.169.291.172c.278.005.278.013,0,.175a.575.575,0,0,0-.291.411.257.257,0,0,1-.269.242c-.208,0-.253.13-.2.583.047.4,0,.584-.148.584-.122,0-.217.188-.217.428a1.119,1.119,0,0,1-.263.692.665.665,0,0,0-.185.56.324.324,0,0,1-.153.387c-.269.1-.318.933-.055.933.1,0,.121-.094.054-.209s.091,0,.352.256l.473.463,3.639-.017a24.268,24.268,0,0,0,3.638-.154c0-.075.188-.184.417-.241s.417-.183.417-.278-.087-.12-.193-.054c-.132.081-.146.045-.046-.116a1.885,1.885,0,0,0,.253-1.109c-.006-.206.068-.375.164-.375s.121.087.056.193c-.077.124-.046.147.088.064a.408.408,0,0,0,.127-.431.324.324,0,0,1,.137-.387c.123-.047.2-.3.18-.594-.024-.347.041-.511.2-.511s.216-.146.162-.509.007-.552.232-.673c.4-.212.417-.73.023-.579-.265.1-.265.089,0-.2.156-.172.227-.369.158-.438s-.013-.1.124-.07c.25.056.278-.027.314-.912.011-.266.092-.424.186-.365.168.1.243-.218.193-.834-.02-.252.009-.277.122-.1.174.269.447-.358.277-.634a.194.194,0,0,1,.075-.263.192.192,0,0,0,.076-.261c-.053-.086-.008-.155.1-.155s.153-.108.1-.24a.88.88,0,0,1,.232-.651,1.526,1.526,0,0,0,.324-.761c0-.191.075-.348.167-.348s.167-.255.167-.566c0-.361.1-.6.262-.666s.253-.283.234-.643c-.043-.785-.011-.906.168-.625.116.181.153.068.136-.408-.014-.385.06-.685.178-.724.155-.052.152-.129-.013-.333s-.165-.236-.007-.141c.131.079.208.029.208-.134,0-.143.084-.26.186-.26s.148-.147.1-.334c-.055-.21-.021-.293.09-.224s.143-.022.081-.26-.011-.4.141-.46a.56.56,0,0,0,.237-.5,1.068,1.068,0,0,1,.25-.661.834.834,0,0,0,.162-.751c-.056-.319-.026-.462.083-.395s.183.008.2-.112.043-.293.064-.385a3.821,3.821,0,0,0,.058-.468c.01-.166.094-.255.186-.2s.166-.134.166-.481a1.08,1.08,0,0,1,.159-.681c.217-.134.557.543.434.865-.118.306.247,1.212.49,1.216.092,0,.068.065-.053.142-.179.114-.172.19.041.4a1.253,1.253,0,0,1,.263.774c0,.281.075.512.166.512s.167.179.167.4a.546.546,0,0,0,.25.494c.159.061.25.317.25.7,0,.479.054.585.259.507.142-.055.216-.031.164.053s.038.186.2.228c.277.073.278.078,0,.1-.359.024-.364.157-.031.825a1.059,1.059,0,0,1,.157.693c-.057.092-.02.168.082.168s.14.075.084.167-.024.167.073.167.177.21.177.466a1.124,1.124,0,0,0,.152.625,1.263,1.263,0,0,1,.209.575c.031.234.165.417.3.418.174,0,.234.139.2.453a1.056,1.056,0,0,0,.292.823c.237.253.286.406.156.487s-.115.222.071.487a.818.818,0,0,1,.171.6c-.049.127,0,.231.113.231s.16.113.107.25-.028.25.055.25.174.244.2.542.127.529.219.514.173.244.18.574.1.631.209.667.194.246.194.467.088.385.207.361c.134-.027.187.122.152.43a1.083,1.083,0,0,0,.236.792c.16.176.222.321.139.323s-.038.075.1.164c.158.1.176.162.047.164s-.16.115-.1.266a.33.33,0,0,0,.436.176c.251-.066.286-.04.143.1-.28.28-.234,1.072.07,1.188.144.055.214.176.157.268s-.005.169.114.171c.165,0,.16.039-.021.154-.311.2.062.7.419.565.145-.055.237.013.237.177,0,.318,7.481.419,7.521.1a4.531,4.531,0,0,1,.137-.625c.018-.069.1.025.175.208.1.225.133,0,.113-.708-.026-.92-.068-1.042-.362-1.044-.274,0-.289-.031-.085-.16s.212-.218-.042-.648a2.127,2.127,0,0,1-.29-.858c0-.226-.08-.336-.209-.287s-.214-.107-.224-.5a1.032,1.032,0,0,0-.218-.7.937.937,0,0,1-.218-.652c-.008-.289-.079-.525-.156-.525s-.142-.187-.142-.417-.075-.416-.166-.416-.167-.155-.167-.344-.068-.3-.151-.249-.109-.069-.057-.266c.064-.247.033-.323-.1-.241-.113.07-.2.011-.214-.14a3.213,3.213,0,0,0-.062-.427c-.023-.092-.053-.223-.065-.292s-.083-.032-.155.082-.138-.083-.147-.494c-.009-.386-.1-.729-.2-.762a.4.4,0,0,1-.184-.371.534.534,0,0,0-.167-.413,1,1,0,0,1-.167-.659c0-.305-.1-.592-.214-.638a1.951,1.951,0,0,1-.45-.945,2.982,2.982,0,0,0-.369-.945.859.859,0,0,1-.133-.552,1,1,0,0,0-.25-.678.688.688,0,0,1-.25-.437.25.25,0,0,0-.265-.229c-.216,0-.244-.122-.152-.667.089-.524.057-.687-.151-.767-.145-.056-.219-.173-.165-.261.139-.225-.439-.821-.665-.686-.1.061-.086-.012.036-.163.231-.284.115-1.03-.135-.875-.076.047-.1-.064-.052-.247.1-.4-.392-1.224-.642-1.07-.117.073-.115-.005.008-.234s.127-.379.016-.447a.583.583,0,0,1-.167-.442,4.015,4.015,0,0,0-.748-1.626,1.368,1.368,0,0,1-.168-.667c0-.237-.086-.415-.192-.4s-.156-.1-.1-.3a.7.7,0,0,0-.268-.669.678.678,0,0,1-.253-.743c.083-.332.051-.391-.168-.307-.2.077-.243.033-.167-.165a.858.858,0,0,0-.023-.56,3.547,3.547,0,0,1-.19-.625.549.549,0,0,0-.226-.389.141.141,0,0,1-.061-.22c.055-.09-.029-.14-.189-.11a.272.272,0,0,1-.335-.24c-.025-.161.022-.25.106-.2s.152-.1.152-.332c0-.256-.094-.427-.234-.427s-.2-.116-.148-.331a.328.328,0,0,0-.182-.434.587.587,0,0,1-.269-.552,1.073,1.073,0,0,0-.2-.648.887.887,0,0,1-.23-.408,3.624,3.624,0,0,0-.578-1.627c-.088,0-.16-.22-.16-.49a.855.855,0,0,0-.167-.593.546.546,0,0,1-.166-.418.593.593,0,0,0-.275-.469.829.829,0,0,1-.292-.633c-.009-.277-.1-.464-.217-.441s-.178-.134-.137-.458c.044-.349-.008-.5-.175-.5-.211,0-.319-.4-.254-.939a.317.317,0,0,0-.221-.283c-.156-.059-.217-.244-.169-.508.042-.228,0-.462-.092-.519a.562.562,0,0,1-.168-.432.436.436,0,0,0-.756-.314c-.207.172-.235.165-.157-.038.17-.443-.294-.639-.712-.3m18.425-.014c-.15.176-.223.375-.162.443s.023.074-.085.012c-.35-.2-.388.14-.429,3.869-.038,3.378-.018,3.679.251,3.749.16.042.291.027.291-.033s3.356-.071,7.459-.025a72.178,72.178,0,0,0,7.7-.084c.171-.119.208-.112.126.024-.126.21.28.438.8.449a.613.613,0,0,1,.466.226.5.5,0,0,0,.381.217c.445,0,1.569.822,1.569,1.147a.462.462,0,0,0,.249.309.827.827,0,0,1,.287.592c.02.249.1.452.167.452s.131.182.131.4.087.432.193.467c.249.083.063.85-.294,1.207a.68.68,0,0,0-.163.678c.076.3.036.412-.15.412-.139,0-.254.056-.256.125-.005.267-.992,1.231-1.156,1.129-.1-.059-.174,0-.174.135a.5.5,0,0,1-.682.352c-.083-.052-.152.013-.152.144,0,.185-.251.234-1.125.218-.9-.016-1.121.029-1.108.23.014.22-.861.24-7.25.167-4-.046-7.342-.064-7.433-.04-.175.046-.164,23.314.011,23.962s.828.765,4.434.711c2.7-.04,3.379-.094,3.342-.27-.025-.122.016-.183.091-.136.59.364.621-.019.668-8.388l.046-8.172h3.465l.109.5c.061.275.179.5.264.5s.153.187.153.416c0,.267.094.417.26.417s.244.124.209.375c-.032.231.027.359.156.333s.208.072.208.21a3.727,3.727,0,0,0,.318.959,7.859,7.859,0,0,1,.421,1.171c.058.256.177.421.266.366s.162.03.162.188c0,.455.564,1.565.76,1.5.108-.038.15.125.106.42-.051.352,0,.483.183.483.165,0,.225.108.172.31a.327.327,0,0,0,.179.411.264.264,0,0,1,.173.329.478.478,0,0,0,.211.465c.279.219.283.213.049-.1s-.225-.314.019-.124c.183.143.248.4.2.792-.038.346.009.582.117.582s.126-.087.061-.193-.046-.147.058-.083a.4.4,0,0,1,.1.412.565.565,0,0,0,.183.521.87.87,0,0,1,.261.6.54.54,0,0,0,.274.484c.151.058.229.15.175.2s.006.2.136.334a.529.529,0,0,1,.13.508c-.07.181-.04.232.088.153s.159-.03.094.139c-.054.143-.016.259.086.259s.184.188.184.417c0,.247.1.416.234.416s.2.117.154.309a.672.672,0,0,0,.181.57,1.31,1.31,0,0,1,.318.629c.1.68,1,.826,4.991.814a22.265,22.265,0,0,0,3.543-.147c-.046-.075.056-.173.226-.218.241-.063.313-.248.325-.837.018-.907-.31-1.3-.819-.983-.44.275-.4.068.055-.306.3-.246.334-.349.167-.519a.747.747,0,0,1-.208-.439,2.09,2.09,0,0,0-.417-.775,1.994,1.994,0,0,1-.417-.9c0-.321-.167-.438-.541-.379-.2.032-.144-.28.064-.349.124-.041.1-.157-.084-.335a1.027,1.027,0,0,1-.272-.62,1.67,1.67,0,0,0-.148-.637c-.082-.159-.288-.589-.459-.956a4.092,4.092,0,0,0-.412-.75,1.334,1.334,0,0,1-.22-.458c-.064-.207-.184-.375-.267-.375s-.109-.107-.059-.238-.055-.315-.249-.419-.3-.281-.256-.4a.419.419,0,0,0-.155-.42.558.558,0,0,1-.155-.526c.054-.208,0-.328-.142-.328s-.235-.2-.247-.534c-.011-.294-.1-.563-.209-.6s-.189-.244-.189-.466-.07-.4-.155-.4-.208-.165-.272-.367a1.724,1.724,0,0,0-.345-.6.8.8,0,0,1-.228-.466c0-.131-.068-.238-.151-.238s-.112-.15-.064-.334.012-.333-.08-.333-.217-.263-.277-.583-.186-.584-.28-.584c-.34,0,.412-.574.824-.629s1.028-.6,1.028-.93c0-.107.077-.1.2.026.242.241.7.269.55.033-.056-.091.014-.166.157-.166a.251.251,0,0,0,.26-.239c0-.131.169-.262.375-.291.229-.033.367-.162.354-.332-.014-.187.064-.246.237-.18.2.077.23.026.137-.216-.066-.174-.067-.262,0-.2.136.136.566-.175.566-.409,0-.086-.087-.1-.193-.037s-.147.046-.078-.066a.311.311,0,0,1,.366-.089c.138.053.23.021.2-.07s.158-.36.41-.6a1.4,1.4,0,0,0,.458-.756c0-.181.065-.353.145-.383.222-.086.406-.806.205-.806-.1,0-.127-.119-.071-.264.074-.194.134-.211.226-.061s.162.088.241-.161A.7.7,0,0,0,358,58.92c-.149-.18-.119-.269.137-.406.365-.195.532-2.888.193-3.1-.22-.135-.215-.749.006-.749.11,0,.158-.576.133-1.584-.029-1.111-.1-1.583-.244-1.583s-.179-.2-.131-.582a.958.958,0,0,0-.278-.932.779.779,0,0,1-.267-.668c.046-.175.016-.276-.068-.225s-.151-.1-.151-.338a.59.59,0,0,0-.259-.532.267.267,0,0,1-.17-.334.259.259,0,0,0-.157-.33.391.391,0,0,1-.247-.327.232.232,0,0,0-.231-.232.244.244,0,0,1-.209-.292c.013-.16-.07-.273-.185-.25s-.19-.024-.167-.1c.05-.173-.822-1.02-1.05-1.02a.874.874,0,0,0-.264.042c-.058.023-.168-.127-.245-.333a.538.538,0,0,0-.57-.375c-.3,0-.4-.065-.312-.209.066-.114.06-.154-.013-.088s-.341-.028-.594-.208a1.768,1.768,0,0,0-.8-.329.618.618,0,0,1-.475-.208,1.7,1.7,0,0,0-.506-.417c-.447-.25-1.442-.282-1.294-.041.057.091.033.166-.054.166s-.2-.148-.243-.329c-.077-.293-.221-.326-1.328-.306a2.786,2.786,0,0,1-1.637-.254c-.653-.458-14.959-.419-15.354.042m47.336,0c-.181.289-.342.311-1.656.226-1.2-.077-1.5-.047-1.722.172a.975.975,0,0,1-.857.19c-.544-.07-.583-.046-.5.3.052.206.051.281,0,.167-.115-.25-.838-.279-.986-.039a.192.192,0,0,1-.26.073c-.086-.053-.155-.016-.155.081s-.221.176-.49.176a.856.856,0,0,0-.594.167.58.58,0,0,1-.444.167c-.24,0-.312.076-.242.258.055.143.03.216-.054.164a.186.186,0,0,0-.253.068.3.3,0,0,1-.345.068c-.148-.057-.245.005-.245.156a.412.412,0,0,1-.259.349c-.166.064-.217.032-.142-.089.065-.1-.123-.047-.416.126-.37.218-.509.408-.455.617.064.245.034.265-.158.1s-.237-.142-.237.069c0,.158-.093.229-.232.176a.461.461,0,0,0-.459.224,4.248,4.248,0,0,1-.765.707,2.012,2.012,0,0,0-.637.7c-.054.168-.163.265-.244.215-.181-.112-.527.5-.37.656.063.063-.015.064-.173,0-.192-.074-.286-.028-.286.14a.413.413,0,0,1-.258.349.3.3,0,0,0-.208.314.251.251,0,0,1-.118.285c-.534.221-1.164,1.221-1.014,1.609.058.152.024.2-.09.133a.251.251,0,0,0-.328.116c-.193.3-.19.524,0,.4a.2.2,0,0,1,.263.078c.059.1.045.155-.031.132-.261-.078-1.054.573-1.054.865a.774.774,0,0,1-.263.513.656.656,0,0,0-.191.6c.04.208,0,.4-.1.436s-.176.326-.184.656-.07.564-.139.522a.338.338,0,0,0-.309.038c-.129.079-.116.157.042.257s.174.144.014.146c-.143,0-.177.139-.1.426s.043.409-.107.375-.225.235-.252.93a2.17,2.17,0,0,1-.226,1.1,27.426,27.426,0,0,0,.027,5.01,1.325,1.325,0,0,1-.119.382,3.459,3.459,0,0,0,.21,2.079c.105.035.141.361.091.816-.057.517-.026.723.1.647.1-.061.18-.031.18.066a.212.212,0,0,1-.208.19c-.115.007.016.116.291.242s.4.233.282.237-.176.076-.124.16,0,.19-.115.237c-.167.067-.166.087,0,.1q.212.014.107.43c-.064.257-.034.417.08.417s.185.144.185.319c0,.5.184.856.377.737.111-.069.141.023.082.251-.052.2-.022.359.066.359s.12.067.069.15.025.194.168.248.207.184.144.286a.214.214,0,0,0,.048.293,1.376,1.376,0,0,1,.313.565c.082.252.216.452.3.444.2-.019.429.366.432.735,0,.334.378.779.658.779.1,0,.178.138.178.306a2.793,2.793,0,0,0,.75,1.067,3.49,3.49,0,0,1,.75.944c0,.1.113.183.25.183s.25.083.25.185.1.145.229.1.323.1.459.358c.265.514.643.948.652.748,0-.075.113.051.244.28s.241.355.244.28.124-.019.269.126.327.224.4.176.189.065.248.251.169.3.245.254.183.035.239.181a.272.272,0,0,0,.346.173.522.522,0,0,1,.487.149.95.95,0,0,0,.583.243c.247,0,.311.075.234.275-.085.223-.022.259.339.19.3-.059.444-.014.444.142,0,.28.2.292.467.027.155-.156.2-.136.2.087,0,.4.792.686,1.135.408q.262-.213.144-.015c-.12.2.127.433.523.493a.31.31,0,0,0,.309-.2c.05-.13.165-.19.257-.133s.08.16-.059.25-.054.135.3.112a1.337,1.337,0,0,1,.75.141,47.049,47.049,0,0,0,7.792-.013c.161-.1.2-.086.116.046-.066.106-.04.192.057.192a.163.163,0,0,0,.177-.14c0-.077.192-.227.427-.334s.388-.132.341-.055.135.14.406.14c.288,0,.492-.088.492-.212a.438.438,0,0,1,.193-.331c.119-.074.147-.046.073.073-.13.21.2.257.642.09.181-.07.216-.165.107-.3s.032-.182.579-.15c.53.031.74-.02.74-.181,0-.14.156-.206.416-.178.366.04.486-.08.445-.442-.006-.055.172-.065.4-.022.286.055.408,0,.408-.171a.715.715,0,0,1,.254-.459c.216-.179.236-.163.139.1-.111.3-.1.3.257-.012s.355-.34.08-.542c-.162-.118-.223-.214-.137-.213a2.268,2.268,0,0,1,.7.509c.3.28.612.466.7.413a.211.211,0,0,1,.275.1c.082.133.045.151-.114.057-.129-.076-.028.073.224.331a1.908,1.908,0,0,1,.459.612c0,.079.112.144.25.144s.25.079.25.176.086.123.192.058.147-.046.076.069.047.321.245.484.5.435.661.6.38.26.478.2.139-.009.078.149c-.111.288.188.358.358.084.074-.12.182-.113.343.02s.235.143.235.008a.214.214,0,0,1,.231-.187c.213,0,.5-.568.45-.887-.012-.076.058-.088.156-.027.211.13.7-.229.576-.426-.046-.075.067-.184.252-.242s.335-.177.335-.262.113-.156.25-.156.25-.081.25-.181a7.728,7.728,0,0,1,1.83-1.819c.172,0,.332-.613.335-1.288,0-.588-2.323-3.173-2.665-2.961-.092.056-.166-.015-.166-.157s-.073-.26-.162-.26-.118-.113-.065-.25.013-.25-.089-.25c-.243,0-.238-.455.006-.536.141-.047.136-.166-.016-.451-.132-.246-.141-.346-.024-.274.1.063.183.03.183-.073s.068-.144.152-.092.132-.088.108-.31c-.032-.286.053-.43.286-.491.208-.055.3-.178.236-.333a.266.266,0,0,1,.157-.342.3.3,0,0,0,.153-.4.894.894,0,0,1,.221-.713,1.257,1.257,0,0,0,.257-.936c-.048-.414-.008-.51.184-.436.154.059.246-.006.246-.174,0-.147-.073-.268-.163-.268s-.106-.147-.008-.4c.108-.285.1-.43-.046-.487-.116-.047-.085-.087.074-.1.481-.023.675-1.232.268-1.67-.167-.18-.167-.2,0-.107.275.155.277-.34,0-.51-.14-.087-.072-.16.208-.226.625-.146.731-2.738.131-3.195l-.383-.291.375.1c.472.121.557-1.132.111-1.626a2.281,2.281,0,0,1-.31-1.184,6.656,6.656,0,0,0-.183-1.3,3.765,3.765,0,0,1-.148-.912c-.006-.281-.1-.485-.2-.464s-.156-.1-.108-.283a1.565,1.565,0,0,0-.183-.853,2.534,2.534,0,0,1-.267-.765.377.377,0,0,0-.232-.318.33.33,0,0,1-.147-.411c.058-.221,0-.323-.185-.323s-.27-.144-.27-.411-.073-.384-.228-.324c-.17.065-.207-.026-.144-.356.1-.53-.243-.819-.622-.524-.224.173-.227.162-.029-.091.259-.33.127-.878-.168-.695-.119.073-.149.046-.076-.071s-.041-.36-.234-.568c-.3-.32-.334-.329-.231-.058.086.223.063.283-.073.2a.873.873,0,0,1-.2-.629c0-.383-.061-.484-.25-.412-.17.066-.25-.009-.25-.232,0-.18-.056-.309-.125-.286a.128.128,0,0,1-.163-.087c-.082-.277-.47-.582-.628-.494-.092.051-.111.031-.043-.044s.04-.237-.063-.36c-.226-.273-.544-.3-.378-.031.074.12.045.147-.077.072a.215.215,0,0,1-.092-.287c.056-.091-.031-.312-.194-.492-.226-.251-.327-.277-.43-.115-.128.2-.174.1-.129-.3.006-.053-.156-.24-.359-.417-.444-.385-1.152-.428-1.152-.07,0,.137-.078.25-.173.25-.118,0-.118-.1,0-.32s.115-.346-.036-.415c-.114-.053-.027-.05.193.005.349.088.37.069.166-.151-.128-.138-.286-.218-.352-.179s-.215-.08-.332-.267a.715.715,0,0,0-.505-.34c-.161,0-.293-.075-.293-.167s-.142-.166-.316-.166a.476.476,0,0,1-.419-.269.326.326,0,0,0-.423-.185.331.331,0,0,1-.41-.148.348.348,0,0,0-.27-.232c-.1,0-.136.074-.08.165s-.009.123-.157.066a.412.412,0,0,1-.259-.343c0-.164-.1-.21-.319-.142a.393.393,0,0,1-.426-.072.557.557,0,0,0-.431-.174c-.178,0-.324-.075-.324-.166s-.11-.167-.244-.167c-.158,0-.212.1-.151.292.075.235.061.245-.076.052-.148-.208-.21-.208-.474,0s-.285.215-.076-.052S385,43,384.77,43c-.148,0-.27-.086-.27-.191,0-.136-.495-.165-1.745-.1-1.607.082-1.752.064-1.844-.226-.15-.472-2.313-.467-2.608.005m-204.667.355a2.1,2.1,0,0,1-1.115.18,6.492,6.492,0,0,0-1.708.235,1.842,1.842,0,0,1-.927.125c-.194-.075-.236-.043-.142.108s.039.183-.223.1c-.218-.069-.354-.04-.354.075s.075.142.166.085.167-.025.167.07-.271.136-.728.074-.771-.031-.843.086a.82.82,0,0,1-.594.187,1.181,1.181,0,0,0-.728.25.949.949,0,0,1-.577.25.481.481,0,0,0-.428.26c-.055.144-.169.218-.254.165s-.268.018-.406.156a.9.9,0,0,1-.356.252c-.226,0-1.244.786-1.146.885.058.057-.055.074-.251.036s-.356,0-.356.089-.112.157-.25.157-.231.067-.208.15a.18.18,0,0,1-.117.208,6.619,6.619,0,0,0-1.425,1.509c0,.073-.12.133-.267.133-.185,0-.234.089-.158.286.06.158.064.242.009.186s-.371.154-.7.466-.551.615-.491.675-.022.26-.183.443-.2.279-.084.212.209-.078.209-.024-.194.171-.431.261c-.483.183-.458.6.031.529.24-.036.261-.011.09.1a.766.766,0,0,1-.542.071c-.248-.065-.315.008-.315.34,0,.232-.094.456-.208.5-.163.059-.157.163.026.473.22.37.216.38-.056.155s-.286-.2-.208.292c.061.387.019.533-.152.533-.291,0-.31.274-.027.392.147.061.109.175-.131.389a1.446,1.446,0,0,0-.383.964,1.451,1.451,0,0,1-.185.75c-.251.156-.272.886-.028.969q.232.079.1-.135t.063-.094c.237.147.09.431-.222.431-.124,0-.2.132-.177.292a1.987,1.987,0,0,1-.164.812c-.3.731-.328,7.961-.033,7.8.151-.085.149-.057-.006.11-.286.309-.261.815.046.933.191.073.229.248.154.7s-.053.539.072.357c.14-.2.167-.181.145.114-.015.2-.087.325-.16.28-.181-.112-.161.134.035.438.089.137.168.175.176.083s.077-.017.153.167a2.08,2.08,0,0,1,.058.9c-.065.45-.031.545.165.47s.23.029.159.56c-.058.428-.023.655.1.655.1,0,.189.146.189.325a.6.6,0,0,0,.271.477.768.768,0,0,1,.27.633.831.831,0,0,0,.187.6.481.481,0,0,1,.21.291c.011.095.03.248.041.34s.131.166.266.166.207.1.149.25,0,.25.156.25.224.109.176.293.09.39.425.588c.28.165.464.392.418.513-.089.233,1.349,1.716,1.6,1.65.083-.022.1.085.045.237-.08.208-.038.251.168.172a.355.355,0,0,1,.443.179c.135.229.2.241.314.063.16-.243.439.209.284.46-.083.135,1.166.893,1.573.956a.4.4,0,0,1,.306.214c.032.1.231.175.443.175a.534.534,0,0,1,.482.254c.064.165.242.228.508.18.282-.051.385-.009.33.135s.093.209.45.209a1.008,1.008,0,0,1,.718.256,2.871,2.871,0,0,0,1.715.545.925.925,0,0,1,.528.194,2.359,2.359,0,0,0,1.011.2,1.659,1.659,0,0,1,1.138.331c.127.156.185.189.127.074s-.027-.208.07-.208a.171.171,0,0,1,.177.164c0,.1.705.15,1.812.125,1.367-.029,1.793.011,1.735.164-.126.328,8.4.286,8.733-.043.2-.2.249-.969.274-4.118l.029-3.875h-4.96c-3.914,0-4.944.043-4.88.208.044.115-.035.209-.175.209s-.212-.068-.16-.152-.226-.205-.616-.27a1.742,1.742,0,0,1-.815-.286.833.833,0,0,0-.583-.161,1.828,1.828,0,0,1-.846-.23,1.924,1.924,0,0,0-.875-.234c-.279,0-.506-.071-.506-.159s-.169-.152-.375-.143c-.655.028-.792-.025-.792-.3,0-.212-.05-.229-.232-.077s-.228.132-.209-.1a.352.352,0,0,0-.3-.358,1.291,1.291,0,0,1-.555-.3.383.383,0,0,0-.413-.123c-.1.063-.131.033-.067-.07.167-.271-.206-.429-.478-.2-.192.16-.223.132-.169-.152.037-.192,0-.348-.078-.348s-.194-.15-.252-.334S166.537,72,166.4,72s-.23-.056-.22-.125c.037-.26-.23-.875-.381-.875-.086,0-.1-.088-.036-.195.078-.127.032-.161-.131-.1-.19.073-.234,0-.179-.284a.6.6,0,0,0-.313-.652c-.254-.177-.3-.272-.14-.275.194,0,.184-.052-.047-.227a.945.945,0,0,1-.291-.673,1.1,1.1,0,0,0-.221-.673,1.265,1.265,0,0,1-.171-.856c.027-.349-.02-.678-.1-.73a12.648,12.648,0,0,1-.178-2.674,10.019,10.019,0,0,0-.216-2.819c-.152-.19-.145-.212.034-.1s.2.054.12-.2c-.072-.225-.019-.369.16-.437.292-.112.295-.838.005-1.271-.092-.137-.1-.194-.021-.126.174.148.647-.481.718-.955a.528.528,0,0,1,.213-.391c.234-.08.2-.528-.042-.528-.112,0-.031-.121.181-.269a.58.58,0,0,0,.308-.561c-.047-.181.013-.285.159-.273.129.011.363-.2.52-.478a3,3,0,0,1,.535-.695c.138-.108.194-.253.125-.321s-.124-.037-.124.07a.192.192,0,0,1-.187.194c-.127,0-.119-.083.026-.258a.443.443,0,0,1,.437-.171c.123.047.224.025.224-.049s.195-.224.433-.332c.277-.127.4-.287.338-.444-.052-.135,0-.257.109-.271a2.478,2.478,0,0,0,1-.31c.292-.141.431-.313.373-.463s-.01-.208.155-.144a1.1,1.1,0,0,0,.7-.14.944.944,0,0,1,.58-.155c.07.044.2-.061.295-.232a.63.63,0,0,1,.668-.282c.276.016.463-.033.415-.11s-.007-.148.09-.16c.429-.05.489-.069.608-.187.171-.171.61-.159.5.014s.429.191.654.015a5.875,5.875,0,0,1,1.54-.186,3.434,3.434,0,0,0,1.371-.2c0-.08.114-.052.252.063.186.155.682.178,1.917.09,1.439-.1,1.665-.083,1.665.139s.308.251,2.125.222l2.125-.035-.028-3.889c-.015-2.139-.071-3.933-.125-3.986s-.1-.01-.1.1a.184.184,0,0,1-.172.194c-.117,0-.115-.107.006-.333.176-.33.126-.333-5.4-.333-3.749,0-5.6.057-5.634.175m12.408.778c.052.774.117.954.333.917s.251.055.193.375c-.042.232,0,.421.093.421s.17.113.17.25c0,.225.291.329.75.268.092-.013.024.089-.15.225-.286.224-.291.259-.042.354a.424.424,0,0,1,.276.344c0,.2.068.2.375.038.336-.179.352-.172.153.069-.26.314.09,1.235.441,1.161.109-.023.207.071.218.208a.907.907,0,0,0,.334.8c.15.149.319.225.375.168s.1.15.1.458c0,.437.044.517.2.361a.652.652,0,0,1,.375-.2c.1,0,.063.073-.074.16-.272.172.139,1.1.614,1.389a.24.24,0,0,1,.111.32c-.075.121-.015.147.172.075.17-.065.244-.043.184.055s0,.166.116.168c.159,0,.15.046-.032.164-.215.139-.137.227.175.2.051,0,.183.136.294.314.133.214.141.322.023.322-.1,0-.131.076-.073.169a.207.207,0,0,0,.288.056c.118-.073.145-.014.077.164-.08.207-.013.278.263.28s.308.042.148.144-.158.165.078.256c.256.1.265.139.056.271-.166.1-.178.156-.037.157a.236.236,0,0,1,.208.253c0,.147.154.251.375.253.267,0,.312.042.155.142-.179.114-.172.189.041.4a.866.866,0,0,1,.263.441c0,.1.056.179.126.179s.229.232.354.517c.148.333.272.446.351.319.121-.195.34.267.4.83a.207.207,0,0,0,.226.211c.123-.024.162.065.1.227-.081.21-.028.244.242.158.189-.06.392-.032.45.062s.006.133-.131.081c-.178-.069-.217.015-.156.335.045.234.148.426.229.426s.147.108.147.239.148.286.33.344.32.156.307.219c-.042.213.317.948.463.948.079,0,.12.15.089.334s0,.283.059.222c.189-.186.752.41.752.8a.508.508,0,0,0,.25.458.409.409,0,0,1,.25.349c0,.234.262.623.8,1.192.121.128.163.232.093.232s0,.093.153.208c.3.221.539,18.366.242,18.183-.069-.043-.125,0-.125.089a.392.392,0,0,0,.184.281c.129.079.116.157-.042.257-.174.111-.157.144.076.146.166,0,.258.072.206.156-.155.252,6.327.234,6.731-.019.328-.205.335-.383.342-9.519.006-8.007.042-9.346.255-9.559a.848.848,0,0,0,.248-.485c0-.131.079-.238.176-.238s.135-.067.084-.15.02-.192.157-.244a.467.467,0,0,0,.249-.417.466.466,0,0,1,.25-.416.41.41,0,0,0,.25-.351c0-.141.075-.256.167-.256s.167-.1.167-.232a.379.379,0,0,1,.235-.322,1.362,1.362,0,0,0,.45-.685c.118-.327.284-.594.369-.594s.066-.1-.04-.232c-.152-.184-.135-.228.082-.209a.579.579,0,0,0,.464-.3,5.156,5.156,0,0,1,.481-.656,1.185,1.185,0,0,0,.292-.634.28.28,0,0,1,.25-.3c.142,0,.25-.15.25-.346a.971.971,0,0,1,.252-.6c.138-.139.209-.32.158-.4s.022-.107.165-.052c.183.07.258,0,.258-.252,0-.193.075-.351.167-.351s.167-.113.167-.25.083-.25.184-.25.141-.113.089-.25-.024-.25.065-.25.163-.132.164-.292c0-.249.026-.255.164-.042s.162.208.164-.041c0-.161.07-.292.151-.292.183,0,.154-.546-.037-.685-.076-.056-.016-.149.134-.207s.23-.036.17.061-.031.164.056.164c.263,0,.731-.847.646-1.17-.059-.228,0-.288.24-.242.175.034.278,0,.228-.085a.18.18,0,0,1,.068-.244,2.309,2.309,0,0,0,.6-1.425l0-.417-4.373-.048c-4.694-.052-5.206.017-4.862.658.145.273.14.319-.027.216s-.181-.044-.1.188c.1.3.1.3-.159-.014-.27-.331-.271-.331-.189.021.066.281.02.337-.229.272-.23-.061-.312.008-.312.261a.588.588,0,0,1-.169.448.191.191,0,0,0-.074.26c.053.085-.025.155-.174.155s-.225.072-.17.16-.056.316-.246.506-.3.418-.247.506-.017.161-.16.161-.26.143-.26.333-.111.334-.25.334-.25.083-.25.184.121.138.274.08c.224-.086.237-.061.071.139a.439.439,0,0,1-.447.15c-.186-.072-.227.007-.17.323.063.346.021.4-.243.335a.444.444,0,0,1-.318-.4A.587.587,0,0,0,202.75,55c-.416-.158-.485-.305-.421-.9.024-.226-.042-.287-.231-.214-.171.065-.265.011-.265-.153s-.079-.206-.193-.135c-.132.082-.163,0-.1-.248a.453.453,0,0,0-.207-.556c-.166-.1-.264-.289-.217-.411.059-.156,0-.188-.211-.109s-.258.053-.175-.082a.427.427,0,0,0-.139-.457.89.89,0,0,1-.261-.5c0-.135-.162-.239-.375-.241s-.3-.057-.2-.125c.3-.212.175-.624-.176-.585-.182.02-.236,0-.122-.056.322-.143.255-.321-.359-.954-.313-.322-.52-.634-.46-.694s-.024-.182-.186-.272-.25-.235-.2-.321-.018-.157-.158-.157-.217-.1-.165-.232-.065-.341-.254-.474-.294-.29-.233-.35.022-.11-.085-.11-.194-.188-.194-.417c0-.266-.094-.417-.26-.417-.143,0-.214-.075-.157-.166s-.014-.167-.157-.167-.26-.142-.26-.331c0-.383-.494-1.025-.694-.9-.074.046-.086-.045-.025-.2.08-.21.05-.25-.111-.15-.142.087-.181.072-.11-.043.061-.1-.1-.406-.349-.683l-.461-.5-4.3-.015-4.3-.016.065.964m31.2-.419c-.075.345-.05.557.07.6.137.045.188,3.233.188,11.725,0,9.283-.043,11.638-.208,11.542-.115-.065-.163-.068-.108-.006s3.292.114,7.192.114c5.958,0,7.106.038,7.182.235a.23.23,0,0,1-.109.307c-.109.04.1.061.468.047a2.572,2.572,0,0,1,1.782.649c.064.089.165.113.225.053.153-.153,1.166.893,1.538,1.587.351.655.382,2.9.043,3.112a.287.287,0,0,0-.139.293c.083.29-1.752,1.894-1.9,1.66-.09-.141-.128-.122-.13.064a.282.282,0,0,1-.211.288,5.079,5.079,0,0,0-1.125.236c-.839.331-1.334.428-1.426.28a14.869,14.869,0,0,0-3.18-.144l-3.079.019-.157.414a55.933,55.933,0,0,0-.053,7.518c.11.411,7.4.617,7.4.208,0-.092.154-.167.343-.167s.3-.062.258-.139.023-.138.156-.138.243.062.243.138a.161.161,0,0,0,.177.139c.1,0,.122-.086.057-.192-.082-.133-.046-.146.115-.042.37.238,1.519.232,1.427-.008-.075-.195.007-.229.724-.3.183-.018.333-.091.333-.163s.08-.131.177-.131.13.075.073.167.047.166.231.166a.581.581,0,0,0,.452-.192c.079-.127.045-.147-.1-.058s-.178.07-.093-.068c.069-.112.168-.162.219-.111s.208,0,.349-.114c.2-.165.23-.165.13,0-.08.133-.025.208.153.208.157,0,.242-.093.195-.213-.054-.141.068-.212.358-.209.264,0,.422-.078.4-.2s.1-.208.279-.208a1.981,1.981,0,0,0,.909-.688c.328-.383.686-.65.81-.6.308.118,1.016-.485.862-.734-.084-.136-.035-.166.154-.093s.278.022.278-.121a.408.408,0,0,1,.267-.329.271.271,0,0,0,.172-.351c-.058-.151,0-.249.149-.249s.245-.08.245-.179a.833.833,0,0,1,.252-.43c.138-.138.208-.32.156-.4s-.007-.154.1-.154.15-.116.1-.258c-.064-.168-.032-.217.092-.141s.161,0,.1-.244a.664.664,0,0,1,.141-.6,1.741,1.741,0,0,0,.235-1c0-.46.083-.8.208-.847.359-.138.291-5.553-.072-5.757-.188-.105-.255-.3-.2-.585.06-.333,0-.45-.276-.522-.194-.05-.28-.138-.19-.194.227-.142-.277-1.352-.564-1.352-.144,0-.188-.1-.12-.279.083-.216.04-.253-.191-.164s-.272.049-.2-.137c.063-.165-.075-.339-.4-.509-.294-.152-.452-.335-.383-.446s.019-.151-.168-.079c-.207.079-.271.032-.236-.176a.232.232,0,0,0-.2-.3c-.138-.006-.232-.1-.209-.212s-.07-.2-.208-.2-.25-.075-.25-.166-.1-.167-.234-.167c-.154,0-.2-.117-.146-.34.049-.187.126-.3.171-.258s.2-.034.339-.175c.2-.2.212-.285.046-.388-.136-.084-.056-.131.222-.131.457,0,.935-.3.935-.584a2.262,2.262,0,0,1,.584-.718,1.9,1.9,0,0,0,.583-.823.879.879,0,0,1,.25-.523A.935.935,0,0,0,242.5,59a.539.539,0,0,1,.167-.415.365.365,0,0,0,.166-.269c0-.092-.075-.121-.166-.064s-.167.028-.167-.064a.343.343,0,0,1,.152-.26c.083-.052.131-.286.105-.52a.889.889,0,0,1,.169-.641,15.466,15.466,0,0,0,.1-4.6c-.067,0-.207-.225-.31-.5s-.127-.5-.052-.5.117-.094.09-.209l-.175-.764a1.037,1.037,0,0,0-.355-.643.453.453,0,0,1-.226-.407.467.467,0,0,0-.249-.417c-.137-.052-.208-.162-.158-.243a.53.53,0,0,0-.079-.441c-.094-.161-.18-.218-.192-.126s-.076-.021-.142-.25-.231-.409-.366-.4-.258-.13-.271-.311c-.031-.4-.531-.984-.736-.857-.082.05-.128,0-.1-.119s-.209-.335-.521-.487a2.547,2.547,0,0,1-.78-.568c-.118-.161-.295-.243-.393-.182s-.224-.007-.279-.15a.462.462,0,0,0-.407-.261.584.584,0,0,1-.461-.275.414.414,0,0,0-.509-.182c-.237.062-.354.015-.354-.142a.212.212,0,0,0-.177-.234c-.1,0-.135.067-.084.149s-.017.191-.151.243a.3.3,0,0,1-.358-.092c-.07-.112-.039-.138.078-.066s.192.045.192-.045c0-.311-.918-.609-1.862-.606-.545,0-.933-.068-.916-.165a66.87,66.87,0,0,0-7.667-.21l-7.695-.042-.118.535m28.536-.423c-.29.29-.115,41.1.176,40.863.172-.14.231-.149.157-.024-.3.5.578.552,9.148.51l8.608-.044L263.852,80l-.014-4.083-5.253-.044-5.252-.044v-8.5l5.125-.019c2.819-.011,5.2-.012,5.292,0a19.3,19.3,0,0,0,.167-4.022,23.454,23.454,0,0,0-.167-4.161c-.092-.068-2.473-.124-5.292-.125l-5.125,0V50.479l5.292.052,5.292.052V42.677l-9.012-.008c-4.956,0-9.063.045-9.127.109M268.4,43.1c-.078.309-.146.367-.244.209a.267.267,0,0,1,.064-.365c.129-.094.092-.11-.106-.046a2.613,2.613,0,0,1-.364.1c-.1,0-.1,7.1,0,7.351.074.194,1.133.224,6.507.182,5.2-.04,6.409-.009,6.373.167-.031.152.189.22.743.228a3.273,3.273,0,0,1,1.218.242c.361.193.491.194.8.008.2-.122.311-.165.246-.1-.133.143.18.828.316.692.184-.184,1.382,1.317,1.384,1.733a1.012,1.012,0,0,0,.18.6,2.727,2.727,0,0,1,.036,2.057.539.539,0,0,0-.051.659c.142.264.131.314-.053.243-.144-.055-.366.138-.582.5-.192.326-.427.593-.522.593s-.172.112-.172.25c0,.155-.158.25-.417.25-.229,0-.417.075-.417.166s-.117.167-.261.167a1.506,1.506,0,0,0-.579.171,71.063,71.063,0,0,1-7.364.171c-3.875,0-7.138.058-7.251.129-.3.189-.223,24.3.08,24.237.115-.023.209.071.209.209s.079.25.176.25.124-.094.059-.209c-.094-.166-.073-.166.107,0,.362.337,6.348.3,6.218-.041-.067-.175.013-.25.265-.25.2,0,.32-.067.269-.15s.02-.192.157-.244c.216-.083.249-1.115.249-7.768V67.833h1.583c1,0,1.583.065,1.583.177s.087.123.193.057c.125-.077.147-.045.062.093a.237.237,0,0,0,.066.332.7.7,0,0,1,.223.485c.016.2.109.333.208.3s.174.12.165.371a1.535,1.535,0,0,0,.275.826.832.832,0,0,1,.2.625c-.051.132-.009.239.093.239s.184.182.184.4.071.428.157.458.194.263.239.515a1.578,1.578,0,0,0,.336.714.538.538,0,0,1,.157.505c-.061.159-.012.234.132.2s.212.077.179.312a.524.524,0,0,0,.128.469.2.2,0,0,1,.082.265c-.053.086-.017.155.08.155s.177.159.177.353a1.641,1.641,0,0,0,.541.858c.3.278.409.408.246.29s-.348-.163-.412-.1-.034.169.067.232a1.326,1.326,0,0,1,.3.659c.065.3.187.5.271.449s.153.135.153.415.075.51.167.51.167.152.167.339a.483.483,0,0,0,.25.434.619.619,0,0,1,.25.558c0,.493.352.914.593.709.08-.068.036.02-.1.195-.188.245-.2.335-.036.389.115.039.208.249.208.468,0,.3.067.372.278.291.186-.071.238-.042.157.089-.067.107-.052.195.033.195s.131.205.1.455c-.107.972.188,1.045,4.214,1.042a32.6,32.6,0,0,0,3.812-.125,2.984,2.984,0,0,0-.006-2.254c-.142-.217-.211-.442-.153-.5s-.092-.2-.333-.306c-.434-.2-.593-.479-.271-.479.091,0,.166-.15.166-.333s-.108-.334-.24-.334c-.152,0-.217-.124-.175-.337.035-.186-.007-.294-.093-.241s-.158-.089-.158-.319a.712.712,0,0,0-.17-.521.192.192,0,0,1-.073-.26c.053-.085.016-.155-.081-.155s-.176-.178-.176-.4a.885.885,0,0,0-.25-.6.691.691,0,0,1-.25-.437.237.237,0,0,0-.241-.23c-.152,0-.216-.124-.175-.341.111-.573-.076-.87-.4-.629-.229.172-.24.167-.064-.029.342-.384.238-.933-.283-1.491a1.145,1.145,0,0,1-.428-1.025c.056-.445.024-.489-.3-.4-.2.056-.287.041-.192-.034a.424.424,0,0,0,.146-.344c-.015-.115-.036-.284-.047-.375a.238.238,0,0,0-.248-.167c-.151,0-.2-.137-.15-.406.068-.352.029-.392-.3-.307-.295.077-.345.048-.23-.136.263-.422.249-.857-.034-1.064-.153-.112-.228-.283-.168-.382s0-.291-.141-.43a.953.953,0,0,1-.251-.579.479.479,0,0,0-.262-.427c-.174-.067-.226-.213-.155-.435.063-.2.03-.334-.082-.334s-.146-.067-.1-.149-.019-.192-.154-.244a.264.264,0,0,1-.149-.35c.054-.14.169-.211.256-.158.2.123,1.307-.392,1.307-.607,0-.087.113-.159.25-.159s.25-.063.25-.14.258-.279.574-.449a1.438,1.438,0,0,0,.665-.675.739.739,0,0,1,.376-.474c.25-.1.247-.069-.025.231-.172.191-.223.341-.115.341s.192-.061.192-.136a1.383,1.383,0,0,1,.34-.5c.22-.236.264-.367.125-.371-.118,0-.009-.119.243-.255.533-.289.558-.379.183-.653-.218-.159-.23-.229-.057-.336.144-.089.177-.069.1.058-.066.106-.04.193.057.193a.178.178,0,0,0,.177-.177c0-.1.08-.127.178-.066s.219-.048.269-.241.166-.35.257-.35.12-.179.065-.4c-.068-.27-.02-.43.149-.495a.626.626,0,0,0,.248-.563,1.669,1.669,0,0,1,.241-.813,2.378,2.378,0,0,0,.222-1.209c-.011-.475-.067-.789-.124-.7s-.1-.128-.1-.491c.006-.491.073-.651.258-.623.349.055.451-1.736.118-2.069-.161-.161-.227-.627-.216-1.526.011-.98-.045-1.332-.234-1.448-.158-.1-.229-.345-.194-.68s-.006-.487-.126-.413c-.166.1-.269-.449-.193-1.033.014-.115-.089-.208-.231-.208-.163,0-.257-.152-.257-.417,0-.32-.087-.417-.375-.419-.306,0-.329-.033-.125-.17s.213-.195-.042-.391c-.16-.123-.291-.271-.291-.328,0-.211-.564-.756-.7-.674-.075.047-.137,0-.137-.1,0-.246-.279-.51-1.011-.958a4.931,4.931,0,0,1-.9-.7c-.307-.338-.694-.477-.512-.183a.212.212,0,0,1-.1.276c-.122.075-.15.048-.076-.072s.042-.193-.052-.193-.127-.115-.073-.257c.077-.2,0-.24-.338-.177-.313.056-.438.008-.438-.171s-.1-.218-.319-.149a.393.393,0,0,1-.426-.072.557.557,0,0,0-.431-.174c-.178,0-.324-.072-.324-.161,0-.2-1.142-.181-1.544.025-.161.083-.284.091-.272.018.091-.539.035-.543-7.515-.541h-7.5l-.107.428m-89.855,6.848a2.359,2.359,0,0,1-.75,0c-.207-.04-.038-.072.375-.072s.581.032.375.072m50.258.006c-.706.031-1.906.031-2.667,0s-.183-.056,1.284-.056,2.089.025,1.383.056m151.577-.006a3.008,3.008,0,0,1-.833,0c-.253-.038-.086-.071.373-.072s.665.03.46.07m.348.46c.112.292,1.714.305,2.1.018.175-.13.209-.128.126.01-.168.282.245.547.763.49.249-.027.454.019.454.1s.075.107.166.05.167-.015.167.093.16.166.394.121c.317-.061.378-.016.314.23-.059.224.012.306.263.306a.586.586,0,0,1,.446.167.51.51,0,0,0,.4.167,1.6,1.6,0,0,1,.781.583,1.6,1.6,0,0,0,.779.583.275.275,0,0,1,.293.25.25.25,0,0,0,.25.25c.137,0,.25.075.25.167s.112.167.25.167.234.056.214.125a2.448,2.448,0,0,0,.715,1.221,1.1,1.1,0,0,1,.321.487c0,.092.137.167.3.167.209,0,.3.118.291.375s.077.368.277.352c.178-.014.244.05.171.166-.183.293-.2.607-.03.607.084,0,.152.118.152.262,0,.262.407.776.522.66a2.08,2.08,0,0,1,.036.752c-.016.524.041.8.162.779s.172.563.137,2.005c-.036,1.5,0,2.042.151,2.042s.15.059-.008.25-.163.25.022.252.192.026,0,.146a.407.407,0,0,0-.113.5c.077.245.031.387-.149.456s-.262.306-.262.665c0,.34-.083.567-.208.569s-.125.056.042.164c.21.136.2.162-.062.164s-.279.043-.1.262.171.248.005.208c-.352-.085-.646.51-.346.7.2.129.177.16-.125.162-.266,0-.375.1-.375.344a1.221,1.221,0,0,1-.4.709,1.668,1.668,0,0,0-.458.667c-.034.165-.105.278-.157.25-.123-.065-.655.464-.655.651,0,.078-.146.247-.324.375s-.286.3-.238.374.025.13-.051.117c-.365-.063-.553.042-.551.307s.026.256.164.042c.1-.157.163-.175.164-.048,0,.112-.156.288-.351.392-.286.153-.328.146-.221-.036.073-.123-.018-.093-.2.067a1.165,1.165,0,0,1-.529.292.183.183,0,0,0-.2.166c0,.092-.113.167-.25.167s-.25.075-.25.167-.338.258-.75.368-.75.3-.75.416c0,.224-.159.274-.792.247-.206-.009-.375.08-.375.2,0,.144-.169.188-.518.137-.291-.043-.571.008-.637.115a9.289,9.289,0,0,1-3.632.3.219.219,0,0,0-.3.06c-.076.124-.18.119-.342-.016a.531.531,0,0,0-.469-.1.677.677,0,0,1-.544-.143,1.694,1.694,0,0,0-.85-.239c-.3,0-.541-.08-.541-.172s-.188-.166-.417-.166-.417-.057-.418-.125c0-.194-.986-.709-1.355-.709-.182,0-.287-.069-.235-.153.106-.172-.717-.882-.9-.771-.063.039-.253-.187-.423-.5-.194-.36-.433-.573-.644-.573-.184,0-.287-.047-.229-.105.173-.173-.208-.728-.5-.728-.15,0-.226-.046-.169-.1s-.006-.213-.14-.347-.207-.3-.161-.378c.128-.208-.379-.554-.656-.448a.308.308,0,0,1-.361-.09c-.069-.112-.039-.139.078-.067.291.181.238-.509-.077-.99-.148-.225-.2-.413-.125-.416s.017-.1-.138-.219a1.228,1.228,0,0,1-.353-.7c-.04-.269-.143-.475-.23-.457s-.125-.19-.085-.46a1.107,1.107,0,0,0-.132-.738c-.3-.358-.31-5.393-.013-5.576a.4.4,0,0,0,.109-.464.5.5,0,0,1,.138-.531,1.024,1.024,0,0,0,.227-.715.907.907,0,0,1,.262-.716A.647.647,0,0,0,369,57.19a.192.192,0,0,1,.194-.19c.107,0,.145-.05.083-.111s.009-.245.156-.407c.267-.295.18-.738-.111-.558-.086.053-.155.016-.155-.081,0-.225.216-.227.44,0,.121.121.246.086.408-.115.129-.159.146-.236.038-.171a.222.222,0,0,1-.3-.055c-.059-.1-.045-.163.03-.15.4.069.721-.042.721-.248a.4.4,0,0,1,.25-.328.494.494,0,0,0,.25-.443c0-.236.16-.4.5-.522.275-.1.5-.242.5-.324a.174.174,0,0,1,.189-.151,2.118,2.118,0,0,0,.978-1.008.169.169,0,0,1,.178-.158.813.813,0,0,0,.422-.243.517.517,0,0,1,.488-.149c.153.059.245-.007.245-.174a.289.289,0,0,1,.313-.268.745.745,0,0,0,.506-.232.56.56,0,0,1,.528-.146.512.512,0,0,0,.552-.209c.124-.169.3-.244.416-.174a.4.4,0,0,0,.427-.066c.171-.141.258-.14.347,0s.158.131.263-.034.144-.171.145-.018c0,.275.484.255,1-.041.558-.319,1.6-.322,1.725-.006m-149.716.349a.968.968,0,0,0,.728.233c.807-.042.958-.007.831.2-.083.135.016.157.338.077.276-.07.416-.052.356.045-.107.174.1.418.794.935.244.182.444.426.444.542a.193.193,0,0,0,.167.21c.091,0,.166.115.166.256a1.614,1.614,0,0,0,.27.667c.148.225.213.41.146.41s-.03.113.084.25c.144.173.15.25.021.25-.1,0-.187.113-.187.25s.075.25.166.25a.173.173,0,0,1,.167.177c0,.1-.062.138-.139.091s-.151,0-.165.115-.051.38-.082.6a1.015,1.015,0,0,1-.335.6.656.656,0,0,0-.279.394.184.184,0,0,1-.177.19c-.1,0-.13.075-.073.167s-.016.166-.162.166a.418.418,0,0,0-.361.249c-.052.137-.156.212-.231.166s-.249.029-.387.167a1.121,1.121,0,0,1-.69.252c-.241,0-.4.069-.343.154.146.237-.39.266-3.951.214l-3.292-.048V50.675l2.792-.05c1.535-.028,2.876-.067,2.98-.088a.54.54,0,0,1,.4.223M94.479,52.449c-.131.16-.144.231-.032.164a.222.222,0,0,1,.3.055c.059.1.045.154-.03.129a1,1,0,0,0-.527.23l-.39.275.033,8.39c.031,8.2.02,8.706-.2,9.066a15.631,15.631,0,0,0,.1,4.287c.123.086.074.211-.15.382a1.854,1.854,0,0,0-.192,1.9c.15.187.145.211-.023.11-.358-.215-.729.229-.617.738.068.31.024.481-.14.544-.245.094-.3,1.034-.076,1.38.07.109-.028.174-.252.166-.291-.009-.37.086-.383.463a.848.848,0,0,1-.233.608.338.338,0,0,0-.115.4.344.344,0,0,1-.183.421c-.155.087-.232.209-.17.271a.3.3,0,0,0,.332-.024c.262-.164.908-.28.766-.138a.759.759,0,0,1-.323.145c-.556.113-.807.327-.807.687a.662.662,0,0,1-.165.491c-.1.061-.12-.014-.055-.184.077-.2.049-.248-.1-.159a.845.845,0,0,0-.159.671,1.047,1.047,0,0,1-.239.828.958.958,0,0,0-.285.45c0,.091-.087.111-.193.046-.137-.085-.163.028-.091.392s.033.537-.14.6a.411.411,0,0,0-.243.358c0,.146-.075.219-.167.162s-.166.042-.166.22a.784.784,0,0,1-.249.529.668.668,0,0,0-.165.645c.045.242.038.346-.016.231a.348.348,0,0,0-.258-.208c-.088,0-.148.093-.133.208.067.521-.018.874-.159.653-.112-.177-.162-.166-.248.056a.581.581,0,0,0-.013.431c.052.083-.023.152-.166.152a.256.256,0,0,0-.26.25c0,.137-.075.25-.167.25s-.166.1-.166.232a.413.413,0,0,1-.269.335.33.33,0,0,0-.183.435c.048.182.014.331-.076.331-.235,0-.642.441-.52.563.057.057.016.1-.091.1s-.2.131-.2.291a1.565,1.565,0,0,1-.873,1.1c-.161.056-.284.161-.272.232.057.346-.037.555-.2.452-.123-.076-.148,0-.074.232.091.288.049.335-.247.278s-.32-.024-.166.161.122.212-.178.134-.355-.041-.279.251c.057.217.02.322-.1.28s-.333.132-.509.374-.221.378-.1.3q.22-.136.1.056a.47.47,0,0,1-.36.192c-.132,0-.24.079-.24.177s-.093.12-.208.051c-.142-.085-.135-.035.02.157.169.208.176.282.026.282a1.662,1.662,0,0,0-.671.5,1.716,1.716,0,0,1-.653.5c-.117,0-.149.172-.087.458.072.331.054.393-.065.222-.134-.191-.3-.1-.877.482l-.712.719.382.309c.268.217.308.31.132.31a.409.409,0,0,1-.347-.25c-.159-.414-.649-.315-.516.1.073.231.05.316-.065.245-.229-.142-1.047.564-.911.785.061.1.02.115-.1.042-.248-.154-.883.383-.736.622.063.1.023.119-.1.044s-.236,0-.292.213-.181.3-.322.249c-.239-.092-.336.194-.109.321.069.039.037.05-.07.024-.313-.073-.824.488-.774.851.026.183,0,.239-.048.125-.156-.346-.445-.234-.349.134.075.287.049.31-.156.139s-.262-.139-.339.156c-.051.2-.142.329-.2.292-.187-.115-.634.3-.765.717-.086.272-.068.36.059.281.1-.063.185-.036.185.058s-.2.132-.5.073c-.275-.055-.5-.035-.5.046,0,.265-.749,1.021-1.073,1.084-.176.034-.287.124-.248.2s-.1.231-.315.345a1.636,1.636,0,0,0-.587.612.9.9,0,0,1-.572.458c-.339.048-.39.117-.361.488,0,.069-.164.168-.375.22-.227.056-.375.21-.362.375a.236.236,0,0,1-.208.28c-.128,0-.232.075-.232.167a.116.116,0,0,1-.148.125c-.082-.023-.307.138-.5.359s-.352.305-.352.181-.206.046-.458.369a3.091,3.091,0,0,1-.933.8c-.262.116-.412.257-.334.314a.634.634,0,0,1,.166.4c.019.232-.026.256-.2.111-.276-.229-.572-.07-.576.31,0,.215-.035.23-.141.062-.217-.342-.532.593-.482,1.428l.043.708h.7a1.519,1.519,0,0,0,.958-.262c.144-.144.262-.209.262-.146s.112.023.248-.09.207-.273.157-.355.044-.2.21-.257c.445-.158.891-.579.788-.745-.049-.08.025-.145.165-.145a.591.591,0,0,0,.426-.322,1.077,1.077,0,0,1,.541-.439,1.731,1.731,0,0,0,.681-.513c.171-.217.38-.353.464-.3s.154.016.154-.081a.2.2,0,0,0-.209-.18c-.143,0-.132-.05.034-.155a.429.429,0,0,1,.376-.07c.165.1.632-.344.632-.6,0-.1.071-.145.158-.091.16.1.61-.553.544-.786-.019-.069.021-.116.09-.106.332.053.551-.036.458-.186-.057-.092.022-.167.175-.167.174,0,.243-.09.185-.241-.066-.17-.013-.211.177-.138s.244.033.171-.156-.018-.239.221-.176c.223.058.321,0,.321-.2,0-.153.075-.233.167-.176.148.092.237-.122.188-.452-.01-.066.087-.079.215-.03s.647-.322,1.251-.923a5.687,5.687,0,0,1,1.2-1.012c.1,0,.138-.112.085-.25s0-.25.149-.25.245-.075.245-.166.112-.167.25-.167c.331,0,.316-.16-.042-.449-.261-.212-.251-.217.1-.048s.4.142.477-.155c.05-.189.157-.3.239-.252s.261-.02.4-.157c.262-.262.341-.516.118-.378-.072.045-.131-.062-.131-.238,0-.209.056-.262.164-.154.215.215.481.213.348,0-.057-.092.063-.167.268-.167s.327-.044.273-.1c-.12-.12.385-.64.763-.786a.434.434,0,0,0,.279-.357.156.156,0,0,1,.228-.162c.2.075.459-.25.508-.626.027-.211.264-.36.264-.166,0,.44.79-.66,1.058-1.473.064-.193.085-.184.1.042.02.455.346.342.346-.12,0-.282.073-.383.231-.322s.314-.1.45-.4c.143-.324.3-.46.464-.4s.216.016.141-.179a.332.332,0,0,1,.08-.388c.112-.069.139-.039.067.078s-.04.192.057.192a.178.178,0,0,0,.177-.178A.937.937,0,0,1,85.321,97c.1,0,.179-.112.179-.25s.083-.25.184-.25.142-.112.089-.25c-.059-.155,0-.25.158-.25.139,0,.331-.225.427-.5s.289-.5.429-.5c.2,0,.212-.051.061-.232s-.136-.228.075-.209c.159.014.429-.271.66-.7a5.749,5.749,0,0,1,.514-.833c.068-.061.062,0-.013.124-.1.164-.073.195.073.1a.553.553,0,0,0,.132-.527c-.062-.322-.033-.362.151-.21s.227.114.227-.165c0-.195.093-.335.208-.312s.232-.164.263-.436a.589.589,0,0,1,.375-.561.449.449,0,0,0,.32-.481c0-.254.1-.4.269-.4.207,0,.253-.13.2-.576-.048-.405-.013-.53.116-.422.218.181.825-.742.662-1.007-.058-.094-.006-.15.115-.124a.209.209,0,0,0,.243-.205c.012-.137.031-.348.042-.468s.087-.176.169-.125.135-.124.117-.389c-.022-.31.036-.455.162-.407.21.081.459-.388.322-.608-.045-.074.03-.177.167-.23a.575.575,0,0,0,.249-.517c0-.232.083-.422.186-.422s.147-.147.1-.334-.02-.291.064-.24.151-.024.151-.166.075-.26.166-.26.167-.189.167-.419a1.819,1.819,0,0,1,.153-.709c.629-1.194.865-2.206.514-2.206A.177.177,0,0,1,94,80.147c0-.1.138-.15.306-.106s.305-.009.305-.14-.081-.174-.18-.119-.087,0,.027-.124a.9.9,0,0,0,.209-.53.464.464,0,0,1,.269-.408c.213-.082.249-.253.171-.822s-.052-.7.137-.627.227-.187.188-1.5a3.852,3.852,0,0,1,.122-1.648,20.719,20.719,0,0,0,.227-3.956,25.213,25.213,0,0,1,.219-4,60.729,60.729,0,0,0,.171-6.565l.011-6.466L95.8,52.8c-.21-.185-.364-.4-.341-.485.075-.267-.745-.155-.979.134m-.354,9.926c-.027,1.673-.05.3-.05-3.042s.023-4.714.05-3.041.027,4.41,0,6.083m1.666.5c-.027,1.765-.049.321-.049-3.208s.022-4.973.049-3.209.027,4.652,0,6.417m182.323-3.25c-1.817.027-4.742.027-6.5,0s-.272-.049,3.3-.049,5.013.022,3.2.049M156.785,61.04c-.04.207-.074.077-.076-.29s.03-.536.072-.377a1.834,1.834,0,0,1,0,.667m210.833,2c-.04.207-.074.077-.076-.29s.031-.536.073-.377a1.836,1.836,0,0,1,0,.667m31.5.252c-.042.16-.076.029-.076-.292s.034-.452.076-.292a1.368,1.368,0,0,1,0,.584M156.785,66.04c-.04.207-.074.077-.076-.29s.03-.536.072-.377a1.834,1.834,0,0,1,0,.667M.813,67.984a.257.257,0,0,1,.11.339c-.083.135-.182.141-.328.02-.264-.219-.437-.059-.305.284.066.172.034.22-.095.141S0,69.066,0,70.24c0,1.4.035,1.6.292,1.605S.535,71.878.25,72c-.183.079-.242.149-.13.155.153.009.181.574.113,2.333-.091,2.341.107,3.073.688,2.548.073-.066.064-.007-.019.131C.714,77.477.685,79,.867,79c.073,0,.133.337.133.75s.067.75.148.75.2.262.258.583c.067.362.2.584.361.584.139,0,.21.068.158.152s0,.191.116.237c.166.067.166.087,0,.1a.214.214,0,0,0-.209.2c0,.106.148.147.343.1.247-.064.3-.035.188.106a1.136,1.136,0,0,0,.11,1.1,3.81,3.81,0,0,1,.6,1.508c-.052,0,.024.118.168.262a.9.9,0,0,1,.262.517c0,.151.1.22.234.167.177-.068.215.028.156.4q-.123.783.444.28c.2-.177.2-.165.019.075a.708.708,0,0,0,.234,1.028.263.263,0,0,1,.142.349c-.062.163,0,.256.165.256s.227.092.164.257-.017.237.108.208.23.093.259.265a1.048,1.048,0,0,0,.23.492.773.773,0,0,1,.178.478c0,.165.075.3.167.3s.167.112.167.25a.25.25,0,0,0,.25.25.28.28,0,0,1,.255.292c.006.353.348.831.578.808.092-.009.19.19.219.442s.156.458.29.458.348.268.485.6.325.549.417.492.127,0,.069.154-.016.259.086.259.184.112.184.25c0,.3.194.323.457.059.143-.143.168-.1.1.167-.1.4.1.467.431.149.172-.163.171-.127-.007.167-.232.385-.082.89.271.91.092,0,.275.168.408.362a2.766,2.766,0,0,0,.542.57.716.716,0,0,1,.3.469c0,.137.075.2.167.147s.166-.013.166.1a1.186,1.186,0,0,0,.385.555,2.286,2.286,0,0,1,.5.655c.063.164.191.252.283.195s.17-.006.173.114c.007.276.754,1.135.987,1.135a.177.177,0,0,1,.174.179c0,.379.516.729.7.473.129-.181.143-.162.064.081-.1.309.371.934.7.934.08,0,.229.181.33.4.135.295.277.38.527.314.217-.057.352-.006.368.138.014.126.034.31.045.409.021.2.513.736.678.736.058,0,.051-.087-.014-.193s-.046-.147.066-.078a.306.306,0,0,1,.092.359c-.069.179.035.249.382.258.262.007.382.051.268.1a.332.332,0,0,0-.209.265c0,.1.048.133.106.075s.251.08.429.306a1.043,1.043,0,0,0,.644.411c.177,0,.321.079.321.176s-.093.124-.208.06.067.138.405.449c.855.788,1.114.991,1.238.971.059-.009.235.177.391.415s.333.381.4.319.113.012.113.165.078.278.174.278a1.359,1.359,0,0,1,.561.417,1.278,1.278,0,0,0,.742.416c.2,0,.337.07.314.155s.277.454.667.82.708.585.708.487.132-.029.292.156a1.758,1.758,0,0,0,.667.453c.206.065.375.226.375.357a.245.245,0,0,0,.25.239.242.242,0,0,1,.25.232c0,.283.407.46.754.327.21-.081.217-.146.042-.37-.192-.246-.183-.249.094-.031s.281.26.041.435c-.335.245-.345.473-.015.347.157-.061.25,0,.25.166s.093.228.259.164c.142-.055.218-.034.168.046-.185.3.385.576.681.331.244-.2.26-.185.149.167-.087.271-.068.359.059.28.1-.064.184,0,.184.146,0,.272.012.278.644.343.406.041.73.383.585.617-.045.074.035.133.178.133s.26.075.26.167.188.167.417.167.416.08.416.178c0,.489.952.947,1.224.59.085-.112.1-.064.043.119a.621.621,0,0,0,.739.729c.236-.061.328,0,.328.215a.667.667,0,0,0,.708.528c.069-.014.125.081.125.213s.163.29.362.353a2.252,2.252,0,0,1,.7.428,1.15,1.15,0,0,0,.62.313.442.442,0,0,1,.384.261c.055.143.178.213.272.154s.152-.011.126.1.1.242.276.28a1.314,1.314,0,0,1,.554.3.919.919,0,0,0,.563.232c.182,0,.285.075.228.166s.019.167.167.167.23.065.181.144.115.135.365.126c.344-.013.442.053.4.273-.029.172.056.29.208.29s.258.075.258.167a.164.164,0,0,0,.161.167c.089,0,.12-.132.07-.292s.044-.085.21.167.4.458.514.458.211.071.211.159.282.289.625.449a2.3,2.3,0,0,1,.759.508.492.492,0,0,0,.375.217c.133,0,.241.075.241.167s.142.167.316.167a.465.465,0,0,1,.413.254c.059.155.245.229.476.191.208-.035.284-.031.168.008-.276.094-.094.38.243.38a.889.889,0,0,1,.531.3c.412.463,2.385.987,2.124.564-.052-.084.09-.117.316-.074.275.053.443-.01.512-.191a.415.415,0,0,1,.336-.269c.128,0,.232-.075.232-.166s.158-.167.351-.167c.238,0,.322-.078.259-.242s-.013-.21.148-.148c.133.051.242,0,.242-.1s.075-.148.167-.091.166.023.166-.074a.176.176,0,0,1,.175-.176,1.567,1.567,0,0,0,.6-.459c.236-.252.336-.327.222-.166-.151.211-.155.291-.016.291a.371.371,0,0,0,.288-.25.473.473,0,0,1,.422-.25c.179,0,.284-.067.233-.149s.024-.194.167-.249.21-.18.149-.278-.009-.165.115-.148c.494.067.749-.03,1.3-.5.315-.269.634-.452.708-.406s.135-.027.135-.161c0-.162.112-.215.334-.157.263.069.334,0,.336-.307s.034-.346.166-.145c.115.175.2.194.289.064a1.113,1.113,0,0,1,.5-.3c.207-.065.339-.18.293-.255s.214-.257.58-.4a1.849,1.849,0,0,0,.666-.361c0-.052-.074-.049-.165.007s-.126,0-.079-.121.29-.221.539-.217c.617.008.809-1.636.213-1.825-.188-.059-.341-.178-.341-.264S58.979,117,58.75,117s-.417.075-.417.167-.117.166-.26.166-.211.079-.14.193.045.147-.075.072c-.214-.132-.691.265-.691.575,0,.126-.149.159-.417.092-.421-.106-.594.136-.208.291.114.047-.036.09-.334.1-.359.008-.541.1-.541.257a.156.156,0,0,1-.233.156.31.31,0,0,0-.36.114c-.073.118-.056.161.039.1s.165.006.165.138c0,.183-.054.2-.226.053-.215-.179-.723.1-1.08.6a.66.66,0,0,1-.386.195,1.8,1.8,0,0,0-.712.511c-.259.278-.394.352-.329.18s.073-.291.026-.291a2.4,2.4,0,0,0-.907,1.034c0,.156-.052.146-.179-.034s-.2-.2-.262-.042a.375.375,0,0,1-.328.208.212.212,0,0,0-.194.273.273.273,0,0,1-.243.319c-.161.025-.251-.023-.2-.106s.008-.152-.1-.152-.23.144-.276.32a.319.319,0,0,1-.406.259c-.187-.036-.277.009-.217.107s-.053.211-.245.261-.35.15-.35.222-.293.119-.651.106c-.544-.021-.619-.065-.459-.266.147-.182.146-.212,0-.123a.4.4,0,0,1-.431-.12,1.341,1.341,0,0,0-.639-.3c-.221-.033-.383-.153-.36-.265s-.075-.2-.218-.2-.214-.075-.157-.167-.055-.167-.247-.167a1.282,1.282,0,0,1-.718-.349c-.309-.293-1.2-.764-1.2-.634a1.2,1.2,0,0,1-.389-.169c-.214-.114-.349-.248-.3-.3.165-.164-.4-.584-.652-.486s-.909-.428-.909-.73c0-.092-.15-.167-.333-.167s-.333-.088-.333-.194-.05-.145-.112-.083-.249-.013-.416-.165-.307-.208-.308-.125-.227-.1-.5-.414-.5-.479-.5-.375a.183.183,0,0,1-.176.189c-.1,0-.135-.067-.084-.149.145-.236-.343-.346-.573-.129-.165.155-.168.118-.015-.18s.148-.375-.049-.375a.377.377,0,0,1-.326-.208c-.064-.159-.087-.156-.1.012-.016.277-.513-.176-.513-.469,0-.1-.067-.147-.149-.1s-.192-.02-.245-.157a.484.484,0,0,0-.434-.249c-.186,0-.339-.079-.339-.176s-.069-.134-.154-.081-.2-.056-.262-.24a.491.491,0,0,0-.428-.336c-.177,0-.322-.075-.322-.167s-.15-.166-.334-.166-.333-.105-.333-.233a.4.4,0,0,0-.259-.331c-.169-.065-.217-.032-.139.094.066.106-.073.049-.307-.127s-.409-.358-.388-.4c.062-.129-.465-.582-.7-.6-.491-.04-.555-.077-.44-.262.081-.131.029-.16-.157-.089s-.278.022-.278-.138a.248.248,0,0,0-.25-.245.251.251,0,0,1-.25-.25c0-.137-.079-.25-.176-.25s-.129.094-.071.209c.109.214-.505-.451-.718-.777-.189-.29-.937-.68-.772-.4.072.121-.225-.137-.66-.574s-.856-.755-.935-.706a.189.189,0,0,1-.251-.083.207.207,0,0,0-.287-.06c-.1.061-.134.035-.076-.059s-.056-.311-.253-.484-.3-.208-.22-.08c.093.158.075.2-.055.116a.57.57,0,0,1-.192-.443q0-.322-.344-.323c-.188,0-.3-.075-.24-.167s-.081-.167-.323-.167-.415-.056-.4-.125c.055-.259-.238-.708-.461-.708a.21.21,0,0,1-.232-.177c0-.1-.075-.13-.167-.073s-.167.016-.167-.09c0-.363-1.038-1.2-1.19-.96-.113.177-.138.176-.14,0-.006-.445-.484-.753-.785-.5-.246.2-.253.188-.073-.15.167-.313.158-.375-.056-.375-.141,0-.237-.091-.214-.2s-.071-.208-.208-.216-.232-.105-.209-.216-.014-.182-.083-.159-.133,0-.142-.042c-.067-.333-1.513-1.6-1.678-1.467-.141.111-.169.05-.1-.218.079-.3.043-.35-.2-.258-.219.085-.27.049-.2-.138.053-.139.024-.261-.065-.273l-.314-.041a.6.6,0,0,1-.292-.173c-.081-.088-.052-.1.069-.032.286.165.262-.036-.04-.339-.137-.137-.316-.207-.4-.156s-.139-.037-.126-.194-.071-.288-.186-.29-.208-.06-.208-.129a5.494,5.494,0,0,0-1.5-1.458c-.092,0-.167-.122-.167-.271,0-.226-.042-.235-.259-.055-.143.119-.243.146-.224.062a1.367,1.367,0,0,0-.54-1.033.444.444,0,0,1-.2-.458c.065-.168-.016-.245-.257-.245-.193,0-.339-.057-.325-.125A.668.668,0,0,0,13,95.833c-.179,0-.339-.168-.4-.423-.059-.233-.18-.379-.269-.324s-.161-.025-.161-.177c0-.176-.09-.244-.245-.184a.306.306,0,0,1-.359-.091c-.073-.119-.038-.138.1-.053s.187.055.133-.1a.437.437,0,0,0-.42-.221c-.293.01-.314-.034-.15-.313.146-.249.142-.342-.018-.4a.306.306,0,0,1-.208-.24c0-.267-.483-.672-.665-.559-.1.059-.168-.066-.168-.286a1.681,1.681,0,0,0-.584-.94,1.922,1.922,0,0,1-.588-.828c-.007-.327-.457-.968-.627-.893-.065.028-.156-.085-.2-.25a5.09,5.09,0,0,0-1.031-1.719c-.075,0-.136-.187-.136-.416S6.925,87,6.833,87a.167.167,0,0,0-.166.167.153.153,0,0,1-.134.166c-.073,0-.1-.28-.06-.622.066-.565.047-.6-.2-.393-.152.126-.325.181-.384.122s-.02-.107.087-.107c.242,0,.259-.784.019-.864a.466.466,0,0,1-.22-.36.685.685,0,0,0-.249-.429A.684.684,0,0,1,5.29,84.2c-.017-.224-.089-.3-.2-.207s-.174-.035-.173-.384c0-.295-.081-.513-.184-.494s-.164-.148-.138-.385-.054-.458-.191-.51-.236-.3-.236-.563A.82.82,0,0,0,4,81.083a.544.544,0,0,1-.167-.42.61.61,0,0,0-.3-.48c-.208-.111-.29-.324-.265-.684.023-.338-.032-.5-.157-.449s-.19-.19-.186-.738c.006-.773-.137-1.053-.308-.6-.043.115-.073-.2-.066-.708a4.736,4.736,0,0,0-.117-1.25c-.108-.276-.1-.29.066-.083s.174.093.091-.5a1.757,1.757,0,0,0-.277-.852,7.905,7.905,0,0,1-.187-2.338c-.008-1.228-.044-1.9-.08-1.482a1.993,1.993,0,0,1-.247.917c-.121.112-.148.108-.082-.01a4.149,4.149,0,0,0,.137-1.034c.022-.471.1-.818.176-.771s.138-.111.138-.349c0-.5-.553-1.177-.821-1.011-.1.061-.179-.006-.179-.149a.275.275,0,0,0-.292-.257c-.231,0-.244.033-.062.148m93.3,1.889c-.04.207-.074.077-.076-.29s.031-.536.073-.377a1.836,1.836,0,0,1,0,.667m1.417,3.071a1.013,1.013,0,0,1-.118.389,1,1,0,0,1-.119-.389c-.043-.226.006-.388.119-.388s.162.162.118.388M69.5,94.01c0,.1-.07.133-.156.08-.183-.113-1.46,1.055-1.54,1.407-.073.326-.362.65-.5.566-.063-.039-.438.244-.833.627-.451.437-.6.655-.386.586.325-.107.325-.1.017.135-.173.135-.382.2-.462.155s-.126.009-.1.13-.067.2-.205.167c-.2-.043-.208-.011-.041.158.249.254.28.71.039.561a.191.191,0,0,1-.074-.26c.243-.393-.284-.087-1,.581-.5.47-.745.812-.664.943s.058.163-.05.1c-.33-.2-1.212.439-1.111.808.077.278.06.292-.1.083-.144-.188-.211-.2-.275-.041a.373.373,0,0,1-.321.208c-.142,0-.236.17-.236.427,0,.234-.067.384-.15.333s-.39.133-.684.407a2.212,2.212,0,0,1-.693.5c-.088,0-.118.067-.067.149s-.077.192-.282.245a2.89,2.89,0,0,0-1.305,1.022.231.231,0,0,1-.272.118c-.118-.027-.22.086-.227.25s-.049.21-.094.1c-.055-.135-.208-.087-.481.15-.22.192-.354.424-.3.516s.025.118-.072.058-.4.107-.687.369-.563.431-.626.375-.065.039,0,.212c.094.26.071.28-.127.116s-.27-.148-.379.046a.69.69,0,0,1-.388.3,2.069,2.069,0,0,0-.68.481c-.236.235-.517.4-.625.361s-.195.016-.195.116-.132.186-.292.193-.208.047-.083.1A.325.325,0,0,1,53,108.2c0,.094-.113.128-.25.075-.351-.135-.75.049-.75.346,0,.161-.1.213-.269.147-.2-.076-.241-.032-.166.163.065.171.027.238-.107.189a.257.257,0,0,1-.157-.292c.041-.172,0-.174-.195-.011s-.231.146-.15-.165c.066-.254.036-.332-.1-.25-.107.066-.193.032-.193-.075s-.112-.151-.248-.1-.231.01-.209-.1-.129-.224-.335-.256-.375-.135-.375-.23-.11-.13-.245-.079-.282.034-.327-.04a1.468,1.468,0,0,0-.832-.02c-.411.063-.71.051-.662-.026s.006-.139-.091-.139a.17.17,0,0,0-.176.162c0,.089-.1.122-.229.074a.261.261,0,0,0-.327.169.267.267,0,0,1-.382.148c-.192-.074-.245-.046-.163.086s-.007.195-.241.195c-.252,0-.332.075-.265.25.06.155,0,.25-.16.25-.329,0-.784.45-.659.652.052.085-.016.265-.152.4-.217.218-.218.259,0,.342a.368.368,0,0,1,.245.287c0,.137-.061.141-.212.015-.236-.2-.311,2-.076,2.237a.719.719,0,0,1,.122.427c0,.168.079.305.176.305s.123-.086.058-.192-.046-.147.076-.072a.216.216,0,0,1,.091.289c-.114.185.478.809.768.809.1,0,.139.072.084.161s.09.21.323.269.424.173.424.254a.165.165,0,0,0,.176.149c.1,0,.12-.094.052-.208-.1-.159-.069-.165.115-.023.316.244,2.49.308,2.49.073,0-.1.15-.175.333-.175s.334-.08.334-.177.087-.122.195-.056c.133.083.159.027.081-.175s-.047-.271.114-.209c.289.111.829-.506.711-.814-.049-.127-.036-.224.03-.214.308.046.535-.038.535-.2,0-.1-.069-.133-.155-.08a.194.194,0,0,1-.262-.078c-.059-.1-.019-.153.088-.127s.226-.2.265-.538a1.353,1.353,0,0,1,.426-.854c.23-.174.319-.37.25-.55s-.04-.238.057-.178a.438.438,0,0,1,.165.342c0,.132.075.24.166.24s.167-.108.167-.24a.468.468,0,0,1,.192-.359c.127-.078.151-.039.071.115-.066.129-.013.1.118-.058a.772.772,0,0,1,.452-.291,1.3,1.3,0,0,0,.6-.417,1.266,1.266,0,0,1,.654-.417c.147,0,.222-.075.165-.166s.06-.167.26-.167c.272,0,.342-.078.281-.312s-.01-.294.23-.231c.172.045.312,0,.312-.1a.205.205,0,0,1,.22-.186c.24,0,.967-.758.844-.881-.041-.041.115-.039.347,0,.248.048.423,0,.423-.105s.112-.186.25-.186.25-.073.25-.161-.132-.121-.292-.07c-.255.08-.252.059.025-.167.173-.142.366-.227.428-.189s.214-.073.339-.246.3-.27.392-.214.122-.009.065-.157c-.072-.188-.017-.237.2-.179a.409.409,0,0,0,.43-.128c.082-.133.059-.165-.063-.089s-.155.025-.089-.146c.08-.208.15-.221.341-.063.148.123.22.131.188.021s-.007-.167.046-.154.3-.2.556-.475.4-.387.329-.25c-.111.215-.089.218.151.023.154-.125.238-.3.186-.379s-.032-.141.044-.128c.391.068.581-.039.49-.274-.054-.143-.033-.218.048-.168s.191-.021.243-.158a.446.446,0,0,1,.394-.249c.329,0,.778-.592.63-.831-.051-.084.059-.122.245-.087s.337,0,.337-.08.156-.2.346-.256.309-.2.258-.336,0-.194.155-.134.241-.011.241-.185c0-.152.075-.231.167-.174.155.1.242-.138.18-.479-.015-.08.092-.1.239-.044s.222.033.163-.063.1-.241.342-.334c.29-.11.411-.253.349-.414-.052-.135-.041-.238.025-.228.463.069.728-.047.638-.28-.054-.143-.033-.218.048-.168s.193-.026.247-.169.162-.221.238-.174c.157.1.7-.478.7-.742,0-.1.075-.129.166-.072s.167-.014.167-.157.08-.26.179-.26c.246,0,.662-.437.535-.563-.056-.057.005-.1.138-.1a.947.947,0,0,0,.722-1.053c-.107-.36-.1-.36.153-.031.235.3.263.3.268.042a.289.289,0,0,1,.275-.292c.214,0,.23-.049.076-.235-.134-.161-.14-.269-.021-.343.217-.134.233-.922.018-.922a.34.34,0,0,0-.252.155c-.059.094-.3.094-.634,0-.7-.2-.957-.195-.957.022M48.125,109.448c-.507.133-.316.385.292.385.32,0,.583.083.583.185s.112.141.25.088c.189-.072.253.035.263.441.007.3.051.443.1.328.138-.342.315-.237.352.208.019.23-.042.417-.136.417s-.218.126-.277.279a1.447,1.447,0,0,1-2.322.6c-.255-.255-.533-.441-.617-.415s-.107-.123-.05-.333a4.511,4.511,0,0,0,.1-.932c0-.458.085-.579.489-.72a1.071,1.071,0,0,0,.578-.408.4.4,0,0,1,.389-.219c.278.018.278.024.005.1" transform="translate(0 0.042)" fill="#aa2929" fill-rule="evenodd"/>
</svg>
