<svg xmlns="http://www.w3.org/2000/svg" width="247.897" height="251.298" viewBox="0 0 247.897 251.298">
  <path id="Path_791" data-name="Path 791" d="M-129.024,5794.233c39.349-44.673-11.677-75.546-11.677-75.546-16.2,31.318-30.79,37.3-50.6,36.489,9.773-10.384,8.834-29.485-1.386-34.776,113.615-53.346,22.263-63.038-56.764-23.493-38.442,19.236,7.831,24.559,24.147,54.34a222.272,222.272,0,0,0-30.092-1.495c-7.962-.125-17.192,2.485-15.444,9.082-3.316-1.536-14.262,1.871-12.73,10.229a20.551,20.551,0,0,1,19.822-1.235c13.719,11.4,25.7,15.066,37.041,15.32-17.266,27.938-60.437,33.458-22.919,52.232,79.027,39.545,170.378,29.853,56.764-23.493,10.22-5.29,11.268-23.9,1.495-34.288C-173.435,5774.244-154.149,5773.923-129.024,5794.233Z" transform="matrix(0.799, 0.602, -0.602, 0.799, 3752.963, -4359.688)" fill="#fff" opacity="0.8"/>
</svg>
