<svg xmlns="http://www.w3.org/2000/svg" width="265.852" height="171.698" viewBox="0 0 265.852 171.698">
  <g id="Group_317" data-name="Group 317" transform="translate(0)">
    <path id="Path_218" data-name="Path 218" d="M2850.489,1204.58s-58.142,55.545-143.245,103.943C2730.956,1325.737,2954.106,1234.463,2850.489,1204.58Z" transform="translate(-2707.243 -1139.2)" fill="#fff"/>
    <path id="Path_219" data-name="Path 219" d="M2875.814,1222.189s-2.952,36.8-123.461,80.977C2832.26,1305.959,2957.426,1233.071,2875.814,1222.189Z" transform="translate(-2695.186 -1134.493)" fill="#fff"/>
    <path id="Path_220" data-name="Path 220" d="M2901.69,1235.4s-.423,38.183-117.753,67.033C2882.338,1307.03,2950.3,1241.939,2901.69,1235.4Z" transform="translate(-2686.744 -1130.963)" fill="#fff"/>
    <g id="Group_122" data-name="Group 122" transform="translate(161.255)">
      <path id="Path_221" data-name="Path 221" d="M2933.756,1181.179c-12.545-16.4-48.9-34.614-75.424-25.959-33.82,11-31.742,66.921,6.726,64.541l3.7,14.131,12.621-6.914C2924.121,1257.736,2951.1,1203.776,2933.756,1181.179Zm-16.853-3.06a2.888,2.888,0,1,1,.416,5.1A3,3,0,0,1,2916.9,1178.118Zm-12.055-3.665a3.849,3.849,0,1,1,.566,6.8C2902.543,1180.046,2902.62,1175.889,2904.849,1174.453Zm-23.806-9.938a3.851,3.851,0,1,1,.566,6.8C2878.737,1170.108,2878.813,1165.913,2881.042,1164.515Zm-11.524-3.59a2.888,2.888,0,1,1,.416,5.1A3,3,0,0,1,2869.518,1160.924Zm-10.392.793a1.934,1.934,0,1,1,.3,3.439A2.043,2.043,0,0,1,2859.126,1161.718Zm-6.312,38.62c-6.575-4.837-8.161-15.229-3.362-21.8,4.95-6.764,15.455-8.2,21.992-3.326,6.576,4.912,8.087,15.3,3.213,21.841C2869.781,1203.625,2859.391,1205.212,2852.814,1200.337Zm32.65,12.168a12.924,12.924,0,0,1-5.026,7.746c-2.418,1.965-5.366,3.25-8.465,5.555a32.441,32.441,0,0,1-.832-9.334,14.975,14.975,0,0,1,3.25-8.653c2-2.418,5.139-4,7.482-3.4C2884.669,1205.892,2885.955,1209.406,2885.464,1212.505Zm3.892-23.882c-4.534-1.928-4.422-8.54-.87-10.808,3.515-2.229,8.994.492,9.334,4.649C2898.2,1186.659,2893.21,1190.247,2889.356,1188.623Zm33.214,24.94c-4.874,6.574-15.266,8.123-21.84,3.287s-8.163-15.229-3.364-21.842c4.95-6.764,15.455-8.161,21.993-3.287S2927.446,1206.987,2922.57,1213.563Zm4.611-23.656a1.934,1.934,0,1,1,2.645-1.966A2.044,2.044,0,0,1,2927.181,1189.908Z" transform="translate(-2834.487 -1152.99)" fill="#fff"/>
    </g>
  </g>
</svg>
