<svg xmlns="http://www.w3.org/2000/svg" width="2212.174" height="440.67" viewBox="0 0 2212.174 440.67">
  <g id="Group_316" data-name="Group 316" transform="translate(212.603 -4293.961)">
    <path id="Path_704" data-name="Path 704" d="M2558.649,5525.2a130.628,130.628,0,0,1-130.623,130.624H2037.479a135.138,135.138,0,0,1-63.666-254.327,174.07,174.07,0,0,1,297.07-108.725,105.052,105.052,0,0,1,163.088,87.579,106.087,106.087,0,0,1-.975,14.337A130.607,130.607,0,0,1,2558.649,5525.2Z" transform="translate(-2114.967 -947.354)" fill="#e32030"/>
    <path id="Path_706" data-name="Path 706" d="M2558.649,5525.2a130.628,130.628,0,0,1-130.623,130.624H2037.479a135.138,135.138,0,0,1-63.666-254.327,174.07,174.07,0,0,1,297.07-108.725,105.052,105.052,0,0,1,163.088,87.579,106.087,106.087,0,0,1-.975,14.337A130.607,130.607,0,0,1,2558.649,5525.2Z" transform="translate(-1159.363 -921.19)" fill="#e32031"/>
    <path id="Path_708" data-name="Path 708" d="M1902.364,5420.643a82.518,82.518,0,0,0,82.514,82.514h246.706A85.366,85.366,0,0,0,2271.8,5342.5a109.959,109.959,0,0,0-187.657-68.681,66.361,66.361,0,0,0-103.022,55.323,67,67,0,0,0,.616,9.057A82.5,82.5,0,0,0,1902.364,5420.643Z" transform="translate(-317.364 -942.534)" fill="#e5212f"/>
    <path id="Path_707" data-name="Path 707" d="M1902.364,5420.643a82.518,82.518,0,0,0,82.514,82.514h246.706A85.366,85.366,0,0,0,2271.8,5342.5a109.959,109.959,0,0,0-187.657-68.681,66.361,66.361,0,0,0-103.022,55.323,67,67,0,0,0,.616,9.057A82.5,82.5,0,0,0,1902.364,5420.643Z" transform="translate(-582.686 -893.948)" fill="#e5212f"/>
    <path id="Path_705" data-name="Path 705" d="M1902.364,5420.643a82.518,82.518,0,0,0,82.514,82.514h246.706A85.366,85.366,0,0,0,2271.8,5342.5a109.959,109.959,0,0,0-187.657-68.681,66.361,66.361,0,0,0-103.022,55.323,67,67,0,0,0,.616,9.057A82.5,82.5,0,0,0,1902.364,5420.643Z" transform="translate(-1501.65 -874.69)" fill="#e7202c"/>
  </g>
</svg>
