<svg id="Group_286" data-name="Group 286" xmlns="http://www.w3.org/2000/svg" width="61.17" height="109.839" viewBox="0 0 61.17 109.839">
  <rect id="Rectangle_27" data-name="Rectangle 27" width="61.17" height="5.986" rx="2.993" transform="translate(0 103.853)" fill="#fff"/>
  <rect id="Rectangle_28" data-name="Rectangle 28" width="54.64" height="7.708" rx="3.854" transform="translate(3.265 32.905)" fill="#fff"/>
  <path id="Path_125" data-name="Path 125" d="M9097.34,6604.837l-25.993,23.368c-1.274,1.145-.76,4.217.706,4.217h51.78c1.464,0,1.979-3.072.706-4.217l-25.994-23.368A.848.848,0,0,0,9097.34,6604.837Z" transform="translate(-9067.356 -6604.586)" fill="#fff"/>
  <g id="Group_25" data-name="Group 25" transform="translate(7.053 46.299)">
    <path id="Path_126" data-name="Path 126" d="M9126.279,7000.269h-3.336c-.645,0-1.175.792-1.2,1.791l-1,44.154c-.024,1.05.519,1.922,1.2,1.922h5.345c.679,0,1.222-.872,1.2-1.922l-1-44.154C9127.455,7001.061,9126.926,7000.269,9126.279,7000.269Z" transform="translate(-9120.74 -7000.269)" fill="#fff"/>
    <path id="Path_127" data-name="Path 127" d="M9299.681,7000.269h-3.338c-.646,0-1.174.792-1.2,1.791l-1,44.154c-.024,1.05.52,1.922,1.2,1.922h5.344c.679,0,1.223-.872,1.2-1.922l-1-44.154C9300.855,7001.061,9300.325,7000.269,9299.681,7000.269Z" transform="translate(-9281.033 -7000.269)" fill="#fff"/>
    <path id="Path_128" data-name="Path 128" d="M9473.078,7000.269h-3.336c-.646,0-1.176.792-1.2,1.791l-1,44.154c-.023,1.05.52,1.922,1.2,1.922h5.344c.678,0,1.223-.872,1.2-1.922l-1-44.154C9474.256,7001.061,9473.725,7000.269,9473.078,7000.269Z" transform="translate(-9441.326 -7000.269)" fill="#fff"/>
    <path id="Path_129" data-name="Path 129" d="M9646.477,7000.269h-3.336c-.645,0-1.175.792-1.2,1.791l-1,44.154c-.024,1.05.521,1.922,1.2,1.922h5.344c.679,0,1.224-.872,1.2-1.922l-1-44.154C9647.652,7001.061,9647.123,7000.269,9646.477,7000.269Z" transform="translate(-9601.616 -7000.269)" fill="#fff"/>
  </g>
</svg>
