<svg xmlns="http://www.w3.org/2000/svg" width="186.377" height="184.177" viewBox="0 0 186.377 184.177">
  <path id="Path_720" data-name="Path 720" d="M12.1,84.668c-31.945-31.125,9.48-52.636,9.48-52.636,13.149,21.82,25,25.986,41.075,25.424-7.934-7.235-7.172-20.544,1.125-24.23C-28.459-3.942,45.7-10.695,109.861,16.858c31.209,13.4-6.357,17.111-19.6,37.861a209.982,209.982,0,0,1,24.43-1.041c6.464-.087,13.957,1.731,12.538,6.327,2.692-1.07,11.578,1.3,10.335,7.127a18.992,18.992,0,0,0-16.092-.861C110.331,74.216,100.6,76.769,91.4,76.946c14.017,19.465,49.065,23.312,18.607,36.392-64.157,27.553-138.32,20.8-46.083-16.368-8.3-3.686-9.148-16.655-1.214-23.89C48.153,70.741,32.5,70.517,12.1,84.668Z" transform="matrix(0.839, -0.545, 0.545, 0.839, 0, 74.985)" fill="#fff" opacity="0.8"/>
</svg>
