<svg id="Group_290" data-name="Group 290" xmlns="http://www.w3.org/2000/svg" width="61.17" height="70.955" viewBox="0 0 61.17 70.955">
  <rect id="Rectangle_27" data-name="Rectangle 27" width="61.17" height="6.451" rx="3.226" transform="translate(0 64.504)" fill="#fff"/>
  <rect id="Rectangle_28" data-name="Rectangle 28" width="54.64" height="4.979" rx="2.49" transform="translate(3.265 21.256)" fill="#fff"/>
  <path id="Path_125" data-name="Path 125" d="M9097.34,6604.748l-25.993,15.1a1.462,1.462,0,0,0,.706,2.724h51.78a1.462,1.462,0,0,0,.706-2.724l-25.994-15.1A1.2,1.2,0,0,0,9097.34,6604.748Z" transform="translate(-9067.356 -6604.585)" fill="#fff"/>
  <g id="Group_25" data-name="Group 25" transform="translate(7.053 29.909)">
    <path id="Path_126" data-name="Path 126" d="M9126.279,7000.269h-3.336a1.2,1.2,0,0,0-1.2,1.157l-1,28.523a1.2,1.2,0,0,0,1.2,1.241h5.345a1.2,1.2,0,0,0,1.2-1.241l-1-28.523A1.2,1.2,0,0,0,9126.279,7000.269Z" transform="translate(-9120.74 -7000.269)" fill="#fff"/>
    <path id="Path_127" data-name="Path 127" d="M9299.681,7000.269h-3.338a1.2,1.2,0,0,0-1.2,1.157l-1,28.523a1.2,1.2,0,0,0,1.2,1.241h5.344a1.2,1.2,0,0,0,1.2-1.241l-1-28.523A1.2,1.2,0,0,0,9299.681,7000.269Z" transform="translate(-9281.033 -7000.269)" fill="#fff"/>
    <path id="Path_128" data-name="Path 128" d="M9473.078,7000.269h-3.336a1.2,1.2,0,0,0-1.2,1.157l-1,28.523a1.2,1.2,0,0,0,1.2,1.241h5.344a1.2,1.2,0,0,0,1.2-1.241l-1-28.523A1.2,1.2,0,0,0,9473.078,7000.269Z" transform="translate(-9441.326 -7000.269)" fill="#fff"/>
    <path id="Path_129" data-name="Path 129" d="M9646.477,7000.269h-3.336a1.2,1.2,0,0,0-1.2,1.157l-1,28.523a1.2,1.2,0,0,0,1.2,1.241h5.344a1.2,1.2,0,0,0,1.2-1.241l-1-28.523A1.2,1.2,0,0,0,9646.477,7000.269Z" transform="translate(-9601.616 -7000.269)" fill="#fff"/>
  </g>
</svg>
