<svg xmlns="http://www.w3.org/2000/svg" width="286.098" height="331.866" viewBox="0 0 286.098 331.866">
  <g id="Group_26" data-name="Group 26" transform="translate(-9027.427 -6604.585)">
    <rect id="Rectangle_27" data-name="Rectangle 27" width="286.098" height="30.172" rx="15.086" transform="translate(9027.427 6906.278)" fill="#fff"/>
    <rect id="Rectangle_28" data-name="Rectangle 28" width="255.557" height="23.288" rx="11.644" transform="translate(9042.697 6704.003)" fill="#fff"/>
    <path id="Path_125" data-name="Path 125" d="M9195.583,6605.343l-121.575,70.606c-5.957,3.46-3.552,12.739,3.3,12.739H9319.49c6.853,0,9.258-9.279,3.3-12.739l-121.577-70.606A5.609,5.609,0,0,0,9195.583,6605.343Z" transform="translate(-27.924)" fill="#fff"/>
    <g id="Group_25" data-name="Group 25" transform="translate(9060.416 6744.473)">
      <path id="Path_126" data-name="Path 126" d="M9146.648,7000.269h-15.6a5.607,5.607,0,0,0-5.6,5.411l-4.7,133.408a5.608,5.608,0,0,0,5.6,5.806h25a5.608,5.608,0,0,0,5.6-5.806l-4.7-133.408A5.609,5.609,0,0,0,9146.648,7000.269Z" transform="translate(-9120.74 -7000.269)" fill="#fff"/>
      <path id="Path_127" data-name="Path 127" d="M9320.047,7000.269h-15.6a5.608,5.608,0,0,0-5.6,5.411l-4.7,133.408a5.607,5.607,0,0,0,5.6,5.806h25a5.609,5.609,0,0,0,5.6-5.806l-4.7-133.408A5.611,5.611,0,0,0,9320.047,7000.269Z" transform="translate(-9232.837 -7000.269)" fill="#fff"/>
      <path id="Path_128" data-name="Path 128" d="M9493.448,7000.269h-15.605a5.609,5.609,0,0,0-5.6,5.411l-4.7,133.408a5.607,5.607,0,0,0,5.6,5.806h25a5.609,5.609,0,0,0,5.6-5.806l-4.7-133.408A5.609,5.609,0,0,0,9493.448,7000.269Z" transform="translate(-9344.935 -7000.269)" fill="#fff"/>
      <path id="Path_129" data-name="Path 129" d="M9666.846,7000.269h-15.6a5.609,5.609,0,0,0-5.6,5.411l-4.7,133.408a5.61,5.61,0,0,0,5.605,5.806h25a5.607,5.607,0,0,0,5.6-5.806l-4.693-133.408A5.611,5.611,0,0,0,9666.846,7000.269Z" transform="translate(-9457.03 -7000.269)" fill="#fff"/>
    </g>
  </g>
</svg>
