<svg xmlns="http://www.w3.org/2000/svg" width="1918" height="198.118" viewBox="0 0 1918 198.118">
  <path id="Path_965" data-name="Path 965" d="M-1544.856,5339.126v22.023h-479.5v-22.023Zm-95.889,44.03v88.069h-47.96V5449.2h23.99v-66.046h-95.9v88.069h-47.96V5449.2h23.99v-66.046h-95.9v88.069h-47.96V5449.2h23.969v-66.046h-95.879v88.069h-23.99v22h47.96v-88.048h47.939V5427.2h-23.97v66.025h95.9v-88.048h47.939V5427.2h-23.969v66.025h95.879v-88.048h47.96V5427.2h-23.969v66.025h95.9v-88.048h47.96V5427.2h-23.99v66.025h47.96v-22h-23.97V5449.2h23.97v-66.046Zm-143.86,0v22h.021v-22Zm119.87,0v22h.02v-22Zm-311.647,22v.02h23.969v-.02Zm23.969,0v.02h23.949v-.02Zm95.879,0v22.022h.021v-22h23.949v-.02Zm23.97,0v.02h23.99v-.02Zm47.96,0v22.022h.021v-22.022Zm47.94,0v.02h23.97v-.02Zm23.97,0v.02h23.97v-.02Zm47.96,0v22.022h.02v-22.022Zm47.939,0v22.022h.021v-22h23.949v-.02Zm23.97,0v.02h23.99v-.02Zm-263.708,22.022v22h.021v-22Zm71.929,0v22h.021v-22Zm119.87,0v22h.02v-22Zm47.939,0v22h.021v-22Zm-311.668,22V5471.2h.021v-22h23.969v-.021Zm71.93,0V5471.2h.021v-22.022Zm47.96,0v.021h23.969v-.021Zm23.969,0v.021h.021v-.021Zm95.879,0V5471.2h.021v-22h23.97v-.021Zm23.99,0v.021h.02v-.021Zm47.939,0V5471.2h.021v-22.022Zm47.96,0V5471.2h.021v-22h23.97v-.021Zm-287.7,22.022v22h.021v-22Zm239.738,0v22h.021v-22Zm-407.557,44.039v22h479.5v-22Zm479.5-176.117v22.023h479.5v-22.023Zm383.608,44.03v88.069h-47.96V5449.2h23.99v-66.046h-95.9v88.069h-47.96V5449.2h23.991v-66.046h-95.9v88.069h-47.96V5449.2h23.97v-66.046h-95.879v88.069h-23.99v22h47.96v-88.048h47.94V5427.2h-23.97v66.025h95.9v-88.048h47.939V5427.2h-23.97v66.025h95.879v-88.048h47.96V5427.2h-23.97v66.025h95.9v-88.048h47.96V5427.2h-23.99v66.025h47.96v-22h-23.97V5449.2h23.97v-66.046Zm-143.859,0v22h.021v-22Zm119.869,0v22h.021v-22Zm-311.648,22v.02h23.97v-.02Zm23.97,0v.02h23.949v-.02Zm95.879,0v22.022h.021v-22h23.949v-.02Zm23.97,0v.02h23.99v-.02Zm47.96,0v22.022h.021v-22.022Zm47.939,0v.02h23.97v-.02Zm23.97,0v.02h23.97v-.02Zm47.96,0v22.022h.021v-22.022Zm47.939,0v22.022h.021v-22h23.949v-.02Zm23.969,0v.02h23.991v-.02Zm-263.708,22.022v22h.021v-22Zm71.93,0v22h.021v-22Zm119.869,0v22h.021v-22Zm47.939,0v22h.021v-22Zm-311.668,22V5471.2h.021v-22h23.97v-.021Zm71.93,0V5471.2h.021v-22.022Zm47.96,0v.021h23.97v-.021Zm23.97,0v.021h.021v-.021Zm95.879,0V5471.2h.021v-22h23.969v-.021Zm23.99,0v.021h.021v-.021Zm47.939,0V5471.2h.021v-22.022Zm47.96,0V5471.2h.021v-22h23.97v-.021Zm-287.7,22.022v22h.021v-22Zm239.738,0v22h.021v-22Zm-407.557,44.039v22h479.5v-22Zm958.995-176.117v22.023h-479.5v-22.023Zm-95.889,44.03v88.069h-47.96V5449.2h23.99v-66.046h-95.9v88.069h-47.96V5449.2h23.99v-66.046h-95.9v88.069h-47.96V5449.2h23.97v-66.046h-95.879v88.069h-23.99v22h47.96v-88.048h47.939V5427.2h-23.97v66.025h95.9v-88.048h47.939V5427.2h-23.97v66.025h95.879v-88.048h47.96V5427.2h-23.97v66.025h95.9v-88.048h47.96V5427.2h-23.99v66.025h47.96v-22H-609.82V5449.2h23.969v-66.046Zm-143.86,0v22h.021v-22Zm119.869,0v22h.021v-22Zm-311.647,22v.02h23.97v-.02Zm23.97,0v.02h23.949v-.02Zm95.879,0v22.022h.021v-22h23.949v-.02Zm23.969,0v.02h23.99v-.02Zm47.96,0v22.022h.021v-22.022Zm47.939,0v.02h23.97v-.02Zm23.97,0v.02h23.97v-.02Zm47.96,0v22.022h.021v-22.022Zm47.939,0v22.022h.021v-22h23.949v-.02Zm23.97,0v.02h23.99v-.02Zm-263.708,22.022v22h.021v-22Zm71.93,0v22h.021v-22Zm119.869,0v22h.021v-22Zm47.939,0v22h.021v-22Zm-311.668,22V5471.2h.021v-22h23.97v-.021Zm71.93,0V5471.2h.021v-22.022Zm47.96,0v.021h23.97v-.021Zm23.97,0v.021h.021v-.021Zm95.879,0V5471.2h.021v-22h23.97v-.021Zm23.99,0v.021h.021v-.021Zm47.939,0V5471.2h.021v-22.022Zm47.96,0V5471.2h.021v-22h23.969v-.021Zm-287.7,22.022v22h.021v-22Zm239.738,0v22h.021v-22Zm-407.557,44.039v22h479.5v-22Zm479.5-176.117v22.023h479.5v-22.023Zm383.608,44.03v88.069h-47.96V5449.2h23.991v-66.046h-95.9v88.069h-47.96V5449.2h23.99v-66.046h-95.9v88.069h-47.96V5449.2h23.97v-66.046H-561.86v88.069h-23.99v22h47.96v-88.048h47.939V5427.2h-23.97v66.025h95.9v-88.048h47.939V5427.2h-23.97v66.025h95.879v-88.048h47.96V5427.2h-23.97v66.025h95.9v-88.048h47.96V5427.2h-23.99v66.025h47.96v-22h-23.97V5449.2h23.97v-66.046Zm-143.859,0v22h.021v-22Zm119.869,0v22h.021v-22Zm-311.648,22v.02h23.97v-.02Zm23.97,0v.02h23.949v-.02Zm95.879,0v22.022h.021v-22h23.949v-.02Zm23.97,0v.02h23.99v-.02Zm47.96,0v22.022h.021v-22.022Zm47.939,0v.02h23.97v-.02Zm23.97,0v.02h23.97v-.02Zm47.96,0v22.022h.021v-22.022Zm47.939,0v22.022h.021v-22h23.949v-.02Zm23.97,0v.02h23.99v-.02Zm-263.708,22.022v22h.021v-22Zm71.93,0v22h.021v-22Zm119.869,0v22h.021v-22Zm47.939,0v22h.021v-22Zm-311.668,22V5471.2h.021v-22h23.97v-.021Zm71.93,0V5471.2h.021v-22.022Zm47.96,0v.021h23.97v-.021Zm23.97,0v.021h.021v-.021Zm95.879,0V5471.2h.021v-22h23.97v-.021Zm23.99,0v.021h.021v-.021Zm47.939,0V5471.2h.021v-22.022Zm47.96,0V5471.2h.021v-22h23.97v-.021Zm-287.7,22.022v22h.021v-22Zm239.738,0v22h.021v-22Zm-407.558,44.039v22h479.5v-22Z" transform="translate(2024.353 -5339.126)" fill="#fff"/>
</svg>
