<svg id="Group_123" data-name="Group 123" xmlns="http://www.w3.org/2000/svg" width="161.162" height="104.086" viewBox="0 0 161.162 104.086">
  <path id="Path_218" data-name="Path 218" d="M2794.081,1204.58s-35.246,33.672-86.837,63.011C2721.619,1278.027,2856.895,1222.7,2794.081,1204.58Z" transform="translate(-2707.244 -1164.946)" fill="#fff"/>
  <path id="Path_219" data-name="Path 219" d="M2827.2,1222.189s-1.789,22.309-74.843,49.089C2800.794,1272.971,2876.671,1228.786,2827.2,1222.189Z" transform="translate(-2717.698 -1169.027)" fill="#fff"/>
  <path id="Path_220" data-name="Path 220" d="M2855.321,1235.4s-.257,23.147-71.384,40.636C2843.589,1278.822,2884.789,1239.362,2855.321,1235.4Z" transform="translate(-2725.018 -1172.088)" fill="#fff"/>
  <g id="Group_122" data-name="Group 122" transform="translate(97.755)">
    <path id="Path_221" data-name="Path 221" d="M2894.665,1170.078c-7.6-9.942-29.642-20.983-45.723-15.737-20.5,6.665-19.242,40.568,4.077,39.125l2.245,8.567,7.651-4.192C2888.824,1216.488,2905.179,1183.777,2894.665,1170.078Zm-10.216-1.855a1.751,1.751,0,1,1,.252,3.092A1.82,1.82,0,0,1,2884.448,1168.223Zm-7.308-2.222a2.333,2.333,0,1,1,.344,4.123A2.424,2.424,0,0,1,2877.141,1166Zm-14.432-6.025a2.334,2.334,0,1,1,.344,4.123A2.449,2.449,0,0,1,2862.709,1159.976Zm-6.986-2.177a1.751,1.751,0,1,1,.252,3.092A1.82,1.82,0,0,1,2855.723,1157.8Zm-6.3.481a1.173,1.173,0,1,1,.183,2.085A1.239,1.239,0,0,1,2849.423,1158.281Zm-3.826,23.412a9.482,9.482,0,1,1,13.241-1.994A9.856,9.856,0,0,1,2845.6,1181.693Zm19.793,7.376a7.834,7.834,0,0,1-3.047,4.7c-1.466,1.192-3.253,1.971-5.131,3.367a19.663,19.663,0,0,1-.5-5.658,9.076,9.076,0,0,1,1.97-5.246c1.214-1.466,3.115-2.428,4.536-2.061A4.735,4.735,0,0,1,2865.39,1189.069Zm2.359-14.478c-2.749-1.168-2.68-5.177-.527-6.552a3.7,3.7,0,1,1,.527,6.552Zm20.135,15.119a9.486,9.486,0,1,1-1.947-13.241A9.855,9.855,0,0,1,2887.884,1189.71Zm2.795-14.34a1.173,1.173,0,1,1,1.6-1.192A1.239,1.239,0,0,1,2890.679,1175.37Z" transform="translate(-2834.487 -1152.99)" fill="#fff"/>
  </g>
</svg>
