<svg xmlns="http://www.w3.org/2000/svg" width="558.581" height="675.53" viewBox="0 0 558.581 675.53">
  <path id="Path_711" data-name="Path 711" d="M-12959.168,1677.828c-14.861,78.7-45,232-45,232l247-72S-12804.833,1705.7-12959.168,1677.828Z" transform="translate(13312.494 -1518.802)" fill="none" stroke="#fff" stroke-width="5"/>
  <path id="Path_709" data-name="Path 709" d="M52.583,0C35.394,102.887,0,303.132,0,303.132l285.164-94.765S231.085,36.439,52.583,0Z" transform="matrix(0.485, -0.875, 0.875, 0.485, 4.138, 253.579)" fill="none" stroke="#fff" stroke-width="5"/>
  <path id="Path_710" data-name="Path 710" d="M-13240.58,1784.565c62.558,55.322,185,152,185,152l232-67a46.6,46.6,0,0,1,8,26c7.478,31.494,13.78,236.431-240,256-151.309-6.847-234.461-101.821-243-204S-13245.86,1793.646-13240.58,1784.565Z" transform="translate(13322.906 -1478.539)" fill="none" stroke="#fff" stroke-width="5"/>
</svg>
