<svg xmlns="http://www.w3.org/2000/svg" xmlns:xlink="http://www.w3.org/1999/xlink" width="346.98" height="43.44" viewBox="0 0 346.98 43.44">
  <defs>
    <linearGradient id="linear-gradient" x1="0.5" x2="0.5" y2="1" gradientUnits="objectBoundingBox">
      <stop offset="0" stop-color="#8c166b"/>
      <stop offset="1" stop-color="#d80326"/>
    </linearGradient>
  </defs>
  <path id="Path_302" data-name="Path 302" d="M18.78.72A34.364,34.364,0,0,1,9.15-.63,22.585,22.585,0,0,1,1.68-4.14l3.3-7.32A22.393,22.393,0,0,0,11.4-8.28a24.114,24.114,0,0,0,7.44,1.2q4.14,0,6.12-1.23a3.716,3.716,0,0,0,1.98-3.27,3.126,3.126,0,0,0-1.17-2.49,8.87,8.87,0,0,0-3-1.59q-1.83-.6-4.95-1.32a68.426,68.426,0,0,1-7.86-2.28,12.77,12.77,0,0,1-5.25-3.66,9.884,9.884,0,0,1-2.19-6.72A11.69,11.69,0,0,1,4.5-36.27a13.319,13.319,0,0,1,5.97-4.71,24.361,24.361,0,0,1,9.75-1.74,32.284,32.284,0,0,1,7.86.96A23.22,23.22,0,0,1,34.8-39l-3,7.38a23.419,23.419,0,0,0-11.64-3.3q-4.08,0-6.03,1.32a4.029,4.029,0,0,0-1.95,3.48,3.4,3.4,0,0,0,2.25,3.21,35.326,35.326,0,0,0,6.87,2.07,68.428,68.428,0,0,1,7.86,2.28,13.016,13.016,0,0,1,5.25,3.6A9.652,9.652,0,0,1,36.6-12.3a11.469,11.469,0,0,1-2.01,6.57,13.5,13.5,0,0,1-6.03,4.71A24.582,24.582,0,0,1,18.78.72ZM81.18-7.8V0H48.66V-42H80.4v7.8H58.32v9.12h19.5v7.56H58.32V-7.8ZM114.3.72a24.124,24.124,0,0,1-11.61-2.79,20.822,20.822,0,0,1-8.16-7.74A21.325,21.325,0,0,1,91.56-21a21.325,21.325,0,0,1,2.97-11.19,20.822,20.822,0,0,1,8.16-7.74,24.25,24.25,0,0,1,11.67-2.79,24.478,24.478,0,0,1,9.87,1.92,19.769,19.769,0,0,1,7.41,5.52l-6.24,5.76a13.417,13.417,0,0,0-10.56-4.92,14.022,14.022,0,0,0-6.96,1.71,12.156,12.156,0,0,0-4.77,4.77A14.022,14.022,0,0,0,101.4-21a14.022,14.022,0,0,0,1.71,6.96,12.156,12.156,0,0,0,4.77,4.77,14.022,14.022,0,0,0,6.96,1.71,13.352,13.352,0,0,0,10.56-4.98l6.24,5.76A19.45,19.45,0,0,1,124.2-1.2,24.693,24.693,0,0,1,114.3.72Zm47.58,0q-9,0-14.01-4.98t-5.01-14.22V-42h9.72v23.16q0,11.28,9.36,11.28,4.56,0,6.96-2.73t2.4-8.55V-42h9.6v23.52q0,9.24-5.01,14.22T161.88.72ZM222.66,0l-8.1-11.7h-8.94V0H195.9V-42h18.18a23.332,23.332,0,0,1,9.69,1.86,14.4,14.4,0,0,1,6.33,5.28,14.546,14.546,0,0,1,2.22,8.1,14.255,14.255,0,0,1-2.25,8.07,14.261,14.261,0,0,1-6.39,5.19L233.1,0Zm-.18-26.76a6.653,6.653,0,0,0-2.28-5.43q-2.28-1.89-6.66-1.89h-7.92v14.64h7.92q4.38,0,6.66-1.92A6.671,6.671,0,0,0,222.48-26.76ZM245.4-42h9.72V0H245.4Zm33.78,7.92H265.74V-42h36.6v7.92H288.9V0h-9.72Zm53.16,19.2V0h-9.72V-15L306.36-42h10.32L327.9-23.34,339.12-42h9.54Z" transform="translate(-1.68 42.72)" fill="url(#linear-gradient)"/>
</svg>
