<svg xmlns="http://www.w3.org/2000/svg" xmlns:xlink="http://www.w3.org/1999/xlink" width="562.02" height="43.44" viewBox="0 0 562.02 43.44">
  <defs>
    <linearGradient id="linear-gradient" x1="0.967" y1="0.5" x2="0.019" y2="0.5" gradientUnits="objectBoundingBox">
      <stop offset="0" stop-color="#8c166b"/>
      <stop offset="1" stop-color="#d80326"/>
    </linearGradient>
  </defs>
  <path id="Path_276" data-name="Path 276" d="M23.16-42H4.98V0H14.7V-11.58h8.46c11.22,0,18.24-5.82,18.24-15.18C41.4-36.18,34.38-42,23.16-42Zm-.54,22.5H14.7V-34.08h7.92c5.94,0,8.94,2.7,8.94,7.32C31.56-22.2,28.56-19.5,22.62-19.5ZM82.5-42v16.56H63.42V-42H53.7V0h9.72V-17.22H82.5V0h9.72V-42ZM107.58,0h9.72V-42h-9.72Zm25.08,0h30.78V-7.92H142.38V-42h-9.72Zm73.38,0h10.2L197.46-42h-9.6L169.14,0h9.96l3.72-9h19.5Zm-20.1-16.38,6.66-16.08,6.66,16.08Zm69-25.62v25.5L234.06-42h-8.04V0h9.6V-25.5L256.56,0h7.98V-42ZM288.6,0h9.72V-34.08h13.44V-42h-36.6v7.92H288.6Zm62.58-42v16.56H332.1V-42h-9.72V0h9.72V-17.22h19.08V0h9.72V-42ZM413.46,0l-9.42-13.5a13.655,13.655,0,0,0,8.64-13.26c0-9.42-7.02-15.24-18.24-15.24H376.26V0h9.72V-11.7h8.94L403.02,0ZM402.84-26.76c0,4.56-3,7.32-8.94,7.32h-7.92V-34.08h7.92C399.84-34.08,402.84-31.38,402.84-26.76ZM446.1.72c13.2,0,22.98-9.18,22.98-21.72S459.3-42.72,446.1-42.72c-13.26,0-22.98,9.24-22.98,21.72S432.84.72,446.1.72Zm0-8.28c-7.5,0-13.14-5.46-13.14-13.44s5.64-13.44,13.14-13.44S459.24-28.98,459.24-21,453.6-7.56,446.1-7.56ZM499.98-42H481.8V0h9.72V-11.58h8.46c11.22,0,18.24-5.82,18.24-15.18C518.22-36.18,511.2-42,499.98-42Zm-.54,22.5h-7.92V-34.08h7.92c5.94,0,8.94,2.7,8.94,7.32C508.38-22.2,505.38-19.5,499.44-19.5ZM567-42h-9.54L546.24-23.34,535.02-42H524.7l16.26,27V0h9.72V-14.88Z" transform="translate(-4.98 42.72)" fill="url(#linear-gradient)"/>
</svg>
