<svg xmlns="http://www.w3.org/2000/svg" xmlns:xlink="http://www.w3.org/1999/xlink" width="445.08" height="43.44" viewBox="0 0 445.08 43.44">
  <defs>
    <linearGradient id="linear-gradient" x1="0.98" y1="0.5" x2="0" y2="0.5" gradientUnits="objectBoundingBox">
      <stop offset="0" stop-color="#8c166b"/>
      <stop offset="1" stop-color="#d80326"/>
    </linearGradient>
  </defs>
  <path id="Path_277" data-name="Path 277" d="M23.16-42H4.98V0H14.7V-11.58h8.46c11.22,0,18.24-5.82,18.24-15.18C41.4-36.18,34.38-42,23.16-42Zm-.54,22.5H14.7V-34.08h7.92c5.94,0,8.94,2.7,8.94,7.32C31.56-22.2,28.56-19.5,22.62-19.5ZM90.9,0,81.48-13.5a13.655,13.655,0,0,0,8.64-13.26C90.12-36.18,83.1-42,71.88-42H53.7V0h9.72V-11.7h8.94L80.46,0ZM80.28-26.76c0,4.56-3,7.32-8.94,7.32H63.42V-34.08h7.92C77.28-34.08,80.28-31.38,80.28-26.76ZM123.54.72c13.2,0,22.98-9.18,22.98-21.72s-9.78-21.72-22.98-21.72c-13.26,0-22.98,9.24-22.98,21.72S110.28.72,123.54.72Zm0-8.28c-7.5,0-13.14-5.46-13.14-13.44s5.64-13.44,13.14-13.44S136.68-28.98,136.68-21,131.04-7.56,123.54-7.56ZM173.04.72c12,0,17.82-6,17.82-13.02,0-15.42-24.42-10.08-24.42-17.82,0-2.64,2.22-4.8,7.98-4.8a23.721,23.721,0,0,1,11.64,3.3l3-7.38c-3.9-2.46-9.3-3.72-14.58-3.72-11.94,0-17.7,5.94-17.7,13.08,0,15.6,24.42,10.2,24.42,18.06,0,2.58-2.34,4.5-8.1,4.5a24.7,24.7,0,0,1-13.86-4.38l-3.3,7.32C159.66-1.26,166.38.72,173.04.72ZM221.1-42H202.92V0h9.72V-11.58h8.46c11.22,0,18.24-5.82,18.24-15.18C239.34-36.18,232.32-42,221.1-42Zm-.54,22.5h-7.92V-34.08h7.92c5.94,0,8.94,2.7,8.94,7.32C229.5-22.2,226.5-19.5,220.56-19.5ZM261.3-7.8v-9.72h19.5v-7.56H261.3V-34.2h22.08V-42H251.64V0h32.52V-7.8ZM334.5,0l-9.42-13.5a13.655,13.655,0,0,0,8.64-13.26c0-9.42-7.02-15.24-18.24-15.24H297.3V0h9.72V-11.7h8.94L324.06,0ZM323.88-26.76c0,4.56-3,7.32-8.94,7.32h-7.92V-34.08h7.92C320.88-34.08,323.88-31.38,323.88-26.76ZM346.8,0h9.72V-42H346.8Zm33.78,0h9.72V-34.08h13.44V-42h-36.6v7.92h13.44Zm69.48-42h-9.54L429.3-23.34,418.08-42H407.76l16.26,27V0h9.72V-14.88Z" transform="translate(-4.98 42.72)" fill="url(#linear-gradient)"/>
</svg>
