<svg xmlns="http://www.w3.org/2000/svg" xmlns:xlink="http://www.w3.org/1999/xlink" width="212.174" height="224.389" viewBox="0 0 212.174 224.389">
  <defs>
    <linearGradient id="linear-gradient" x1="0.167" y1="0.862" x2="0.965" y2="0.138" gradientUnits="objectBoundingBox">
      <stop offset="0" stop-color="#781a7c"/>
      <stop offset="0.995" stop-color="#e4001b"/>
    </linearGradient>
  </defs>
  <path id="Path_703" data-name="Path 703" d="M-129.024,5794.233c39.349-44.673-11.677-75.546-11.677-75.546-16.2,31.318-30.79,37.3-50.6,36.489,9.773-10.384,8.834-29.485-1.386-34.776,113.615-53.346,22.263-63.038-56.764-23.493-38.442,19.236,7.831,24.559,24.147,54.34a222.272,222.272,0,0,0-30.092-1.495c-7.962-.125-17.192,2.485-15.444,9.082-3.316-1.536-14.262,1.871-12.73,10.229a20.551,20.551,0,0,1,19.822-1.235c13.719,11.4,25.7,15.066,37.041,15.32-17.266,27.938-60.437,33.458-22.919,52.232,79.027,39.545,170.378,29.853,56.764-23.493,10.22-5.29,11.268-23.9,1.495-34.288C-173.435,5774.244-154.149,5773.923-129.024,5794.233Z" transform="translate(1790.614 -5405.99) rotate(15)" fill="url(#linear-gradient)"/>
</svg>
