<svg xmlns="http://www.w3.org/2000/svg" width="212.174" height="224.389" viewBox="0 0 212.174 224.389">
  <path id="Path_703" data-name="Path 703" d="M154.687,121.521c39.349-44.673-11.677-75.546-11.677-75.546-16.2,31.318-30.79,37.3-50.6,36.489,9.773-10.384,8.834-29.485-1.386-34.776C204.644-5.658,113.292-15.35,34.265,24.2-4.177,43.432,42.1,48.754,58.412,78.535A222.272,222.272,0,0,0,28.32,77.041c-7.962-.125-17.192,2.485-15.444,9.082C9.56,84.586-1.386,87.993.146,96.352a20.551,20.551,0,0,1,19.822-1.235c13.719,11.4,25.7,15.066,37.041,15.32C39.744,138.374-3.427,143.895,34.09,162.668c79.027,39.545,170.378,29.853,56.764-23.493,10.22-5.29,11.268-23.9,1.495-34.288C110.276,101.531,129.562,101.21,154.687,121.521Z" transform="translate(48.364 0) rotate(15)" fill="#fff"/>
</svg>
