<svg id="Group_26" data-name="Group 26" xmlns="http://www.w3.org/2000/svg" width="286" height="331.758" viewBox="0 0 286 331.758">
  <rect id="Rectangle_27" data-name="Rectangle 27" width="286" height="30" rx="15" transform="translate(0 301.758)" fill="#fff"/>
  <rect id="Rectangle_28" data-name="Rectangle 28" width="256" height="23" rx="11.5" transform="translate(15 99.758)" fill="#fff"/>
  <path id="Path_125" data-name="Path 125" d="M9195.351,6605.451l-121,70c-5.957,3.46-3.854,13,3,13h242c6.853,0,8.956-9.54,3-13l-121-70A6.315,6.315,0,0,0,9195.351,6605.451Z" transform="translate(-9055.351 -6604.693)" fill="#fff"/>
  <g id="Group_25" data-name="Group 25" transform="translate(32.997 139.757)">
    <path id="Path_126" data-name="Path 126" d="M9146.751,7000.246h-16c-3.021,0-4.895,1.981-5,5l-5,134a6.11,6.11,0,0,0,6,6h25c3.175,0,5.111-2.827,5-6l-4-134C9152.645,7002.228,9149.771,7000.246,9146.751,7000.246Z" transform="translate(-9120.748 -7000.246)" fill="#fff"/>
    <path id="Path_127" data-name="Path 127" d="M9319.848,7000.246h-15c-3.02,0-5.895,1.981-6,5l-5,134a6.111,6.111,0,0,0,6,6h25a6.112,6.112,0,0,0,6-6l-5-134C9325.739,7002.228,9322.868,7000.246,9319.848,7000.246Z" transform="translate(-9232.845 -7000.246)" fill="#fff"/>
    <path id="Path_128" data-name="Path 128" d="M9493.945,7000.246h-16c-3.021,0-5.893,1.981-6,5l-4,134c-.112,3.173,1.824,6,5,6h25a6.112,6.112,0,0,0,6-6l-5-134C9498.839,7002.228,9496.964,7000.246,9493.945,7000.246Z" transform="translate(-9344.942 -7000.246)" fill="#fff"/>
    <path id="Path_129" data-name="Path 129" d="M9667.041,7000.246h-16c-3.02,0-4.893,1.981-5,5l-5,134a6.112,6.112,0,0,0,6,6h25c3.174,0,5.113-2.827,5-6l-5-134C9671.934,7002.228,9670.063,7000.246,9667.041,7000.246Z" transform="translate(-9457.038 -7000.246)" fill="#fff"/>
  </g>
</svg>
